<?xml version="1.0" encoding="utf-8"?>
<!-- Generator: Adobe Illustrator 16.0.0, SVG Export Plug-In . SVG Version: 6.00 Build 0)  -->
<!DOCTYPE svg PUBLIC "-//W3C//DTD SVG 1.1//EN" "http://www.w3.org/Graphics/SVG/1.1/DTD/svg11.dtd">
<svg version="1.1" id="Layer_1" xmlns="http://www.w3.org/2000/svg" xmlns:xlink="http://www.w3.org/1999/xlink" x="0px" y="0px"
	 width="157px" height="69px" viewBox="0 0 157 69" enable-background="new 0 0 157 69" xml:space="preserve">
<g>
	<g>
		<path fill="#ffffff" d="M101.519,45.752v4.771H82.957V26.147h18.387v4.771H88.283v4.944h11.492v4.771H88.283v5.119H101.519
			L101.519,45.752z M122.095,41.816l5.954,8.706h-6.27l-5.221-7.8h-4.214v7.8h-5.363V26.147h11.144c3.099,0,5.501,0.871,7.104,2.472
			c1.357,1.36,2.087,3.273,2.087,5.572v0.07C127.316,38.195,125.193,40.667,122.095,41.816L122.095,41.816z M121.886,34.469
			c0-2.297-1.603-3.48-4.215-3.48h-5.326v6.998h5.43c2.613,0,4.111-1.392,4.111-3.447V34.469L121.886,34.469z M150.994,50.522
			l-2.229-5.467h-10.308l-2.229,5.467h-5.466l10.445-24.548h4.945l10.447,24.548H150.994L150.994,50.522z M143.61,32.416
			l-3.236,7.904h6.476L143.61,32.416L143.61,32.416z"/>
	</g>
	<g>
		<g>
			<g>
				<path fill="#ffffff" d="M32.436,68.943c-17.365,0-31.492-14.294-31.492-31.862c0-12.452,7.238-23.837,18.44-29.004
					c0.875-0.403,1.908-0.013,2.307,0.872c0.398,0.886,0.013,1.93-0.862,2.334C10.864,15.878,4.426,26.005,4.426,37.081
					c0,15.627,12.565,28.34,28.009,28.34s28.009-12.713,28.009-28.34c0-11.216-6.553-21.395-16.695-25.932
					c-0.879-0.394-1.277-1.434-0.889-2.324c0.39-0.889,1.417-1.291,2.296-0.898c11.402,5.101,18.77,16.544,18.77,29.154
					C63.927,54.649,49.799,68.943,32.436,68.943z"/>
			</g>
			<g>
				<path fill="#ffffff" d="M37.29,8.502c-0.962,0-1.741-0.788-1.741-1.762c0-1.772-1.425-3.214-3.177-3.214
					c-1.751,0-3.177,1.442-3.177,3.214c0,0.973-0.779,1.762-1.741,1.762c-0.962,0-1.741-0.788-1.741-1.762
					c0-3.714,2.987-6.737,6.659-6.737s6.659,3.023,6.659,6.737C39.03,7.713,38.252,8.502,37.29,8.502z"/>
			</g>
			<g>
				<path fill="#ffffff" d="M11.396,17.571c-0.445,0-0.891-0.172-1.23-0.516l-3.96-4.006c-0.681-0.688-0.681-1.803,0-2.491
					c0.679-0.688,1.782-0.688,2.462,0l3.96,4.006c0.68,0.688,0.68,1.803,0,2.491C12.288,17.399,11.842,17.571,11.396,17.571z"/>
			</g>
			<g>
				<path fill="#ffffff" d="M53.303,17.392c-0.445,0-0.891-0.172-1.231-0.517c-0.68-0.688-0.68-1.803,0-2.491l3.589-3.632
					c0.679-0.688,1.782-0.688,2.462,0c0.68,0.688,0.68,1.803,0,2.491l-3.589,3.632C54.194,17.219,53.748,17.392,53.303,17.392z"/>
			</g>
		</g>
		<g>
			<path fill="#C5A35B" d="M32.436,44.667c-3.637,0-6.596-2.993-6.596-6.672c0-3.68,2.959-6.674,6.596-6.674
				s6.595,2.994,6.595,6.674C39.03,41.674,36.072,44.667,32.436,44.667z M32.436,34.844c-1.717,0-3.114,1.414-3.114,3.15
				c0,1.737,1.397,3.149,3.114,3.149s3.113-1.412,3.113-3.149C35.548,36.259,34.152,34.844,32.436,34.844z"/>
		</g>
		<g>
			<path fill="#C5A35B" d="M32.588,34.616c-0.961,0-1.74-0.789-1.74-1.761v-9.16c0-0.973,0.779-1.762,1.74-1.762
				c0.962,0,1.742,0.789,1.742,1.762v9.16C34.33,33.827,33.551,34.616,32.588,34.616z"/>
		</g>
		<g>
			<path fill="#ffffff" d="M32.588,61.392c-0.459,0-0.905-0.192-1.231-0.517c-0.321-0.331-0.509-0.783-0.509-1.247
				c0-0.466,0.188-0.917,0.509-1.247c0.647-0.647,1.817-0.654,2.464,0c0.322,0.33,0.509,0.781,0.509,1.247
				c0,0.464-0.188,0.916-0.509,1.247C33.494,61.199,33.048,61.392,32.588,61.392z"/>
		</g>
		<g>
			<path fill="#ffffff" d="M54.873,39.547c-0.459,0-0.905-0.189-1.232-0.514c-0.321-0.332-0.509-0.782-0.509-1.248
				c0-0.465,0.188-0.915,0.509-1.247c0.647-0.655,1.817-0.655,2.464,0c0.321,0.332,0.508,0.782,0.508,1.247
				c0,0.466-0.188,0.916-0.508,1.248C55.779,39.357,55.333,39.547,54.873,39.547z"/>
		</g>
		<g>
			<path fill="#ffffff" d="M9.608,39.547c-0.459,0-0.906-0.189-1.233-0.514c-0.32-0.332-0.508-0.782-0.508-1.248
				c0-0.465,0.188-0.915,0.508-1.247c0.648-0.655,1.818-0.655,2.466,0c0.32,0.332,0.508,0.782,0.508,1.247
				c0,0.466-0.188,0.916-0.508,1.248C10.513,39.357,10.067,39.547,9.608,39.547z"/>
		</g>
		<g>
			<path fill="#ffffff" d="M32.588,16.297c-0.459,0-0.905-0.191-1.231-0.515c-0.321-0.332-0.509-0.782-0.509-1.247
				c0-0.465,0.188-0.917,0.509-1.247c0.647-0.648,1.817-0.655,2.464,0c0.322,0.331,0.509,0.782,0.509,1.247
				c0,0.465-0.188,0.915-0.509,1.247C33.494,16.106,33.048,16.297,32.588,16.297z"/>
		</g>
		<g>
			<path fill="#ffffff" d="M16.732,55.033c-0.46,0-0.912-0.188-1.233-0.514c-0.327-0.332-0.509-0.783-0.509-1.247
				c0-0.466,0.182-0.916,0.509-1.247c0.647-0.656,1.811-0.656,2.458,0c0.328,0.33,0.516,0.781,0.516,1.247
				c0,0.464-0.188,0.915-0.516,1.247C17.637,54.845,17.185,55.033,16.732,55.033z"/>
		</g>
		<g>
			<path fill="#ffffff" d="M47.749,55.534c-0.453,0-0.905-0.189-1.226-0.522c-0.327-0.323-0.515-0.774-0.515-1.239
				s0.188-0.916,0.515-1.246c0.641-0.656,1.811-0.656,2.459,0c0.327,0.322,0.507,0.781,0.507,1.246s-0.181,0.916-0.507,1.247
				C48.662,55.345,48.209,55.534,47.749,55.534z"/>
		</g>
		<g>
			<path fill="#ffffff" d="M15.743,23.152c-0.453,0-0.905-0.19-1.232-0.515c-0.321-0.331-0.509-0.789-0.509-1.247
				c0-0.465,0.188-0.923,0.509-1.247c0.654-0.655,1.817-0.655,2.464,0c0.327,0.324,0.509,0.782,0.509,1.247
				c0,0.458-0.182,0.916-0.509,1.24C16.648,22.962,16.203,23.152,15.743,23.152z"/>
		</g>
		<g>
			<path fill="#ffffff" d="M48.245,23.152c-0.46,0-0.906-0.19-1.233-0.522c-0.32-0.324-0.508-0.782-0.508-1.24
				c0-0.465,0.188-0.923,0.508-1.247c0.647-0.655,1.817-0.655,2.465,0c0.32,0.33,0.509,0.782,0.509,1.247
				c0,0.458-0.189,0.916-0.509,1.24C49.149,22.962,48.703,23.152,48.245,23.152z"/>
		</g>
	</g>
</g>
</svg>
