<?xml version="1.0" encoding="utf-8"?>
<!-- Generator: Adobe Illustrator 17.0.0, SVG Export Plug-In . SVG Version: 6.00 Build 0)  -->
<!DOCTYPE svg PUBLIC "-//W3C//DTD SVG 1.1//EN" "http://www.w3.org/Graphics/SVG/1.1/DTD/svg11.dtd">
<svg version="1.1" id="Layer_1" xmlns="http://www.w3.org/2000/svg" xmlns:xlink="http://www.w3.org/1999/xlink" x="0px" y="0px"
	 width="2000px" height="2000px" viewBox="0 0 2000 2000" enable-background="new 0 0 2000 2000" xml:space="preserve">
<g>
	<g>
		<path fill="#FFFFFF" d="M1904.18,950.87c6.829-0.014,12.172,2.412,16.029,7.276c4.597,5.761,6.909,15.327,6.936,28.694
			c0.027,13.337-2.26,22.928-6.865,28.771c-3.805,4.818-9.122,7.233-15.951,7.248c-6.861,0.014-12.397-2.611-16.607-7.876
			c-4.212-5.263-6.331-14.662-6.359-28.191c-0.028-13.273,2.261-22.831,6.865-28.676C1892.033,953.3,1897.35,950.884,1904.18,950.87
			z M1904.203,962.074c-1.635,0.003-3.093,0.527-4.373,1.572c-1.28,1.045-2.27,2.915-2.969,5.609
			c-0.924,3.497-1.375,9.38-1.358,17.651s0.445,13.954,1.286,17.045c0.839,3.093,1.894,5.149,3.163,6.172
			c1.268,1.023,2.721,1.533,4.355,1.53c1.635-0.003,3.093-0.527,4.373-1.572c1.28-1.045,2.269-2.914,2.969-5.609
			c0.923-3.465,1.376-9.333,1.359-17.604c-0.018-8.271-0.447-13.953-1.287-17.046c-0.841-3.091-1.895-5.157-3.162-6.197
			C1907.288,962.59,1905.837,962.071,1904.203,962.074z"/>
	</g>
	<g>
		<path fill="#FFFFFF" d="M1962.806,950.747c6.829-0.014,12.172,2.412,16.029,7.276c4.597,5.761,6.909,15.327,6.936,28.695
			c0.027,13.337-2.26,22.928-6.865,28.771c-3.805,4.818-9.122,7.233-15.951,7.248c-6.861,0.014-12.397-2.611-16.607-7.876
			c-4.211-5.264-6.331-14.662-6.359-28.191c-0.028-13.273,2.261-22.831,6.865-28.676
			C1950.66,953.178,1955.977,950.762,1962.806,950.747z M1962.829,961.952c-1.635,0.003-3.093,0.527-4.373,1.572
			c-1.28,1.045-2.27,2.915-2.969,5.609c-0.924,3.497-1.376,9.38-1.358,17.651s0.445,13.954,1.286,17.045
			c0.84,3.092,1.894,5.149,3.163,6.172c1.268,1.023,2.72,1.533,4.355,1.53c1.635-0.003,3.093-0.527,4.373-1.572
			c1.28-1.044,2.269-2.914,2.969-5.609c0.923-3.465,1.376-9.333,1.36-17.604c-0.018-8.271-0.447-13.953-1.287-17.046
			c-0.841-3.091-1.895-5.157-3.162-6.197C1965.916,962.467,1964.465,961.949,1962.829,961.952z"/>
	</g>
	<g>
		<path fill="#FFFFFF" d="M1878.102,1098.83l13.527-0.5c0.182,3.064,1.158,5.548,2.929,7.448c1.77,1.901,3.887,2.932,6.351,3.096
			c2.814,0.186,5.273-0.799,7.377-2.955c2.102-2.157,3.307-5.541,3.614-10.149c0.287-4.318-0.466-7.621-2.259-9.909
			c-1.792-2.287-4.239-3.534-7.341-3.74c-3.871-0.258-7.456,1.224-10.755,4.443l-10.835-2.309l9.338-36.155l35.654,2.366
			l-0.837,12.62l-25.434-1.687l-2.905,11.808c3.107-1.304,6.226-1.852,9.363-1.643c5.98,0.396,10.906,2.909,14.779,7.536
			c3.868,4.627,5.575,10.411,5.114,17.352c-0.384,5.791-2.408,10.846-6.069,15.165c-4.987,5.903-11.543,8.585-19.668,8.046
			c-6.495-0.431-11.673-2.527-15.536-6.286C1880.648,1109.618,1878.512,1104.769,1878.102,1098.83z"/>
	</g>
	<g>
		<path fill="#FFFFFF" d="M1936.58,1104.543l13.147-0.575c0.143,2.678,0.845,4.7,2.102,6.069c1.26,1.368,2.993,2.126,5.201,2.273
			c2.782,0.184,5.233-0.937,7.355-3.367c2.121-2.429,3.721-7.657,4.8-15.684c-3.652,3.711-8.021,5.397-13.108,5.058
			c-5.535-0.368-10.169-2.819-13.899-7.357c-3.732-4.537-5.369-10.228-4.915-17.075c0.473-7.134,2.974-12.742,7.503-16.829
			c4.528-4.084,10.071-5.911,16.629-5.474c7.134,0.473,12.805,3.621,17.013,9.444c4.208,5.822,5.893,15.051,5.055,27.687
			c-0.854,12.86-3.854,21.98-8.998,27.358c-5.144,5.379-11.54,7.813-19.185,7.306c-5.504-0.365-9.853-2.126-13.05-5.277
			C1939.036,1114.947,1937.152,1110.428,1936.58,1104.543z M1969.052,1077.103c0.289-4.35-0.487-7.792-2.326-10.323
			c-1.841-2.533-4.072-3.886-6.697-4.059c-2.495-0.166-4.633,0.681-6.41,2.538c-1.778,1.857-2.815,5.027-3.112,9.505
			c-0.303,4.543,0.372,7.937,2.023,10.184c1.65,2.246,3.82,3.459,6.506,3.637c2.591,0.171,4.843-0.708,6.755-2.638
			C1967.703,1084.02,1968.791,1081.07,1969.052,1077.103z"/>
	</g>
	<g>
		<path fill="#FFFFFF" d="M1861.686,1190.007l13.51,0.857c-0.125,3.069,0.598,5.635,2.167,7.703c1.57,2.068,3.572,3.307,6.006,3.717
			c2.781,0.468,5.328-0.267,7.637-2.203c2.309-1.936,3.844-5.181,4.611-9.734c0.717-4.269,0.299-7.63-1.255-10.086
			c-1.554-2.456-3.865-3.941-6.932-4.456c-3.825-0.643-7.54,0.473-11.143,3.345l-10.55-3.381l12.911-35.036l35.237,5.922
			l-2.096,12.473l-25.135-4.224l-4.072,11.456c3.222-0.985,6.382-1.218,9.481-0.698c5.912,0.994,10.561,3.986,13.949,8.976
			c3.386,4.99,4.504,10.916,3.351,17.775c-0.963,5.724-3.48,10.551-7.555,14.482c-5.552,5.373-12.343,7.384-20.374,6.034
			c-6.419-1.079-11.362-3.681-14.829-7.807C1863.138,1200.996,1861.497,1195.957,1861.686,1190.007z"/>
	</g>
	<g>
		<path fill="#FFFFFF" d="M1934.043,1181.981c-3.203-2.033-5.372-4.454-6.509-7.262c-1.138-2.809-1.451-5.73-0.941-8.765
			c0.872-5.186,3.401-9.163,7.59-11.94c4.188-2.775,9.619-3.601,16.29-2.48c6.607,1.111,11.453,3.664,14.537,7.661
			c3.082,3.997,4.189,8.589,3.316,13.772c-0.542,3.225-1.861,5.953-3.96,8.185c-2.099,2.232-4.776,3.757-8.035,4.575
			c3.598,2.198,6.148,4.951,7.657,8.26c1.508,3.31,1.937,6.908,1.282,10.797c-1.079,6.419-4.003,11.292-8.773,14.617
			c-4.77,3.328-10.553,4.42-17.349,3.278c-6.322-1.063-11.308-3.608-14.955-7.634c-4.305-4.754-5.882-10.547-4.734-17.376
			c0.632-3.761,2.145-7.058,4.54-9.891C1926.391,1184.945,1929.739,1183.015,1934.043,1181.981z M1932.809,1198.598
			c-0.617,3.668-0.157,6.687,1.379,9.058c1.535,2.372,3.71,3.792,6.525,4.266c2.75,0.462,5.193-0.143,7.327-1.816
			c2.135-1.673,3.515-4.375,4.142-8.106c0.547-3.255,0.068-6.025-1.431-8.31c-1.502-2.284-3.66-3.663-6.474-4.136
			c-3.258-0.547-5.873,0.168-7.847,2.144C1934.456,1193.674,1933.249,1195.974,1932.809,1198.598z M1939.048,1169.023
			c-0.447,2.656-0.044,4.852,1.209,6.59c1.252,1.738,3.125,2.817,5.624,3.236c2.528,0.426,4.679,0.015,6.448-1.231
			c1.769-1.247,2.88-3.198,3.325-5.854c0.42-2.497,0.006-4.623-1.243-6.378c-1.251-1.754-3.109-2.839-5.574-3.253
			c-2.561-0.43-4.728-0.014-6.499,1.247C1940.564,1164.645,1939.468,1166.525,1939.048,1169.023z"/>
	</g>
	<g>
		<path fill="#FFFFFF" d="M1837.361,1277.357l13.286,2.595c-0.52,3.026-0.136,5.665,1.153,7.92c1.289,2.255,3.115,3.74,5.479,4.462
			c2.697,0.824,5.317,0.424,7.857-1.197c2.54-1.622,4.481-4.642,5.829-9.058c1.263-4.139,1.283-7.527,0.059-10.163
			c-1.224-2.636-3.322-4.408-6.296-5.315c-3.712-1.132-7.538-0.505-11.482,1.877l-10.026-4.717l17.329-33.076l34.177,10.427
			l-3.69,12.098l-24.38-7.438l-5.517,10.837c3.322-0.563,6.486-0.384,9.492,0.532c5.733,1.749,9.956,5.317,12.672,10.703
			c2.712,5.387,3.054,11.407,1.024,18.061c-1.693,5.552-4.813,10.013-9.362,13.385c-6.201,4.612-13.195,5.727-20.984,3.353
			c-6.225-1.9-10.79-5.119-13.694-9.659C1837.38,1288.442,1836.406,1283.233,1837.361,1277.357z"/>
	</g>
	<g>
		<path fill="#FFFFFF" d="M1904.593,1257.242l3.663-12.004l44.205,13.484l-2.862,9.384c-4.744,2.475-10.025,6.495-15.846,12.06
			c-5.821,5.564-10.872,11.826-15.156,18.781c-4.284,6.956-7.318,13.412-9.103,19.371l-12.465-3.802
			c3.057-9.256,7.883-18.177,14.473-26.758c6.589-8.582,14.087-15.764,22.487-21.549L1904.593,1257.242z"/>
	</g>
	<g>
		<path fill="#FFFFFF" d="M1803.243,1365.344l12.993,3.798c-0.796,2.967-0.653,5.629,0.425,7.991
			c1.077,2.362,2.759,4.01,5.044,4.942c2.613,1.067,5.256,0.909,7.934-0.474c2.677-1.382,4.887-4.211,6.633-8.487
			c1.637-4.007,1.965-7.378,0.988-10.114c-0.979-2.737-2.906-4.693-5.784-5.869c-3.591-1.466-7.461-1.193-11.605,0.821l-9.552-5.615
			l20.28-31.352l33.08,13.505l-4.781,11.709l-23.596-9.634l-6.485,10.285c3.359-0.256,6.494,0.211,9.401,1.399
			c5.549,2.265,9.431,6.205,11.642,11.816c2.208,5.611,2,11.639-0.629,18.079c-2.194,5.372-5.709,9.53-10.545,12.471
			c-6.596,4.026-13.662,4.499-21.201,1.421c-6.026-2.461-10.277-6.083-12.755-10.869
			C1802.25,1376.384,1801.755,1371.109,1803.243,1365.344z"/>
	</g>
	<g>
		<path fill="#FFFFFF" d="M1912.995,1372.235l-12.655-3.608c0.723-2.615,0.701-4.769-0.061-6.466
			c-0.763-1.696-2.139-2.95-4.127-3.763c-2.641-1.079-5.358-0.803-8.153,0.826c-2.794,1.63-5.964,6.102-9.503,13.417
			c4.619-2.406,9.245-2.666,13.874-0.777c5.223,2.133,8.885,5.949,10.987,11.447c2.101,5.499,1.868,11.393-0.701,17.686
			c-2.726,6.679-6.873,11.236-12.439,13.672c-5.567,2.438-11.421,2.402-17.565-0.107c-6.589-2.69-10.96-7.461-13.115-14.314
			c-2.154-6.853-0.849-16.111,3.913-27.778c4.882-11.96,10.613-19.68,17.194-23.158c6.579-3.478,13.401-3.774,20.465-0.89
			c4.956,2.023,8.492,5.087,10.612,9.188C1913.836,1361.716,1914.261,1366.59,1912.995,1372.235z M1873.494,1387.95
			c-1.661,4.066-2.007,7.588-1.041,10.561c0.967,2.975,2.653,4.953,5.056,5.935c2.315,0.945,4.614,0.826,6.896-0.354
			c2.283-1.18,4.266-3.832,5.952-7.958c1.732-4.243,2.172-7.693,1.314-10.346c-0.857-2.651-2.53-4.487-5.024-5.506
			c-2.404-0.981-4.822-0.868-7.253,0.337C1876.961,1381.825,1874.995,1384.27,1873.494,1387.95z"/>
	</g>
	<g>
		<path fill="#FFFFFF" d="M1760.696,1445.95l12.426,5.368c-1.153,2.845-1.341,5.505-0.56,7.981s2.246,4.319,4.399,5.527
			c2.462,1.38,5.105,1.548,7.933,0.504c2.825-1.043,5.367-3.577,7.625-7.604c2.118-3.775,2.858-7.08,2.225-9.916
			c-0.635-2.837-2.308-5.016-5.021-6.535c-3.384-1.897-7.255-2.102-11.617-0.617l-8.786-6.746l23.983-28.616l31.164,17.472
			l-6.184,11.031l-22.231-12.463l-7.7,9.411c3.364,0.159,6.417,1.006,9.158,2.543c5.229,2.93,8.594,7.317,10.097,13.159
			c1.503,5.841,0.554,11.795-2.849,17.862c-2.837,5.062-6.837,8.755-12,11.08c-7.04,3.184-14.11,2.784-21.214-1.197
			c-5.677-3.183-9.451-7.301-11.321-12.356C1758.352,1456.783,1758.509,1451.488,1760.696,1445.95z"/>
	</g>
	<g>
		<path fill="#FFFFFF" d="M1811.832,1474.618l12.426,5.369c-1.154,2.844-1.342,5.504-0.562,7.982c0.78,2.477,2.246,4.319,4.4,5.526
			c2.46,1.38,5.103,1.549,7.932,0.504c2.825-1.043,5.369-3.577,7.627-7.604c2.116-3.775,2.857-7.082,2.225-9.917
			c-0.636-2.836-2.308-5.014-5.021-6.535c-3.383-1.896-7.256-2.102-11.618-0.616l-8.787-6.746l23.983-28.616l31.165,17.471
			l-6.184,11.032l-22.232-12.463l-7.701,9.41c3.365,0.16,6.417,1.007,9.158,2.544c5.229,2.93,8.595,7.316,10.099,13.158
			c1.502,5.841,0.553,11.795-2.848,17.862c-2.838,5.063-6.838,8.756-11.999,11.08c-7.041,3.183-14.112,2.784-21.214-1.197
			c-5.679-3.182-9.452-7.302-11.321-12.356C1809.49,1485.451,1809.646,1480.156,1811.832,1474.618z"/>
	</g>
	<g>
		<path fill="#FFFFFF" d="M1709.542,1523.45l11.873,6.502c-1.414,2.726-1.848,5.358-1.301,7.897
			c0.547,2.539,1.834,4.509,3.867,5.912c2.321,1.603,4.939,2.015,7.852,1.24c2.911-0.776,5.68-3.062,8.301-6.862
			c2.46-3.562,3.504-6.784,3.138-9.666c-0.367-2.883-1.831-5.208-4.39-6.974c-3.193-2.205-7.029-2.768-11.512-1.695l-8.12-7.534
			l26.544-26.265l29.405,20.298l-7.186,10.41l-20.976-14.478l-8.544,8.652c3.336,0.473,6.296,1.6,8.883,3.386
			c4.933,3.406,7.875,8.088,8.83,14.043c0.952,5.956-0.545,11.798-4.498,17.524c-3.297,4.777-7.623,8.08-12.979,9.915
			c-7.307,2.514-14.311,1.459-21.012-3.169c-5.356-3.697-8.729-8.149-10.122-13.356
			C1706.199,1534.021,1706.849,1528.762,1709.542,1523.45z"/>
	</g>
	<g>
		<path fill="#FFFFFF" d="M1769.14,1586.621l8.059-11.675l-23.746-16.392l6.721-9.736l50.606-19.471l9.339,6.447l-25.406,36.807
			l7.201,4.971l-6.747,9.776l-7.203-4.971l-8.059,11.675L1769.14,1586.621z M1783.948,1565.169l13.687-19.829l-27.025,10.621
			L1783.948,1565.169z"/>
	</g>
	<g>
		<path fill="#FFFFFF" d="M1651.746,1594.54l10.928,7.991c-1.757,2.519-2.528,5.072-2.318,7.659
			c0.211,2.589,1.233,4.711,3.064,6.365c2.094,1.891,4.634,2.641,7.621,2.252c2.987-0.391,6.028-2.299,9.123-5.726
			c2.901-3.212,4.357-6.271,4.369-9.176c0.011-2.906-1.137-5.401-3.445-7.486c-2.878-2.6-6.61-3.658-11.193-3.175l-7.072-8.529
			l29.732-22.587l26.516,23.949l-8.477,9.387l-18.915-17.084l-9.595,7.467c3.246,0.901,6.034,2.405,8.366,4.512
			c4.447,4.018,6.758,9.043,6.93,15.071c0.168,6.027-2.076,11.626-6.739,16.787c-3.889,4.307-8.61,7.021-14.159,8.142
			c-7.571,1.541-14.378-0.415-20.42-5.874c-4.831-4.364-7.597-9.214-8.3-14.558
			C1647.059,1604.586,1648.387,1599.455,1651.746,1594.54z"/>
	</g>
	<g>
		<path fill="#FFFFFF" d="M1695.143,1632.958l10.771,7.59c-1.926,2.754-2.802,5.397-2.627,7.929
			c0.173,2.535,1.225,4.671,3.151,6.411c2.069,1.869,4.522,2.658,7.357,2.366c2.833-0.291,5.453-1.77,7.861-4.434
			c2.277-2.521,3.405-5.131,3.38-7.833c-0.024-2.698-1.013-4.93-2.961-6.691c-1.285-1.162-3.047-2.297-5.282-3.409l8.487-7.173
			c2.65,2.52,5.249,3.802,7.805,3.842c2.555,0.04,4.768-0.974,6.638-3.045c1.59-1.759,2.333-3.638,2.232-5.63
			c-0.102-1.992-1.021-3.771-2.757-5.34c-1.713-1.548-3.714-2.274-6-2.181c-2.288,0.094-4.596,1.163-6.919,3.211l-7.826-9.919
			c3.501-2.584,6.754-4.238,9.76-4.958c3.003-0.721,6.155-0.573,9.453,0.44c3.297,1.013,6.384,2.819,9.264,5.419
			c4.924,4.448,7.456,9.585,7.593,15.412c0.13,4.782-1.267,8.793-4.189,12.029c-4.147,4.59-9.967,5.988-17.458,4.19
			c2.417,3.349,3.513,6.954,3.29,10.811c-0.222,3.859-1.764,7.371-4.623,10.535c-4.147,4.592-9.359,6.991-15.636,7.196
			c-6.277,0.206-11.914-1.948-16.91-6.46c-4.735-4.277-7.43-9.184-8.085-14.723
			C1690.256,1643.006,1691.667,1637.81,1695.143,1632.958z"/>
	</g>
	<g>
		<path fill="#FFFFFF" d="M1584.918,1659.421l10.302,8.782c-1.938,2.38-2.898,4.868-2.881,7.465
			c0.019,2.597,0.879,4.787,2.583,6.574c1.946,2.041,4.424,2.979,7.433,2.812c3.008-0.167,6.185-1.843,9.525-5.03
			c3.131-2.986,4.811-5.928,5.038-8.825c0.227-2.898-0.732-5.473-2.878-7.723c-2.676-2.807-6.32-4.14-10.925-4l-6.419-9.03
			l31.333-20.31l24.659,25.858l-9.152,8.728l-17.589-18.443l-10.126,6.732c3.17,1.141,5.839,2.848,8.008,5.124
			c4.137,4.338,6.066,9.521,5.787,15.545c-0.28,6.026-2.936,11.438-7.972,16.24c-4.2,4.004-9.106,6.361-14.724,7.066
			c-7.665,0.974-14.307-1.485-19.928-7.379c-4.489-4.71-6.887-9.756-7.192-15.135
			C1579.497,1669.087,1581.203,1664.073,1584.918,1659.421z"/>
	</g>
	<g>
		<path fill="#FFFFFF" d="M1652.704,1738.585l-9.083,8.662l-32.689-34.279c3.786-2.904,8.104-4.893,12.948-5.967
			c4.843-1.076,12.417-1.299,22.719-0.668c8.31,0.491,13.672,0.54,16.085,0.145c3.302-0.581,5.938-1.81,7.91-3.69
			c2.181-2.08,3.299-4.265,3.352-6.554c0.055-2.288-0.904-4.465-2.871-6.53c-1.947-2.043-4.111-3.081-6.49-3.114
			c-2.382-0.033-5.085,1.217-8.117,3.751l-8.317-10.673c5.934-4.553,11.535-6.415,16.798-5.587
			c5.265,0.828,10.086,3.538,14.467,8.132c4.801,5.034,7.216,10.284,7.246,15.75c0.029,5.465-1.975,10.123-6.012,13.973
			c-2.297,2.19-4.877,3.864-7.737,5.02c-2.864,1.157-6.282,1.927-10.26,2.308c-2.638,0.255-6.843,0.188-12.614-0.198
			c-5.773-0.386-9.518-0.549-11.231-0.488c-1.713,0.062-3.254,0.257-4.621,0.588L1652.704,1738.585z"/>
	</g>
	<g>
		<path fill="#FFFFFF" d="M1511.893,1719.249l9.639,9.505c-2.107,2.233-3.245,4.646-3.415,7.237
			c-0.171,2.59,0.531,4.839,2.099,6.744c1.795,2.178,4.197,3.292,7.211,3.344c3.012,0.051,6.3-1.39,9.863-4.328
			c3.341-2.751,5.228-5.566,5.665-8.438c0.438-2.872-0.333-5.509-2.311-7.909c-2.467-2.994-6.002-4.587-10.608-4.783l-5.747-9.47
			l32.722-17.988l22.72,27.576l-9.761,8.041l-16.207-19.67l-10.589,5.981c3.08,1.369,5.619,3.263,7.616,5.689
			c3.813,4.627,5.361,9.934,4.647,15.925c-0.716,5.987-3.758,11.196-9.126,15.619c-4.479,3.692-9.546,5.684-15.199,5.981
			c-7.717,0.416-14.163-2.518-19.34-8.802c-4.14-5.022-6.166-10.227-6.076-15.618
			C1505.783,1728.499,1507.849,1723.619,1511.893,1719.249z"/>
	</g>
	<g>
		<path fill="#FFFFFF" d="M1557.047,1802.563l-8.593-10.429l39.304-32.384c-6.703-0.875-13.038-3.194-19.005-6.959l9.463-7.798
			c3.134,1.987,7.258,3.552,12.375,4.696c5.117,1.144,9.821,0.943,14.115-0.602l6.973,8.464L1557.047,1802.563z"/>
	</g>
	<g>
		<path fill="#FFFFFF" d="M1436.828,1763.248l7.774,11.084c-2.474,1.818-4.027,3.987-4.661,6.506
			c-0.634,2.518-0.349,4.855,0.853,7.013c1.373,2.464,3.537,3.993,6.492,4.585c2.952,0.594,6.447-0.234,10.481-2.482
			c3.778-2.106,6.143-4.534,7.089-7.281c0.945-2.749,0.663-5.48-0.851-8.196c-1.89-3.39-5.08-5.594-9.577-6.61l-3.951-10.351
			l35.423-11.813l17.394,31.21l-11.048,6.158l-12.407-22.263l-11.489,3.982c2.781,1.897,4.94,4.22,6.468,6.965
			c2.918,5.236,3.487,10.736,1.709,16.5c-1.78,5.764-5.708,10.339-11.785,13.725c-5.068,2.824-10.411,3.875-16.025,3.152
			c-7.666-0.976-13.48-5.023-17.443-12.135c-3.168-5.685-4.225-11.17-3.171-16.455
			C1429.155,1771.248,1432.064,1766.82,1436.828,1763.248z"/>
	</g>
	<g>
		<path fill="#FFFFFF" d="M1522.392,1808.61c3.326,5.964,3.795,11.813,1.411,17.546c-2.81,6.814-10.052,13.474-21.73,19.983
			c-11.65,6.493-21.147,9.144-28.491,7.952c-6.059-0.994-10.748-4.469-14.073-10.435c-3.341-5.994-3.73-12.108-1.167-18.343
			c2.561-6.236,9.751-12.647,21.569-19.234c11.594-6.462,21.061-9.096,28.408-7.905
			C1514.375,1799.165,1519.066,1802.644,1522.392,1808.61z M1512.604,1814.063c-0.796-1.428-1.962-2.449-3.494-3.061
			c-1.536-0.614-3.649-0.572-6.346,0.122c-3.506,0.889-8.87,3.347-16.096,7.373c-7.224,4.027-11.985,7.157-14.282,9.392
			c-2.298,2.234-3.586,4.153-3.865,5.759c-0.279,1.605-0.02,3.123,0.776,4.551c0.796,1.428,1.96,2.448,3.494,3.061
			c1.534,0.614,3.649,0.572,6.346-0.122c3.477-0.873,8.828-3.325,16.052-7.351c7.225-4.027,11.985-7.157,14.283-9.389
			c2.295-2.235,3.592-4.158,3.884-5.773C1513.651,1817.012,1513.4,1815.492,1512.604,1814.063z"/>
	</g>
	<g>
		<path fill="#FFFFFF" d="M1348.221,1837.469l12.937-5.821l-11.842-26.314l10.789-4.855l53.381,9.519l4.657,10.349l-40.785,18.355
			l3.591,7.98l-10.831,4.875l-3.591-7.98l-12.937,5.823L1348.221,1837.469z M1371.99,1826.771l21.972-9.888l-28.622-4.892
			L1371.99,1826.771z"/>
	</g>
	<g>
		<path fill="#FFFFFF" d="M1376.391,1860.342l6.685,11.337c-2.297,1.385-3.752,2.953-4.368,4.708
			c-0.617,1.753-0.472,3.64,0.437,5.656c1.145,2.544,3.287,4.181,6.429,4.912c3.143,0.729,8.509-0.314,16.099-3.132
			c-4.99-1.481-8.531-4.545-10.623-9.194c-2.276-5.058-2.29-10.302-0.037-15.727c2.252-5.426,6.506-9.545,12.763-12.361
			c6.52-2.934,12.646-3.364,18.382-1.284c5.733,2.078,9.951,6.114,12.648,12.107c2.934,6.52,2.819,13.004-0.343,19.456
			c-3.162,6.449-10.517,12.274-22.065,17.472c-11.754,5.29-21.214,6.927-28.379,4.912c-7.164-2.014-12.319-6.516-15.463-13.502
			c-2.263-5.029-2.754-9.695-1.473-13.999C1368.362,1867.4,1371.464,1863.614,1376.391,1860.342z M1415.87,1876.115
			c3.976-1.789,6.65-4.09,8.02-6.906c1.37-2.814,1.517-5.421,0.438-7.817c-1.026-2.279-2.778-3.767-5.253-4.465
			c-2.475-0.698-5.761-0.124-9.854,1.718c-4.151,1.869-6.832,4.059-8.038,6.572c-1.209,2.512-1.26,4.995-0.154,7.452
			c1.066,2.367,2.899,3.941,5.5,4.722C1409.132,1878.173,1412.245,1877.747,1415.87,1876.115z"/>
	</g>
	<g>
		<path fill="#FFFFFF" d="M1258.86,1868.129l13.541-4.233l-8.609-27.541l11.293-3.53l51.86,15.834l3.387,10.833l-42.69,13.346
			l2.612,8.353l-11.339,3.545l-2.613-8.354l-13.541,4.233L1258.86,1868.129z M1283.739,1860.353l22.997-7.19l-27.831-8.279
			L1283.739,1860.353z"/>
	</g>
	<g>
		<path fill="#FFFFFF" d="M1308.214,1898.509c0.364-3.776,1.543-6.808,3.531-9.091c1.988-2.284,4.454-3.887,7.391-4.805
			c5.018-1.569,9.713-1.112,14.081,1.368c4.369,2.481,7.564,6.948,9.583,13.405c1.998,6.395,1.914,11.873-0.256,16.431
			c-2.169,4.558-5.762,7.621-10.781,9.19c-3.122,0.977-6.151,1.033-9.093,0.171c-2.94-0.862-5.511-2.559-7.714-5.095
			c-0.333,4.202-1.633,7.724-3.903,10.567c-2.269,2.843-5.285,4.851-9.049,6.027c-6.213,1.942-11.881,1.54-17.006-1.208
			c-5.126-2.749-8.716-7.412-10.772-13.99c-1.914-6.121-1.902-11.718,0.04-16.791c2.292-5.991,6.744-10.02,13.353-12.087
			c3.642-1.138,7.267-1.281,10.878-0.425C1302.109,1893.027,1305.347,1895.14,1308.214,1898.509z M1292.837,1904.927
			c-3.551,1.111-6.035,2.887-7.455,5.329c-1.42,2.441-1.703,5.025-0.852,7.749c0.832,2.662,2.477,4.565,4.934,5.713
			c2.458,1.146,5.493,1.154,9.104,0.026c3.152-0.986,5.406-2.664,6.764-5.036c1.356-2.374,1.611-4.921,0.76-7.644
			c-0.986-3.152-2.807-5.161-5.461-6.028C1297.973,1904.169,1295.378,1904.133,1292.837,1904.927z M1322.035,1897.111
			c-2.57,0.803-4.349,2.155-5.331,4.06c-0.984,1.902-1.098,4.064-0.341,6.481c0.765,2.448,2.104,4.178,4.017,5.193
			c1.912,1.014,4.155,1.121,6.726,0.316c2.416-0.755,4.124-2.088,5.125-3.995c0.999-1.908,1.127-4.055,0.38-6.442
			c-0.775-2.479-2.126-4.224-4.054-5.232C1326.626,1896.482,1324.452,1896.355,1322.035,1897.111z"/>
	</g>
	<g>
		<path fill="#FFFFFF" d="M1164.698,1891.092l13.825-3.173l-6.453-28.123l11.531-2.646l50.476,19.797l2.538,11.06l-43.59,10.002
			l1.957,8.53l-11.577,2.656l-1.957-8.531l-13.825,3.173L1164.698,1891.092z M1190.1,1885.264l23.483-5.388l-27.106-10.408
			L1190.1,1885.264z"/>
	</g>
	<g>
		<path fill="#FFFFFF" d="M1227.423,1909.661l12.232-2.806l10.336,45.042l-9.562,2.194c-4.509-2.881-10.625-5.457-18.351-7.729
			c-7.725-2.273-15.669-3.532-23.835-3.782c-8.165-0.249-15.274,0.339-21.329,1.761l-2.914-12.701
			c9.547-1.961,19.683-2.224,30.407-0.787c10.724,1.438,20.687,4.356,29.887,8.757L1227.423,1909.661z"/>
	</g>
	<g>
		<path fill="#FFFFFF" d="M1071.18,1903.888l14.118-1.395l-2.839-28.715l11.772-1.164l47.567,26.034l1.118,11.294l-44.509,4.399
			l0.861,8.711l-11.822,1.169l-0.861-8.711l-14.118,1.395L1071.18,1903.888z M1097.121,1901.325l23.975-2.369l-25.57-13.759
			L1097.121,1901.325z"/>
	</g>
	<g>
		<path fill="#FFFFFF" d="M1131.823,1976.191l-2.723-12.875c2.649-0.584,4.544-1.61,5.69-3.075c1.143-1.468,1.609-3.269,1.399-5.406
			c-0.28-2.84-1.795-5.113-4.541-6.824c-2.747-1.709-8.182-2.421-16.305-2.133c4.286,2.959,6.678,6.926,7.171,11.904
			c0.555,5.614-1.108,10.636-4.988,15.063c-3.88,4.427-9.203,6.976-15.965,7.645c-7.18,0.708-13.147-0.827-17.903-4.609
			c-4.755-3.783-7.459-8.976-8.111-15.581c-0.7-7.084,1.477-13.179,6.529-18.285c5.052-5.109,13.847-8.281,26.387-9.52
			c12.857-1.271,22.362,0.189,28.51,4.383c6.149,4.192,9.6,10.084,10.349,17.678c0.527,5.328-0.529,9.886-3.166,13.676
			C1141.52,1972.02,1137.407,1974.672,1131.823,1976.191z M1099.474,1948.605c-4.372,0.433-7.646,1.771-9.823,4.015
			c-2.179,2.245-3.14,4.659-2.884,7.244c0.246,2.489,1.424,4.466,3.533,5.931c2.11,1.467,5.383,1.981,9.818,1.542
			c4.562-0.451,7.814-1.675,9.761-3.672c1.945-1.996,2.786-4.334,2.521-7.014c-0.256-2.584-1.486-4.67-3.688-6.257
			C1106.509,1948.811,1103.429,1948.215,1099.474,1948.605z"/>
	</g>
	<g>
		<path fill="#FFFFFF" d="M976.83,1906.345l14.184-0.183l-0.374-28.85l11.828-0.153l45.163,30l0.148,11.348l-44.719,0.58
			l0.114,8.752l-11.876,0.155l-0.114-8.752L977,1919.425L976.83,1906.345z M1002.891,1906.007l24.09-0.313l-24.301-15.89
			L1002.891,1906.007z"/>
	</g>
	<g>
		<path fill="#FFFFFF" d="M995.376,1938.428l1.57,13.446c-3.041,0.424-5.437,1.593-7.192,3.508
			c-1.755,1.914-2.617,4.105-2.584,6.574c0.036,2.82,1.213,5.194,3.532,7.12c2.317,1.925,5.783,2.858,10.399,2.798
			c4.328-0.056,7.561-1.07,9.699-3.036c2.139-1.969,3.187-4.507,3.147-7.616c-0.051-3.88-1.81-7.334-5.28-10.367l1.444-10.984
			l36.778,6.447l0.465,35.727l-12.646,0.164l-0.332-25.484l-11.999-1.96c1.545,2.993,2.339,6.061,2.38,9.203
			c0.077,5.995-2.037,11.103-6.342,15.328c-4.305,4.223-9.936,6.382-16.892,6.472c-5.803,0.075-11.001-1.54-15.598-4.848
			c-6.279-4.505-9.471-10.826-9.576-18.968c-0.085-6.508,1.593-11.835,5.034-15.985
			C984.826,1941.819,989.49,1939.307,995.376,1938.428z"/>
	</g>
	<g>
		<path fill="#FFFFFF" d="M881.821,1899.22l14.117,1.406l2.857-28.713l11.773,1.172l41.524,34.869l-1.123,11.294l-44.505-4.429
			l-0.867,8.709l-11.821-1.176l0.867-8.709l-14.117-1.406L881.821,1899.22z M907.758,1901.802l23.976,2.387l-22.369-18.514
			L907.758,1901.802z"/>
	</g>
	<g>
		<path fill="#FFFFFF" d="M876.015,1957.561l14.117,1.406l2.859-28.712l11.773,1.17l41.523,34.868l-1.124,11.294l-44.505-4.429
			l-0.867,8.709l-11.82-1.175l0.867-8.709l-14.117-1.406L876.015,1957.561z M901.952,1960.143l23.975,2.386l-22.369-18.514
			L901.952,1960.143z"/>
	</g>
	<g>
		<path fill="#FFFFFF" d="M788.684,1879.262l13.831,3.158l6.419-28.132l11.534,2.632l36.846,39.779l-2.524,11.065l-43.604-9.949
			l-1.947,8.533l-11.582-2.643l1.947-8.533l-13.831-3.156L788.684,1879.262z M814.096,1885.061l23.49,5.36l-19.885-21.161
			L814.096,1885.061z"/>
	</g>
	<g>
		<path fill="#FFFFFF" d="M799.883,1914.281l-1.364,13.107c-3.343-0.336-6.077,0.191-8.204,1.58c-2.125,1.39-3.477,3.35-4.055,5.882
			c-0.62,2.721-0.113,5.245,1.527,7.575c1.64,2.329,4.209,3.894,7.71,4.694c3.314,0.756,6.143,0.464,8.486-0.874
			c2.344-1.34,3.808-3.291,4.393-5.854c0.386-1.688,0.518-3.779,0.397-6.273l10.404,3.905c-0.907,3.542-0.754,6.438,0.458,8.687
			c1.213,2.251,3.179,3.686,5.899,4.305c2.313,0.527,4.314,0.261,6.003-0.8c1.689-1.063,2.795-2.734,3.314-5.015
			c0.514-2.251,0.171-4.352-1.029-6.302c-1.201-1.95-3.26-3.441-6.183-4.469l4.833-11.672c3.964,1.792,6.995,3.824,9.092,6.094
			c2.097,2.27,3.508,5.092,4.235,8.464c0.726,3.373,0.659,6.948-0.206,10.732c-1.475,6.47-4.721,11.188-9.74,14.154
			c-4.11,2.449-8.292,3.188-12.542,2.218c-6.033-1.377-10.094-5.774-12.183-13.188c-1.743,3.747-4.353,6.463-7.828,8.153
			c-3.478,1.689-7.295,2.06-11.451,1.112c-6.034-1.377-10.673-4.754-13.917-10.131c-3.245-5.377-4.12-11.347-2.622-17.911
			c1.42-6.221,4.385-10.971,8.898-14.248C788.728,1914.925,793.949,1913.619,799.883,1914.281z"/>
	</g>
	<g>
		<path fill="#FFFFFF" d="M697.882,1852.46l13.408,4.63l9.419-27.271l11.182,3.861l32.333,43.524l-3.706,10.728l-42.272-14.6
			l-2.857,8.273l-11.227-3.877l2.857-8.272l-13.408-4.631L697.882,1852.46z M722.517,1860.968l22.774,7.865l-17.484-23.184
			L722.517,1860.968z"/>
	</g>
	<g>
		<path fill="#FFFFFF" d="M684.359,1930.062l-11.862-4.096l15.463-44.772c4.317,2.034,8.065,4.957,11.244,8.766
			s6.85,10.437,11.017,19.881c3.373,7.609,5.792,12.395,7.251,14.359c2.029,2.666,4.331,4.446,6.907,5.336
			c2.848,0.984,5.302,0.974,7.36-0.028c2.06-1.002,3.555-2.852,4.486-5.546c0.92-2.668,0.849-5.066-0.212-7.197
			c-1.062-2.13-3.414-3.959-7.058-5.489l5.668-12.288c6.768,3.186,10.992,7.307,12.672,12.364c1.679,5.057,1.483,10.586-0.59,16.586
			c-2.27,6.575-5.828,11.129-10.671,13.663c-4.844,2.531-9.901,2.888-15.174,1.067c-3-1.036-5.67-2.56-8.01-4.572
			c-2.342-2.014-4.593-4.698-6.755-8.057c-1.437-2.226-3.307-5.993-5.612-11.3c-2.307-5.308-3.877-8.709-4.718-10.203
			c-0.84-1.494-1.722-2.774-2.643-3.836L684.359,1930.062z"/>
	</g>
	<g>
		<path fill="#FFFFFF" d="M611.071,1814.416l12.744,6.228l12.668-25.922l10.629,5.194l26.796,47.135l-4.983,10.197l-40.182-19.635
			l-3.841,7.863l-10.672-5.216l3.843-7.862l-12.745-6.229L611.071,1814.416z M634.488,1825.859l21.646,10.578l-14.531-25.138
			L634.488,1825.859z"/>
	</g>
	<g>
		<path fill="#FFFFFF" d="M581.783,1874.347l5.932-12.141l45.754,22.359c-1.98-6.463-2.492-13.188-1.538-20.181l11.017,5.384
			c-0.512,3.675-0.228,8.077,0.85,13.208c1.08,5.13,3.211,9.329,6.395,12.598l-4.813,9.851L581.783,1874.347z"/>
	</g>
	<g>
		<path fill="#FFFFFF" d="M525.408,1773.972l12.148,7.329l14.904-24.707l10.13,6.111l22.54,49.315l-5.862,9.718l-38.295-23.102
			l-4.521,7.495l-10.17-6.135l4.521-7.495l-12.148-7.326L525.408,1773.972z M547.727,1787.436l20.63,12.445l-12.26-26.323
			L547.727,1787.436z"/>
	</g>
	<g>
		<path fill="#FFFFFF" d="M557.63,1857.608c-3.527,5.848-8.372,9.159-14.531,9.937c-7.309,0.946-16.688-2.035-28.136-8.941
			c-11.419-6.889-18.435-13.817-21.047-20.783c-2.148-5.751-1.458-11.55,2.069-17.397c3.545-5.874,8.658-9.248,15.343-10.121
			c6.684-0.872,15.818,2.185,27.404,9.173c11.366,6.857,18.352,13.768,20.966,20.735
			C561.847,1845.961,561.156,1851.76,557.63,1857.608z M548.036,1851.82c0.844-1.399,1.151-2.918,0.922-4.554
			c-0.23-1.637-1.316-3.453-3.258-5.448c-2.512-2.602-7.309-6.037-14.391-10.31c-7.083-4.273-12.163-6.852-15.244-7.735
			c-3.08-0.885-5.386-1.05-6.918-0.495c-1.532,0.555-2.722,1.531-3.565,2.932c-0.845,1.4-1.153,2.918-0.924,4.555
			c0.229,1.637,1.316,3.451,3.257,5.446c2.485,2.585,7.268,6.014,14.351,10.286c7.083,4.272,12.163,6.85,15.245,7.735
			c3.081,0.885,5.395,1.053,6.939,0.506C545.993,1854.191,547.192,1853.22,548.036,1851.82z"/>
	</g>
	<g>
		<path fill="#FFFFFF" d="M478.007,1710.655l-6.625,11.39c-2.912-1.68-5.621-2.322-8.128-1.928
			c-2.509,0.394-4.546,1.626-6.113,3.699c-1.682,2.224-2.256,4.735-1.718,7.533c0.538,2.798,2.238,5.28,5.102,7.446
			c2.71,2.049,5.408,2.945,8.098,2.686c2.688-0.257,4.823-1.436,6.41-3.533c1.045-1.382,2.023-3.234,2.937-5.557l7.883,7.833
			c-2.281,2.858-3.331,5.56-3.148,8.111c0.182,2.548,1.386,4.665,3.61,6.347c1.892,1.43,3.826,2.01,5.802,1.736
			c1.976-0.275,3.671-1.346,5.081-3.211c1.392-1.841,1.943-3.897,1.651-6.168c-0.292-2.271-1.559-4.476-3.801-6.614l9.201-8.657
			c2.878,3.262,4.807,6.359,5.785,9.291c0.979,2.93,1.107,6.082,0.384,9.455c-0.722,3.373-2.253,6.607-4.593,9.7
			c-4.004,5.293-8.901,8.261-14.693,8.905c-4.754,0.544-8.869-0.498-12.347-3.127c-4.935-3.732-6.832-9.41-5.692-17.027
			c-3.127,2.699-6.623,4.104-10.487,4.217c-3.863,0.113-7.496-1.118-10.898-3.688c-4.935-3.733-7.778-8.718-8.527-14.953
			c-0.751-6.235,0.905-12.037,4.966-17.406c3.848-5.089,8.503-8.201,13.965-9.336C467.572,1706.66,472.87,1707.614,478.007,1710.655
			z"/>
	</g>
	<g>
		<path fill="#FFFFFF" d="M440.259,1756.577l-6.742,11.302c-2.316-1.349-4.391-1.874-6.227-1.573
			c-1.834,0.301-3.419,1.332-4.753,3.097c-1.683,2.225-2.092,4.89-1.225,7.998c0.865,3.105,4.358,7.313,10.471,12.624
			c-1.096-5.09-0.107-9.667,2.97-13.734c3.346-4.423,7.938-6.951,13.779-7.576c5.843-0.628,11.496,1.128,16.968,5.268
			c5.7,4.312,9.017,9.482,9.946,15.51c0.927,6.027-0.591,11.661-4.556,16.904c-4.312,5.702-10.056,8.713-17.233,9.034
			c-7.178,0.32-15.815-3.339-25.914-10.979c-10.28-7.774-16.255-15.289-17.924-22.539c-1.669-7.255-0.193-13.936,4.429-20.046
			c3.327-4.398,7.184-7.067,11.574-8.008C430.212,1752.919,435.023,1753.824,440.259,1756.577z M445.357,1798.783
			c3.477,2.63,6.779,3.871,9.906,3.723c3.127-0.147,5.483-1.27,7.067-3.367c1.509-1.995,1.975-4.244,1.399-6.751
			c-0.576-2.506-2.656-5.114-6.236-7.821c-3.631-2.746-6.839-4.047-9.621-3.9c-2.784,0.145-4.987,1.292-6.612,3.44
			c-1.566,2.071-2.069,4.436-1.505,7.093C440.319,1793.858,442.186,1796.385,445.357,1798.783z"/>
	</g>
	<g>
		<path fill="#FFFFFF" d="M407.012,1650.857l-7.51,10.826c-2.768-1.906-5.418-2.761-7.949-2.57c-2.532,0.192-4.661,1.26-6.388,3.2
			c-1.855,2.083-2.626,4.539-2.314,7.373c0.314,2.831,1.81,5.44,4.493,7.828c2.538,2.26,5.158,3.367,7.858,3.324
			c2.701-0.043,4.924-1.047,6.672-3.011c1.152-1.293,2.275-3.063,3.37-5.307l7.237,8.436c-2.502,2.668-3.764,5.278-3.787,7.834
			c-0.02,2.555,1.01,4.76,3.094,6.614c1.773,1.577,3.652,2.306,5.646,2.192c1.992-0.116,3.766-1.048,5.321-2.795
			c1.534-1.727,2.248-3.732,2.137-6.019c-0.111-2.287-1.198-4.585-3.263-6.896l9.862-7.897c2.609,3.482,4.285,6.721,5.027,9.72
			c0.742,3,0.619,6.153-0.37,9.458c-0.989,3.306-2.772,6.405-5.352,9.302c-4.411,4.957-9.529,7.526-15.357,7.707
			c-4.78,0.164-8.802-1.204-12.058-4.102c-4.622-4.114-6.061-9.923-4.317-17.427c-3.333,2.442-6.931,3.563-10.79,3.369
			c-3.859-0.196-7.383-1.712-10.569-4.545c-4.622-4.114-7.06-9.309-7.31-15.585c-0.252-6.275,1.86-11.928,6.337-16.957
			c4.241-4.767,9.129-7.498,14.664-8.193C396.927,1646.044,402.134,1647.417,407.012,1650.857z"/>
	</g>
	<g>
		<path fill="#FFFFFF" d="M374.449,1716.52c3.425-1.629,6.629-2.178,9.612-1.648c2.983,0.53,5.624,1.819,7.924,3.864
			c3.927,3.496,5.952,7.755,6.075,12.777c0.121,5.022-2.067,10.062-6.564,15.115c-4.454,5.004-9.194,7.75-14.218,8.236
			c-5.025,0.485-9.5-1.02-13.427-4.516c-2.442-2.174-4.052-4.743-4.826-7.706c-0.775-2.965-0.641-6.044,0.399-9.238
			c-3.774,1.878-7.464,2.575-11.066,2.092c-3.605-0.483-6.88-2.037-9.825-4.657c-4.863-4.328-7.434-9.396-7.715-15.203
			c-0.282-5.809,1.87-11.287,6.452-16.435c4.264-4.79,9.07-7.66,14.419-8.606c6.315-1.118,12.06,0.626,17.233,5.232
			c2.851,2.536,4.839,5.57,5.963,9.105C376.007,1708.465,375.863,1712.328,374.449,1716.52z M361.033,1706.639
			c-2.778-2.474-5.579-3.689-8.403-3.65c-2.825,0.037-5.186,1.125-7.083,3.255c-1.854,2.084-2.64,4.475-2.359,7.171
			c0.282,2.697,1.835,5.304,4.661,7.818c2.467,2.196,5.067,3.264,7.8,3.208c2.733-0.057,5.049-1.151,6.946-3.283
			c2.195-2.468,2.98-5.063,2.356-7.784C364.326,1710.654,363.02,1708.409,361.033,1706.639z M382.761,1727.653
			c-2.01-1.79-4.086-2.618-6.226-2.482c-2.137,0.135-4.049,1.149-5.732,3.042c-1.705,1.915-2.501,3.954-2.386,6.116
			c0.114,2.162,1.178,4.137,3.19,5.928c1.892,1.684,3.912,2.463,6.063,2.338c2.15-0.126,4.057-1.121,5.718-2.99
			c1.726-1.941,2.527-3.996,2.4-6.167C385.661,1731.265,384.651,1729.336,382.761,1727.653z"/>
	</g>
	<g>
		<path fill="#FFFFFF" d="M341.721,1586.266l-8.851,9.762c-2.498-2.249-5.015-3.44-7.55-3.578c-2.535-0.138-4.786,0.644-6.75,2.344
			c-2.11,1.826-3.191,4.162-3.249,7.012c-0.057,2.847,1.089,5.63,3.44,8.345c2.225,2.57,4.677,4.007,7.361,4.314
			c2.684,0.306,5.018-0.401,7.006-2.121c1.31-1.133,2.652-2.74,4.03-4.823l6.081,9.302c-2.826,2.318-4.415,4.745-4.768,7.276
			c-0.353,2.532,0.384,4.852,2.209,6.961c1.553,1.793,3.325,2.762,5.314,2.906c1.991,0.142,3.871-0.552,5.641-2.083
			c1.745-1.511,2.711-3.408,2.897-5.69s-0.593-4.702-2.34-7.259l10.801-6.553c2.136,3.79,3.379,7.219,3.727,10.291
			c0.348,3.07-0.183,6.18-1.591,9.329c-1.409,3.149-3.58,5.992-6.513,8.531c-5.016,4.344-10.425,6.229-16.224,5.653
			c-4.764-0.457-8.572-2.333-11.426-5.629c-4.05-4.679-4.725-10.626-2.023-17.84c-3.62,1.988-7.333,2.637-11.136,1.944
			c-3.803-0.695-7.1-2.653-9.89-5.877c-4.051-4.678-5.794-10.144-5.23-16.399c0.564-6.255,3.391-11.587,8.481-15.995
			c4.824-4.176,10.024-6.251,15.602-6.225C332.346,1580.189,337.328,1582.222,341.721,1586.266z"/>
	</g>
	<g>
		<path fill="#FFFFFF" d="M322.09,1653.898l8.216,9.489l-34.941,30.25l-6.421-7.416c0.429-5.333-0.163-11.944-1.779-19.834
			c-1.614-7.889-4.226-15.499-7.835-22.827c-3.611-7.329-7.464-13.333-11.558-18.014l9.853-8.532
			c6.21,7.516,11.194,16.348,14.953,26.493s5.852,20.315,6.279,30.506L322.09,1653.898z"/>
	</g>
	<g>
		<path fill="#FFFFFF" d="M282.962,1514.667l-9.67,8.952c-2.291-2.458-4.696-3.865-7.208-4.223
			c-2.515-0.358-4.823,0.224-6.928,1.745c-2.261,1.634-3.543,3.869-3.85,6.7c-0.305,2.833,0.594,5.703,2.699,8.613
			c1.99,2.753,4.309,4.399,6.955,4.939c2.646,0.539,5.033,0.039,7.163-1.501c1.403-1.015,2.882-2.498,4.436-4.452l5.246,9.797
			c-3.017,2.065-4.812,4.342-5.385,6.832c-0.572,2.492-0.041,4.866,1.594,7.126c1.389,1.923,3.069,3.041,5.038,3.358
			c1.969,0.315,3.904-0.211,5.8-1.582c1.87-1.353,2.998-3.158,3.385-5.415c0.386-2.256-0.181-4.736-1.698-7.435l11.333-5.585
			c1.797,3.962,2.734,7.488,2.813,10.577c0.076,3.089-0.723,6.139-2.401,9.153c-1.678,3.014-4.089,5.658-7.231,7.931
			c-5.379,3.889-10.93,5.294-16.657,4.213c-4.705-0.872-8.334-3.074-10.89-6.605c-3.626-5.013-3.778-10.997-0.456-17.948
			c-3.782,1.666-7.535,1.987-11.262,0.963c-3.729-1.024-6.842-3.263-9.34-6.718c-3.626-5.013-4.884-10.612-3.776-16.793
			c1.107-6.182,4.39-11.245,9.844-15.191c5.17-3.74,10.531-5.351,16.086-4.838C274.153,1507.794,278.941,1510.256,282.962,1514.667z
			"/>
	</g>
	<g>
		<path fill="#FFFFFF" d="M218.205,1604.109l9.754-8.833c1.839,1.995,3.679,3.116,5.521,3.367c1.843,0.251,3.635-0.253,5.375-1.512
			c2.312-1.673,3.515-4.125,3.61-7.359s-2.027-8.289-6.364-15.161c-0.398,5.193-2.624,9.256-6.676,12.188
			c-4.572,3.306-9.747,4.397-15.524,3.273c-5.777-1.124-10.658-4.437-14.641-9.946c-4.227-5.845-5.903-11.774-5.029-17.786
			c0.874-6.014,3.999-10.963,9.377-14.852c5.767-4.171,12.129-5.359,19.084-3.564c6.955,1.795,14.125,7.797,21.508,18.006
			c7.571,10.469,11.093,19.415,10.567,26.837c-0.526,7.422-3.882,13.371-10.065,17.842c-4.339,3.137-8.807,4.52-13.408,4.147
			C226.691,1610.385,222.329,1608.168,218.205,1604.109z M225.753,1562.272c-2.574-3.559-5.378-5.716-8.415-6.467
			c-3.035-0.75-5.606-0.367-7.71,1.155c-2.026,1.465-3.142,3.48-3.346,6.04c-0.204,2.56,0.998,5.648,3.611,9.26
			c2.687,3.715,5.381,5.909,8.085,6.586c2.704,0.675,5.146,0.224,7.329-1.353c2.104-1.523,3.288-3.636,3.55-6.336
			C229.117,1568.454,228.082,1565.493,225.753,1562.272z"/>
	</g>
	<g>
		<path fill="#FFFFFF" d="M233.842,1436.966l-10.464,8.005c-2.051-2.661-4.313-4.289-6.781-4.879
			c-2.469-0.593-4.823-0.229-7.061,1.088c-2.405,1.415-3.89,3.518-4.46,6.311c-0.569,2.79,0.056,5.732,1.879,8.827
			c1.725,2.927,3.879,4.784,6.462,5.57c2.582,0.784,5.008,0.51,7.272-0.824c1.492-0.879,3.102-2.219,4.834-4.019l4.304,10.247
			c-3.2,1.772-5.199,3.87-6.003,6.297c-0.804,2.426-0.498,4.842,0.917,7.245c1.203,2.044,2.773,3.315,4.703,3.816
			c1.933,0.498,3.906,0.154,5.922-1.033c1.99-1.171,3.281-2.862,3.877-5.072c0.595-2.212,0.264-4.733-0.993-7.562l11.804-4.499
			c1.416,4.113,2.022,7.711,1.809,10.795c-0.212,3.081-1.296,6.046-3.249,8.89c-1.953,2.842-4.599,5.249-7.942,7.218
			c-5.719,3.367-11.378,4.245-16.979,2.632c-4.603-1.308-8.011-3.839-10.222-7.597c-3.14-5.331-2.732-11.303,1.227-17.912
			c-3.92,1.305-7.686,1.272-11.304-0.096c-3.615-1.367-6.504-3.889-8.668-7.562c-3.141-5.333-3.87-11.023-2.187-17.075
			c1.682-6.052,5.424-10.785,11.226-14.202c5.497-3.239,10.987-4.342,16.468-3.309
			C225.717,1429.297,230.252,1432.197,233.842,1436.966z"/>
	</g>
	<g>
		<path fill="#FFFFFF" d="M182.453,1466.563l-10.894,8.036c-1.878-2.428-4.081-3.93-6.615-4.504c-2.532-0.574-4.862-0.234-6.99,1.02
			c-2.431,1.431-3.907,3.63-4.43,6.598c-0.521,2.967,0.388,6.44,2.733,10.42c2.195,3.728,4.678,6.034,7.448,6.913
			c2.771,0.88,5.495,0.532,8.174-1.046c3.344-1.969,5.469-5.211,6.38-9.73l10.253-4.197l12.655,35.129l-30.787,18.134l-6.418-10.897
			l21.961-12.935l-4.254-11.391c-1.832,2.828-4.1,5.039-6.809,6.633c-5.166,3.043-10.65,3.743-16.455,2.101
			c-5.804-1.641-10.472-5.46-14.003-11.454c-2.945-5-4.124-10.315-3.532-15.946c0.796-7.687,4.7-13.595,11.716-17.727
			c5.608-3.303,11.066-4.491,16.375-3.562C174.272,1459.085,178.768,1461.887,182.453,1466.563z"/>
	</g>
	<g>
		<path fill="#FFFFFF" d="M192.303,1355.227l-11.42,6.573c-1.686-2.908-3.715-4.815-6.087-5.723c-2.37-0.91-4.751-0.856-7.141,0.159
			c-2.568,1.09-4.316,2.981-5.245,5.674c-0.929,2.692-0.692,5.691,0.711,8.997c1.326,3.128,3.22,5.25,5.679,6.367
			c2.459,1.116,4.899,1.16,7.318,0.133c1.594-0.676,3.366-1.795,5.315-3.354l2.931,10.719c-3.401,1.341-5.66,3.159-6.772,5.461
			c-1.115,2.3-1.125,4.734-0.036,7.303c0.926,2.183,2.315,3.648,4.166,4.397c1.851,0.746,3.852,0.664,6.006-0.251
			c2.126-0.901,3.627-2.411,4.505-4.525c0.879-2.115,0.88-4.657,0.002-7.628l12.292-2.918c0.868,4.262,0.997,7.91,0.383,10.937
			c-0.612,3.029-2.072,5.825-4.378,8.389c-2.307,2.565-5.246,4.605-8.817,6.12c-6.107,2.592-11.834,2.724-17.177,0.395
			c-4.392-1.897-7.441-4.852-9.145-8.866c-2.417-5.697-1.232-11.561,3.553-17.599c-4.057,0.781-7.787,0.258-11.193-1.57
			c-3.405-1.828-5.942-4.705-7.607-8.63c-2.417-5.696-2.398-11.433,0.06-17.213c2.458-5.779,6.785-9.985,12.982-12.615
			c5.873-2.492,11.459-2.871,16.76-1.133C185.247,1346.56,189.366,1350.029,192.303,1355.227z"/>
	</g>
	<g>
		<path fill="#FFFFFF" d="M106.195,1371.454l5.543,13.059l26.56-11.275l4.622,10.888l-10.66,53.163l-10.447,4.433l-17.474-41.167
			l-8.056,3.419l-4.64-10.934l8.057-3.419l-5.543-13.059L106.195,1371.454z M116.38,1395.447l9.412,22.177l5.503-28.508
			L116.38,1395.447z"/>
	</g>
	<g>
		<path fill="#FFFFFF" d="M156.801,1267.294l-11.618,5.503c-1.414-2.958-3.239-4.971-5.475-6.039
			c-2.234-1.068-4.554-1.203-6.958-0.401c-2.581,0.859-4.43,2.564-5.542,5.111c-1.113,2.547-1.117,5.482-0.009,8.806
			c1.048,3.145,2.724,5.357,5.03,6.635c2.304,1.274,4.673,1.509,7.105,0.698c1.603-0.534,3.413-1.484,5.432-2.848l2.016,10.652
			c-3.413,1.038-5.749,2.633-7.011,4.785c-1.262,2.151-1.463,4.518-0.601,7.1c0.732,2.194,1.968,3.728,3.708,4.6
			c1.741,0.871,3.695,0.945,5.86,0.223c2.137-0.711,3.715-2.062,4.733-4.049c1.019-1.988,1.218-4.462,0.594-7.42l12.182-1.881
			c0.514,4.212,0.355,7.771-0.476,10.667c-0.832,2.897-2.47,5.503-4.914,7.819c-2.444,2.316-5.461,4.07-9.052,5.266
			c-6.141,2.046-11.721,1.728-16.735-0.952c-4.123-2.186-6.86-5.299-8.205-9.335c-1.908-5.727-0.299-11.341,4.824-16.839
			c-4.006,0.446-7.592-0.355-10.763-2.397c-3.17-2.044-5.413-5.039-6.728-8.985c-1.908-5.727-1.441-11.307,1.398-16.736
			c2.84-5.429,7.376-9.183,13.607-11.258c5.905-1.968,11.368-1.901,16.388,0.203
			C150.614,1258.318,154.348,1262.011,156.801,1267.294z"/>
	</g>
	<g>
		<path fill="#FFFFFF" d="M102.534,1285.374l-11.619,5.504c-1.413-2.959-3.239-4.972-5.475-6.04
			c-2.234-1.068-4.555-1.204-6.958-0.401c-2.583,0.859-4.43,2.563-5.542,5.111c-1.114,2.546-1.117,5.482-0.009,8.806
			c1.048,3.145,2.725,5.356,5.029,6.634c2.305,1.275,4.674,1.51,7.107,0.699c1.603-0.534,3.412-1.484,5.431-2.848l2.016,10.653
			c-3.413,1.038-5.749,2.633-7.011,4.785c-1.262,2.151-1.463,4.518-0.601,7.1c0.732,2.194,1.968,3.728,3.708,4.6
			c1.741,0.871,3.694,0.945,5.86,0.223c2.137-0.712,3.715-2.063,4.733-4.049c1.017-1.988,1.218-4.462,0.594-7.419l12.182-1.882
			c0.512,4.214,0.354,7.77-0.477,10.669c-0.831,2.898-2.469,5.503-4.913,7.817c-2.444,2.315-5.461,4.07-9.052,5.266
			c-6.143,2.047-11.722,1.729-16.736-0.953c-4.124-2.187-6.859-5.297-8.203-9.334c-1.908-5.727-0.299-11.342,4.824-16.839
			c-4.005,0.445-7.594-0.355-10.764-2.398c-3.169-2.044-5.411-5.04-6.727-8.984c-1.908-5.728-1.442-11.308,1.398-16.737
			s7.375-9.182,13.607-11.258c5.905-1.968,11.367-1.901,16.388,0.203C96.345,1276.398,100.081,1280.091,102.534,1285.374z"/>
	</g>
	<g>
		<path fill="#FFFFFF" d="M136.543,1177.359l-12.396,4.464c-1.15-3.156-2.813-5.391-4.987-6.702
			c-2.175-1.312-4.528-1.678-7.06-1.098c-2.72,0.621-4.772,2.176-6.16,4.663c-1.387,2.488-1.68,5.483-0.88,8.983
			c0.758,3.312,2.248,5.734,4.473,7.264c2.225,1.531,4.619,2.002,7.182,1.416c1.687-0.385,3.629-1.174,5.822-2.367l1.002,11.067
			c-3.584,0.723-6.126,2.117-7.625,4.188c-1.501,2.069-1.94,4.463-1.317,7.183c0.529,2.311,1.638,3.999,3.327,5.059
			c1.69,1.059,3.675,1.329,5.957,0.806c2.251-0.515,3.993-1.736,5.229-3.663c1.236-1.927,1.684-4.43,1.341-7.509l12.614-0.715
			c0.107,4.35-0.406,7.962-1.54,10.838c-1.135,2.873-3.063,5.37-5.786,7.49c-2.721,2.119-5.972,3.611-9.755,4.476
			c-6.47,1.481-12.129,0.604-16.981-2.627c-3.991-2.639-6.473-6.085-7.445-10.335c-1.381-6.032,0.817-11.6,6.588-16.702
			c-4.132,0.057-7.713-1.114-10.744-3.51c-3.031-2.399-5.023-5.676-5.973-9.833c-1.381-6.032-0.353-11.678,3.082-16.936
			c3.433-5.259,8.432-8.638,14.996-10.14c6.22-1.422,11.785-0.813,16.698,1.829C131.119,1167.592,134.564,1171.728,136.543,1177.359
			z"/>
	</g>
	<g>
		<path fill="#FFFFFF" d="M33.06,1194.721l-2.8-12.236l46.177-10.564c0.557,4.739,0.061,9.466-1.493,14.179
			c-1.552,4.714-5.233,11.336-11.044,19.869c-4.672,6.891-7.455,11.475-8.348,13.75c-1.191,3.134-1.483,6.027-0.875,8.685
			c0.672,2.937,1.978,5.016,3.917,6.233c1.94,1.215,4.3,1.508,7.081,0.871c2.751-0.629,4.749-1.957,5.995-3.986
			c1.246-2.028,1.555-4.993,0.926-8.894l13.427-1.69c0.878,7.428-0.385,13.193-3.788,17.294c-3.403,4.1-8.199,6.858-14.387,8.274
			c-6.781,1.552-12.528,0.942-17.241-1.828c-4.712-2.769-7.691-6.874-8.934-12.311c-0.707-3.095-0.827-6.167-0.358-9.218
			c0.471-3.05,1.557-6.382,3.263-9.995c1.129-2.397,3.337-5.978,6.621-10.741c3.284-4.765,5.338-7.9,6.161-9.403
			c0.824-1.504,1.443-2.929,1.859-4.273L33.06,1194.721z"/>
	</g>
	<g>
		<path fill="#FFFFFF" d="M122.744,1084.706l-12.839,2.967c-0.767-3.271-2.155-5.687-4.159-7.247
			c-2.004-1.558-4.297-2.201-6.88-1.926c-2.773,0.297-4.995,1.597-6.668,3.905c-1.671,2.306-2.318,5.245-1.936,8.816
			c0.361,3.379,1.554,5.959,3.583,7.742c2.029,1.783,4.35,2.534,6.964,2.257c1.722-0.185,3.742-0.738,6.062-1.664l-0.313,11.11
			c-3.644,0.291-6.333,1.378-8.068,3.254c-1.734,1.878-2.453,4.204-2.156,6.979c0.252,2.357,1.154,4.165,2.707,5.417
			c1.552,1.253,3.493,1.757,5.819,1.508c2.295-0.245,4.171-1.251,5.627-3.019c1.455-1.768,2.195-4.2,2.219-7.298l12.609,0.78
			c-0.408,4.332-1.345,7.858-2.812,10.579c-1.466,2.719-3.677,4.97-6.63,6.753c-2.953,1.781-6.359,2.879-10.216,3.291
			c-6.599,0.705-12.116-0.833-16.551-4.615c-3.65-3.094-5.708-6.806-6.171-11.143c-0.657-6.152,2.184-11.422,8.518-15.806
			c-4.109-0.431-7.527-2.019-10.254-4.756c-2.727-2.739-4.316-6.23-4.769-10.469c-0.657-6.152,1.031-11.637,5.061-16.453
			c4.032-4.817,9.397-7.581,16.09-8.296c6.345-0.677,11.799,0.587,16.366,3.79C118.512,1074.363,121.444,1078.877,122.744,1084.706z
			"/>
	</g>
	<g>
		<path fill="#FFFFFF" d="M27.6,1076.05l13.437-1.434l5.407,50.641c4.419-5.113,9.842-9.128,16.269-12.039l1.301,12.193
			c-3.383,1.522-6.962,4.106-10.732,7.748c-3.77,3.642-6.192,7.681-7.267,12.119l-10.903,1.165L27.6,1076.05z"/>
	</g>
	<g>
		<path fill="#FFFFFF" d="M117.019,996.188l-13.104,1.372c-0.362-3.341-1.442-5.907-3.24-7.7c-1.798-1.793-3.996-2.712-6.592-2.754
			c-2.789-0.047-5.154,0.974-7.095,3.057c-1.941,2.085-2.943,4.922-3.003,8.512c-0.056,3.397,0.814,6.104,2.608,8.123
			c1.795,2.017,4.006,3.047,6.635,3.09c1.731,0.028,3.805-0.274,6.22-0.907l-1.672,10.986c-3.652-0.155-6.454,0.591-8.405,2.244
			c-1.952,1.65-2.949,3.872-2.995,6.659c-0.039,2.372,0.635,4.274,2.022,5.708c1.388,1.434,3.251,2.17,5.59,2.209
			c2.308,0.038,4.291-0.732,5.953-2.308c1.661-1.577,2.693-3.9,3.096-6.971l12.418,2.322c-0.935,4.248-2.297,7.634-4.087,10.154
			c-1.789,2.52-4.258,4.483-7.408,5.89c-3.15,1.406-6.663,2.078-10.541,2.015c-6.635-0.109-11.922-2.312-15.859-6.61
			c-3.244-3.516-4.831-7.454-4.761-11.813c0.102-6.188,3.564-11.068,10.389-14.642c-4.024-0.931-7.221-2.925-9.592-5.977
			c-2.371-3.054-3.522-6.712-3.45-10.975c0.102-6.186,2.448-11.423,7.04-15.707c4.592-4.285,10.254-6.373,16.985-6.262
			c6.379,0.105,11.637,2.027,15.777,5.766C114.089,985.408,116.443,990.246,117.019,996.188z"/>
	</g>
	<g>
		<path fill="#FFFFFF" d="M34.226,1046.914c-6.828-0.112-12.125-2.636-15.891-7.571c-4.49-5.844-6.624-15.45-6.404-28.818
			c0.219-13.335,2.684-22.882,7.396-28.639c3.894-4.745,9.254-7.062,16.082-6.949c6.86,0.113,12.345,2.839,16.459,8.182
			c4.113,5.341,6.058,14.775,5.835,28.303c-0.219,13.271-2.682,22.785-7.395,28.542C46.414,1044.71,41.053,1047.027,34.226,1046.914
			z M34.409,1035.71c1.635,0.026,3.103-0.472,4.401-1.491c1.3-1.021,2.324-2.871,3.073-5.552c0.988-3.479,1.549-9.354,1.684-17.623
			c0.136-8.271-0.187-13.959-0.97-17.065c-0.782-3.107-1.798-5.184-3.048-6.23c-1.249-1.047-2.691-1.584-4.326-1.61
			c-1.635-0.026-3.102,0.47-4.401,1.491c-1.299,1.021-2.323,2.872-3.073,5.554c-0.986,3.446-1.547,9.304-1.683,17.575
			c-0.136,8.271,0.188,13.958,0.97,17.065c0.783,3.106,1.799,5.191,3.047,6.255C31.333,1035.138,32.774,1035.684,34.409,1035.71z"/>
	</g>
	<g>
		<path fill="#FFFFFF" d="M76.826,891.982l1.26-12.487l47.128,4.756c-0.987,4.669-2.969,8.987-5.948,12.958
			c-2.978,3.968-8.583,9.066-16.816,15.291c-6.63,5.035-10.732,8.488-12.307,10.358c-2.129,2.588-3.334,5.238-3.607,7.95
			c-0.302,2.998,0.27,5.383,1.719,7.156c1.448,1.773,3.592,2.804,6.431,3.091c2.807,0.283,5.125-0.336,6.954-1.859
			c1.83-1.525,3.07-4.234,3.722-8.131l13.262,2.692c-1.544,7.318-4.585,12.378-9.12,15.174c-4.536,2.796-9.961,3.876-16.276,3.239
			c-6.921-0.699-12.172-3.114-15.75-7.244c-3.577-4.132-5.087-8.971-4.528-14.522c0.319-3.158,1.19-6.108,2.608-8.849
			c1.422-2.74,3.517-5.549,6.289-8.427c1.836-1.909,5.072-4.595,9.706-8.059c4.635-3.463,7.584-5.776,8.843-6.938
			c1.262-1.162,2.305-2.313,3.127-3.453L76.826,891.982z"/>
	</g>
	<g>
		<path fill="#FFFFFF" d="M63.24,894.379l-13.158,0.122c-0.05-2.681-0.683-4.727-1.893-6.137c-1.211-1.411-2.918-2.227-5.118-2.451
			c-2.775-0.279-5.263,0.758-7.468,3.113c-2.203,2.356-3.981,7.526-5.336,15.508c3.777-3.582,8.202-5.117,13.273-4.604
			c5.519,0.556,10.065,3.167,13.637,7.827c3.572,4.662,5.016,10.406,4.326,17.232c-0.718,7.113-3.408,12.634-8.076,16.56
			c-4.666,3.928-10.268,5.561-16.807,4.901c-7.113-0.717-12.672-4.059-16.678-10.022c-4.005-5.963-5.373-15.244-4.101-27.843
			c1.294-12.821,4.605-21.832,9.93-27.03c5.326-5.199,11.801-7.412,19.424-6.643c5.487,0.554,9.773,2.461,12.859,5.721
			C61.139,883.896,62.869,888.476,63.24,894.379z M29.845,920.683c-0.437,4.338,0.219,7.805,1.972,10.396
			c1.752,2.594,3.936,4.022,6.551,4.287c2.487,0.25,4.651-0.522,6.493-2.317c1.842-1.795,2.987-4.927,3.437-9.393
			c0.457-4.529-0.1-7.944-1.672-10.245c-1.571-2.303-3.698-3.587-6.377-3.858c-2.584-0.262-4.864,0.539-6.84,2.403
			C31.432,913.819,30.244,916.729,29.845,920.683z"/>
	</g>
	<g>
		<path fill="#FFFFFF" d="M93.37,795.628l2.954-12.198l46.037,11.144c-1.615,4.49-4.168,8.497-7.661,12.024
			c-3.492,3.525-9.74,7.809-18.746,12.852c-7.254,4.082-11.789,6.943-13.605,8.581c-2.463,2.274-4.015,4.735-4.657,7.383
			c-0.709,2.928-0.466,5.371,0.725,7.325c1.193,1.954,3.176,3.267,5.948,3.939c2.742,0.664,5.123,0.366,7.143-0.893
			c2.02-1.259,3.619-3.774,4.796-7.547l12.769,4.477c-2.528,7.039-6.231,11.635-11.105,13.788
			c-4.875,2.151-10.397,2.48-16.567,0.986c-6.76-1.636-11.632-4.746-14.613-9.326c-2.98-4.581-3.815-9.582-2.503-15.004
			c0.747-3.085,2.011-5.889,3.792-8.408c1.783-2.521,4.242-5.018,7.381-7.491c2.08-1.642,5.652-3.861,10.715-6.659
			c5.065-2.798,8.301-4.687,9.708-5.666c1.409-0.979,2.599-1.977,3.569-2.994L93.37,795.628z"/>
	</g>
	<g>
		<path fill="#FFFFFF" d="M63.485,814.614c3.05,2.255,5.042,4.825,5.976,7.707c0.935,2.881,1.041,5.818,0.316,8.809
			c-1.237,5.109-4.043,8.901-8.417,11.37s-9.849,2.911-16.424,1.318c-6.512-1.576-11.164-4.467-13.956-8.672
			c-2.791-4.206-3.57-8.863-2.332-13.973c0.769-3.179,2.279-5.806,4.53-7.884c2.252-2.077,5.031-3.407,8.339-3.993
			c-3.431-2.447-5.782-5.375-7.052-8.782c-1.269-3.409-1.44-7.028-0.512-10.86c1.531-6.325,4.793-10.979,9.786-13.958
			c4.994-2.981,10.839-3.661,17.538-2.039c6.232,1.509,11.024,4.402,14.376,8.676c3.956,5.048,5.12,10.936,3.491,17.667
			c-0.897,3.708-2.64,6.889-5.23,9.545C71.326,812.2,67.849,813.89,63.485,814.614z M57.573,827.185
			c0.633-2.618,0.387-4.838-0.738-6.661s-2.919-3.032-5.381-3.628c-2.492-0.603-4.667-0.346-6.519,0.773
			c-1.853,1.117-3.098,2.986-3.732,5.603c-0.595,2.461-0.333,4.611,0.789,6.449c1.122,1.839,2.898,3.052,5.329,3.64
			c2.523,0.611,4.715,0.35,6.572-0.785C55.75,831.444,56.977,829.646,57.573,827.185z M65.893,798.128
			c0.875-3.614,0.63-6.658-0.733-9.134c-1.363-2.475-3.431-4.047-6.205-4.717c-2.711-0.656-5.191-0.225-7.437,1.291
			c-2.247,1.518-3.816,4.114-4.706,7.791c-0.777,3.208-0.497,6.007,0.839,8.392c1.336,2.385,3.39,3.912,6.164,4.585
			c3.21,0.777,5.868,0.25,7.977-1.581C63.899,802.922,65.268,800.714,65.893,798.128z"/>
	</g>
	<g>
		<path fill="#FFFFFF" d="M118.763,703.704l3.93-11.922l44.989,14.833c-1.972,4.346-4.841,8.134-8.608,11.367
			c-3.766,3.231-10.341,6.996-19.727,11.296c-7.56,3.482-12.313,5.966-14.255,7.453c-2.639,2.067-4.387,4.394-5.239,6.984
			c-0.943,2.861-0.899,5.315,0.13,7.36c1.031,2.044,2.901,3.514,5.612,4.407c2.678,0.883,5.077,0.779,7.191-0.313
			c2.117-1.093,3.912-3.47,5.391-7.134l12.367,5.495c-3.089,6.813-7.152,11.093-12.185,12.844
			c-5.033,1.75-10.564,1.631-16.593-0.357c-6.608-2.177-11.212-5.67-13.813-10.479c-2.601-4.808-3.029-9.86-1.281-15.157
			c0.993-3.015,2.48-5.706,4.46-8.074c1.979-2.37,4.634-4.659,7.962-6.87c2.206-1.468,5.946-3.391,11.22-5.77
			c5.275-2.38,8.654-4,10.135-4.861c1.482-0.862,2.749-1.762,3.801-2.697L118.763,703.704z"/>
	</g>
	<g>
		<path fill="#FFFFFF" d="M92.511,741.839l-3.93,11.922L44.689,739.29l3.072-9.318c4.798-2.368,10.169-6.269,16.113-11.703
			c5.944-5.434,11.135-11.58,15.573-18.437c4.438-6.859,7.616-13.245,9.533-19.164l12.377,4.081
			c-3.264,9.187-8.286,17.996-15.067,26.427c-6.781,8.432-14.435,15.446-22.964,21.04L92.511,741.839z"/>
	</g>
	<g>
		<path fill="#FFFFFF" d="M154.163,612.502l4.415-11.75l44.343,16.661c-2.149,4.261-5.171,7.93-9.067,11.004
			c-3.895,3.074-10.62,6.568-20.172,10.479c-7.699,3.17-12.548,5.458-14.549,6.864c-2.721,1.956-4.561,4.211-5.52,6.761
			c-1.06,2.821-1.117,5.274-0.172,7.359c0.946,2.085,2.754,3.63,5.426,4.633c2.642,0.993,5.041,0.987,7.199-0.018
			c2.158-1.005,4.052-3.307,5.678-6.908l12.131,5.997c-3.366,6.681-7.599,10.792-12.701,12.336
			c-5.101,1.542-10.623,1.198-16.564-1.034c-6.512-2.447-10.971-6.125-13.372-11.035c-2.402-4.909-2.622-9.976-0.66-15.198
			c1.116-2.972,2.713-5.601,4.787-7.885c2.075-2.287,4.82-4.466,8.236-6.539c2.265-1.377,6.08-3.144,11.447-5.306
			c5.369-2.162,8.811-3.642,10.326-4.442c1.517-0.801,2.819-1.647,3.908-2.538L154.163,612.502z"/>
	</g>
	<g>
		<path fill="#FFFFFF" d="M84.833,629.916l12.753,3.25c-0.647,2.633-0.566,4.788,0.243,6.462c0.81,1.675,2.22,2.889,4.231,3.644
			c2.672,1.005,5.381,0.652,8.129-1.056c2.749-1.708,5.79-6.268,9.122-13.68c-4.55,2.536-9.165,2.927-13.847,1.168
			c-5.282-1.984-9.051-5.697-11.307-11.133c-2.255-5.436-2.188-11.337,0.203-17.7c2.537-6.752,6.554-11.426,12.049-14.017
			c5.495-2.594,11.349-2.723,17.562-0.39c6.663,2.504,11.168,7.151,13.514,13.94c2.347,6.79,1.305,16.082-3.129,27.877
			c-4.544,12.095-10.057,19.973-16.535,23.635c-6.479,3.661-13.292,4.152-20.434,1.468c-5.012-1.884-8.634-4.845-10.866-8.887
			C84.289,640.457,83.726,635.596,84.833,629.916z M123.88,613.095c1.546-4.111,1.792-7.641,0.741-10.586
			c-1.049-2.947-2.791-4.877-5.221-5.79c-2.341-0.88-4.636-0.698-6.885,0.547c-2.249,1.244-4.156,3.951-5.724,8.123
			c-1.612,4.293-1.953,7.751-1.022,10.379c0.931,2.627,2.656,4.414,5.178,5.361c2.431,0.914,4.846,0.733,7.242-0.54
			C120.584,619.314,122.481,616.816,123.88,613.095z"/>
	</g>
	<g>
		<path fill="#FFFFFF" d="M200.852,524.086l5.954-11.051l41.703,22.465c-2.701,3.935-6.189,7.163-10.461,9.687
			c-4.272,2.523-11.403,5.082-21.395,7.675c-8.055,2.108-13.166,3.723-15.339,4.846c-2.959,1.574-5.086,3.561-6.378,5.96
			c-1.43,2.652-1.815,5.077-1.158,7.27c0.658,2.193,2.242,3.966,4.754,5.32c2.484,1.338,4.863,1.654,7.136,0.949
			c2.274-0.705,4.458-2.732,6.554-6.082l11.216,7.57c-4.232,6.168-8.981,9.675-14.242,10.518c-5.262,0.843-10.686-0.24-16.276-3.25
			c-6.124-3.3-10.048-7.543-11.769-12.731c-1.72-5.187-1.259-10.237,1.387-15.149c1.505-2.794,3.44-5.185,5.802-7.17
			c2.363-1.986,5.377-3.777,9.04-5.373c2.428-1.06,6.446-2.299,12.055-3.72c5.61-1.422,9.219-2.427,10.828-3.016
			c1.611-0.59,3.016-1.253,4.213-1.99L200.852,524.086z"/>
	</g>
	<g>
		<path fill="#FFFFFF" d="M186.6,522.744l-12.516-5.16c1.105-2.864,1.248-5.526,0.427-7.99c-0.822-2.464-2.319-4.281-4.492-5.451
			c-2.483-1.338-5.13-1.462-7.939-0.371c-2.809,1.09-5.307,3.667-7.498,7.733c-2.053,3.811-2.737,7.128-2.057,9.953
			c0.682,2.825,2.391,4.975,5.128,6.449c3.416,1.842,7.292,1.98,11.628,0.419l8.901,6.598l-23.499,29.02l-31.457-16.947
			l5.998-11.136l22.439,12.088l7.542-9.537c-3.367-0.102-6.434-0.899-9.2-2.388c-5.278-2.843-8.718-7.172-10.32-12.988
			c-1.6-5.814-0.751-11.786,2.548-17.909c2.752-5.11,6.69-8.869,11.812-11.281c6.987-3.302,14.064-3.02,21.233,0.841
			c5.73,3.087,9.573,7.14,11.528,12.164C188.762,511.872,188.694,517.169,186.6,522.744z"/>
	</g>
	<g>
		<path fill="#FFFFFF" d="M255.116,443.633l7.336-10.184l38.435,27.688c-3.19,3.55-7.066,6.299-11.63,8.248
			c-4.563,1.947-11.967,3.558-22.211,4.834c-8.259,1.044-13.539,1.982-15.839,2.815c-3.139,1.176-5.505,2.869-7.097,5.082
			c-1.762,2.444-2.458,4.798-2.091,7.058c0.368,2.261,1.709,4.225,4.023,5.892c2.29,1.649,4.608,2.272,6.953,1.867
			c2.346-0.404,4.776-2.132,7.289-5.181l10.14,8.961c-4.997,5.568-10.16,8.427-15.487,8.581c-5.327,0.154-10.565-1.624-15.715-5.334
			c-5.645-4.066-8.984-8.783-10.018-14.151c-1.032-5.366,0.081-10.314,3.342-14.84c1.855-2.574,4.083-4.696,6.684-6.358
			c2.602-1.662,5.821-3.049,9.66-4.154c2.545-0.736,6.691-1.444,12.437-2.126c5.746-0.683,9.456-1.208,11.129-1.587
			c1.674-0.375,3.153-0.851,4.436-1.427L255.116,443.633z"/>
	</g>
	<g>
		<path fill="#FFFFFF" d="M230.411,410.367l-8.292,11.51l23.412,16.865l-6.916,9.599l-50.986,18.451l-9.209-6.633l26.141-36.289
			l-7.102-5.116l6.943-9.639l7.102,5.115l8.292-11.51L230.411,410.367z M215.175,431.516l-14.083,19.549l27.232-10.076
			L215.175,431.516z"/>
	</g>
	<g>
		<path fill="#FFFFFF" d="M317.576,369.643l8.988-8.758l33.057,33.922c-3.755,2.945-8.049,4.981-12.882,6.108
			c-4.832,1.128-12.401,1.434-22.71,0.914c-8.315-0.402-13.677-0.391-16.085,0.029c-3.295,0.616-5.918,1.873-7.87,3.776
			c-2.158,2.102-3.251,4.3-3.282,6.589c-0.029,2.289,0.951,4.455,2.943,6.5c1.969,2.019,4.144,3.035,6.524,3.042
			c2.38,0.008,5.072-1.272,8.075-3.84l8.432,10.582c-5.886,4.616-11.464,6.54-16.737,5.769c-5.273-0.771-10.125-3.429-14.554-7.976
			c-4.855-4.982-7.327-10.206-7.415-15.671c-0.087-5.465,1.865-10.145,5.86-14.037c2.273-2.215,4.835-3.916,7.683-5.103
			c2.85-1.188,6.261-1.994,10.233-2.418c2.634-0.284,6.839-0.262,12.615,0.061c5.778,0.324,9.523,0.445,11.234,0.366
			c1.712-0.079,3.251-0.292,4.617-0.638L317.576,369.643z"/>
	</g>
	<g>
		<path fill="#FFFFFF" d="M304.439,364.981l-10.266-8.259c2.098-2.626,3.14-5.208,3.127-7.747c-0.012-2.538-0.926-4.738-2.738-6.599
			c-1.946-1.997-4.342-2.941-7.19-2.831c-2.847,0.11-5.556,1.419-8.127,3.926c-2.433,2.37-3.724,4.904-3.873,7.6
			c-0.147,2.696,0.695,4.987,2.53,6.867c1.208,1.241,2.892,2.486,5.053,3.739l-8.927,6.619c-2.483-2.684-4.997-4.129-7.544-4.331
			c-2.548-0.203-4.821,0.668-6.818,2.615c-1.699,1.656-2.561,3.482-2.588,5.476c-0.025,1.995,0.779,3.83,2.411,5.506
			c1.61,1.652,3.561,2.507,5.85,2.558c2.289,0.051,4.658-0.869,7.11-2.765l7.178,10.397c-3.658,2.356-7.009,3.799-10.054,4.325
			c-3.044,0.527-6.179,0.18-9.406-1.039s-6.192-3.219-8.901-5.998c-4.632-4.754-6.83-10.041-6.596-15.865
			c0.176-4.78,1.825-8.693,4.946-11.736c4.432-4.319,10.328-5.34,17.688-3.069c-2.199-3.498-3.064-7.164-2.595-11
			c0.469-3.836,2.231-7.244,5.284-10.219c4.431-4.319,9.786-6.379,16.062-6.186c6.277,0.195,11.766,2.704,16.464,7.525
			c4.452,4.568,6.831,9.637,7.133,15.209C309.953,355.264,308.216,360.36,304.439,364.981z"/>
	</g>
	<g>
		<path fill="#FFFFFF" d="M385.933,302.226l9.519-8.182l30.874,35.922c-3.933,2.703-8.345,4.466-13.239,5.292
			c-4.893,0.823-12.468,0.655-22.724-0.508c-8.273-0.921-13.626-1.245-16.055-0.975c-3.328,0.408-6.024,1.5-8.091,3.277
			c-2.284,1.964-3.513,4.087-3.687,6.371c-0.172,2.281,0.671,4.507,2.531,6.67c1.84,2.14,3.947,3.288,6.322,3.445
			c2.375,0.156,5.141-0.953,8.299-3.33l7.755,11.088c-6.162,4.241-11.851,5.811-17.065,4.714c-5.213-1.099-9.89-4.056-14.027-8.869
			c-4.534-5.276-6.675-10.644-6.421-16.103c0.254-5.459,2.495-10.008,6.725-13.643c2.407-2.068,5.071-3.606,7.987-4.614
			c2.919-1.006,6.372-1.597,10.365-1.774c2.646-0.119,6.841,0.166,12.587,0.849c5.745,0.683,9.476,1.04,11.19,1.068
			c1.714,0.026,3.264-0.088,4.646-0.349L385.933,302.226z"/>
	</g>
	<g>
		<path fill="#FFFFFF" d="M347.721,257.765l9.519-8.182l30.874,35.922c-3.933,2.703-8.344,4.467-13.239,5.292
			c-4.892,0.823-12.468,0.655-22.724-0.508c-8.273-0.921-13.626-1.245-16.055-0.975c-3.328,0.408-6.024,1.5-8.091,3.277
			c-2.284,1.964-3.513,4.087-3.687,6.371c-0.172,2.281,0.671,4.507,2.531,6.67c1.84,2.14,3.947,3.288,6.322,3.445
			c2.375,0.156,5.143-0.952,8.299-3.33l7.755,11.088c-6.162,4.241-11.85,5.81-17.065,4.714c-5.213-1.1-9.889-4.056-14.027-8.869
			c-4.534-5.276-6.675-10.644-6.421-16.103c0.254-5.459,2.495-10.008,6.725-13.643c2.407-2.068,5.071-3.606,7.987-4.614
			c2.918-1.006,6.372-1.597,10.365-1.774c2.646-0.119,6.841,0.166,12.587,0.849c5.745,0.684,9.475,1.041,11.19,1.068
			c1.715,0.026,3.264-0.088,4.647-0.348L347.721,257.765z"/>
	</g>
	<g>
		<path fill="#FFFFFF" d="M461.96,242.01l10.089-7.467l28.178,38.073c-4.118,2.411-8.647,3.849-13.588,4.315
			c-4.94,0.465-12.481-0.253-22.626-2.159c-8.184-1.519-13.499-2.235-15.942-2.141c-3.348,0.165-6.117,1.058-8.307,2.678
			c-2.422,1.792-3.802,3.822-4.14,6.087c-0.338,2.264,0.342,4.542,2.038,6.836c1.679,2.267,3.696,3.566,6.053,3.896
			c2.357,0.329,5.198-0.574,8.52-2.716l6.927,11.625c-6.454,3.78-12.242,4.932-17.363,3.457c-5.12-1.475-9.569-4.763-13.344-9.865
			c-4.138-5.592-5.882-11.101-5.233-16.528c0.651-5.426,3.217-9.799,7.701-13.118c2.551-1.888,5.319-3.228,8.303-4.021
			c2.983-0.792,6.473-1.131,10.466-1.015c2.647,0.074,6.812,0.662,12.492,1.76c5.681,1.101,9.375,1.726,11.082,1.879
			c1.709,0.151,3.262,0.149,4.661-0.009L461.96,242.01z"/>
	</g>
	<g>
		<path fill="#FFFFFF" d="M443.751,196.31l8.039,10.861l-40.934,30.295c6.649,1.223,12.855,3.869,18.618,7.939l-9.857,7.294
			c-3.025-2.148-7.064-3.925-12.113-5.332c-5.051-1.407-9.76-1.453-14.128-0.134l-6.523-8.812L443.751,196.31z"/>
	</g>
	<g>
		<path fill="#FFFFFF" d="M544.04,189.296l10.824-6.355l23.982,40.847c-4.35,1.96-9.006,2.909-13.97,2.849
			c-4.961-0.062-12.384-1.578-22.269-4.547c-7.978-2.38-13.187-3.654-15.627-3.821c-3.346-0.19-6.194,0.404-8.544,1.783
			c-2.599,1.526-4.186,3.398-4.764,5.613c-0.575,2.217-0.141,4.555,1.302,7.016c1.428,2.434,3.298,3.938,5.606,4.516
			c2.31,0.577,5.23-0.022,8.76-1.796l5.655,12.293c-6.818,3.075-12.697,3.606-17.632,1.598c-4.934-2.01-9.01-5.753-12.224-11.227
			c-3.522-6-4.672-11.663-3.45-16.99c1.22-5.326,4.238-9.404,9.049-12.228c2.736-1.607,5.631-2.646,8.682-3.117
			c3.051-0.471,6.556-0.439,10.516,0.1c2.626,0.354,6.703,1.38,12.235,3.077c5.533,1.697,9.139,2.711,10.82,3.042
			c1.683,0.332,3.227,0.495,4.635,0.486L544.04,189.296z"/>
	</g>
	<g>
		<path fill="#FFFFFF" d="M475.676,187.879c-3.458-5.889-4.059-11.726-1.804-17.511c2.656-6.874,9.748-13.697,21.275-20.465
			c11.502-6.753,20.937-9.614,28.305-8.587c6.079,0.854,10.847,4.227,14.304,10.115c3.473,5.917,4,12.02,1.578,18.312
			c-2.422,6.293-9.465,12.862-21.134,19.713c-11.445,6.72-20.852,9.567-28.221,8.539
			C483.902,197.141,479.134,193.768,475.676,187.879z M485.339,182.206c0.828,1.41,2.017,2.405,3.563,2.982
			c1.548,0.578,3.662,0.491,6.342-0.265c3.485-0.967,8.793-3.546,15.925-7.733c7.132-4.188,11.824-7.424,14.069-9.71
			c2.246-2.285,3.491-4.233,3.734-5.845c0.243-1.611-0.049-3.123-0.876-4.533c-0.827-1.409-2.015-2.403-3.564-2.982
			c-1.546-0.578-3.662-0.489-6.34,0.267c-3.456,0.95-8.752,3.52-15.884,7.708c-7.132,4.188-11.822,7.424-14.068,9.71
			c-2.245,2.285-3.497,4.237-3.755,5.857C484.227,179.281,484.511,180.797,485.339,182.206z"/>
	</g>
	<g>
		<path fill="#FFFFFF" d="M647.087,150.4l5.601,12.298l-46.346,21.109c6.247,2.58,11.767,6.459,16.558,11.64l-11.16,5.084
			c-2.512-2.731-6.091-5.311-10.738-7.739c-4.646-2.429-9.242-3.453-13.79-3.072l-4.544-9.978L647.087,150.4z"/>
	</g>
	<g>
		<path fill="#FFFFFF" d="M622.162,135.009l-6.734-11.306c2.289-1.395,3.738-2.971,4.346-4.728c0.61-1.757,0.455-3.642-0.462-5.654
			c-1.157-2.539-3.306-4.167-6.451-4.883c-3.144-0.717-8.507,0.352-16.084,3.204c4.997,1.459,8.552,4.507,10.665,9.146
			c2.299,5.049,2.334,10.29,0.108,15.725c-2.226,5.436-6.463,9.575-12.706,12.42c-6.506,2.963-12.63,3.42-18.373,1.367
			c-5.743-2.052-9.978-6.068-12.702-12.049c-2.964-6.505-2.879-12.992,0.254-19.456c3.133-6.465,10.461-12.322,21.985-17.569
			c11.729-5.341,21.18-7.023,28.352-5.04c7.174,1.982,12.349,6.459,15.524,13.433c2.285,5.017,2.798,9.682,1.537,13.99
			C630.16,127.914,627.074,131.715,622.162,135.009z M582.614,119.413c-3.967,1.808-6.63,4.121-7.989,6.941
			c-1.357,2.821-1.491,5.429-0.402,7.819c1.037,2.276,2.794,3.757,5.273,4.442c2.479,0.685,5.76,0.097,9.845-1.762
			c4.144-1.888,6.813-4.088,8.008-6.607c1.197-2.517,1.237-5.001,0.119-7.452c-1.077-2.362-2.916-3.93-5.522-4.698
			C589.343,117.326,586.232,117.766,582.614,119.413z"/>
	</g>
	<g>
		<path fill="#FFFFFF" d="M736.973,119.032l4.236,12.833l-48.363,15.964c5.932,3.242,10.997,7.697,15.199,13.367l-11.645,3.843
			c-2.2-2.986-5.48-5.939-9.836-8.858c-4.357-2.917-8.816-4.432-13.377-4.547l-3.438-10.412L736.973,119.032z"/>
	</g>
	<g>
		<path fill="#FFFFFF" d="M689.676,97.109c-0.304,3.781-1.433,6.829-3.387,9.146c-1.953,2.317-4.392,3.956-7.314,4.921
			c-4.993,1.649-9.694,1.268-14.103-1.144c-4.408-2.41-7.673-6.828-9.794-13.252c-2.101-6.363-2.101-11.842-0.006-16.433
			c2.097-4.591,5.643-7.712,10.636-9.361c3.105-1.026,6.134-1.13,9.088-0.316c2.952,0.815,5.552,2.471,7.794,4.973
			c0.266-4.206,1.51-7.749,3.735-10.626c2.224-2.878,5.208-4.935,8.953-6.17c6.18-2.04,11.854-1.728,17.023,0.939
			c5.168,2.666,8.832,7.273,10.994,13.817c2.01,6.091,2.085,11.687,0.224,16.792c-2.196,6.025-6.584,10.123-13.161,12.296
			c-3.623,1.195-7.245,1.397-10.867,0.599C695.868,102.494,692.596,100.434,689.676,97.109z M675.877,98.727
			c2.558-0.845,4.312-2.226,5.267-4.145c0.954-1.918,1.034-4.079,0.239-6.485c-0.804-2.436-2.171-4.145-4.098-5.129
			c-1.929-0.984-4.172-1.054-6.73-0.21c-2.404,0.793-4.092,2.154-5.06,4.076c-0.969,1.924-1.061,4.073-0.278,6.446
			c0.814,2.467,2.192,4.189,4.135,5.169C671.298,99.428,673.473,99.52,675.877,98.727z M704.949,90.446
			c3.533-1.166,5.988-2.98,7.369-5.447c1.382-2.463,1.625-5.052,0.729-7.761c-0.873-2.649-2.549-4.527-5.025-5.635
			c-2.475-1.108-5.51-1.068-9.103,0.118c-3.135,1.035-5.364,2.75-6.684,5.144c-1.32,2.394-1.533,4.946-0.638,7.656
			c1.035,3.137,2.889,5.116,5.557,5.939C699.825,91.287,702.423,91.281,704.949,90.446z"/>
	</g>
	<g>
		<path fill="#FFFFFF" d="M831.858,96.395l2.75,13.229l-49.861,10.366c5.525,3.894,10.053,8.897,13.582,15.006l-12.007,2.497
			c-1.847-3.218-4.769-6.524-8.767-9.918c-3.996-3.394-8.254-5.406-12.774-6.039l-2.231-10.735L831.858,96.395z"/>
	</g>
	<g>
		<path fill="#FFFFFF" d="M771.17,84.447L758.881,87l-9.407-45.248l9.605-1.996c4.45,2.972,10.512,5.673,18.189,8.106
			c7.677,2.431,15.595,3.856,23.753,4.271c8.159,0.416,15.279-0.025,21.361-1.322l2.652,12.76c-9.588,1.765-19.727,1.817-30.42,0.16
			c-10.691-1.658-20.592-4.782-29.701-9.372L771.17,84.447z"/>
	</g>
	<g>
		<path fill="#FFFFFF" d="M927.042,83.923l1.386,13.441l-50.656,5.224c5.099,4.438,9.092,9.876,11.98,16.314l-12.198,1.258
			c-1.509-3.39-4.08-6.976-7.709-10.759c-3.63-3.784-7.659-6.219-12.09-7.31l-1.125-10.907L927.042,83.923z"/>
	</g>
	<g>
		<path fill="#FFFFFF" d="M866.927,19.922l2.776,12.862c-2.646,0.597-4.538,1.629-5.675,3.1s-1.596,3.275-1.375,5.411
			c0.292,2.839,1.817,5.107,4.569,6.804c2.754,1.697,8.191,2.386,16.311,2.065c-4.298-2.941-6.705-6.899-7.218-11.874
			c-0.579-5.612,1.062-10.64,4.924-15.083c3.861-4.442,9.171-7.012,15.931-7.709c7.176-0.741,13.148,0.771,17.92,4.533
			c4.772,3.762,7.497,8.945,8.178,15.546c0.73,7.078-1.42,13.183-6.451,18.311s-13.812,8.338-26.344,9.629
			c-12.851,1.325-22.36-0.094-28.527-4.26c-6.165-4.166-9.641-10.044-10.423-17.634c-0.549-5.325,0.487-9.888,3.108-13.688
			C857.25,24.134,861.35,21.464,866.927,19.922z M899.392,47.368c4.369-0.45,7.638-1.803,9.806-4.058
			c2.169-2.253,3.119-4.672,2.852-7.255c-0.256-2.487-1.443-4.46-3.558-5.917c-2.116-1.458-5.39-1.959-9.824-1.5
			c-4.561,0.47-7.808,1.707-9.746,3.711c-1.935,2.005-2.767,4.347-2.49,7.026c0.266,2.583,1.505,4.664,3.713,6.24
			C892.355,47.192,895.437,47.776,899.392,47.368z"/>
	</g>
	<g>
		<path fill="#FFFFFF" d="M1023.398,81.319l0.028,13.514l-50.927,0.106c4.628,4.928,8.053,10.739,10.279,17.435l-12.263,0.025
			c-1.161-3.522-3.357-7.35-6.588-11.48c-3.231-4.129-6.995-6.958-11.294-8.488l-0.023-10.965L1023.398,81.319z"/>
	</g>
	<g>
		<path fill="#FFFFFF" d="M1005.218,57.114l-1.423-13.463c3.046-0.39,5.455-1.532,7.23-3.429c1.775-1.896,2.66-4.077,2.655-6.546
			c-0.006-2.821-1.157-5.208-3.453-7.158c-2.296-1.95-5.753-2.922-10.369-2.912c-4.328,0.009-7.572,0.986-9.732,2.929
			c-2.159,1.944-3.237,4.471-3.23,7.581c0.008,3.88,1.732,7.353,5.168,10.425L990.5,55.508l-36.707-6.848l-0.075-35.73l12.647-0.026
			l0.053,25.487l11.98,2.091c-1.513-3.01-2.273-6.086-2.28-9.228c-0.012-5.994,2.158-11.081,6.509-15.257
			c4.351-4.176,10.006-6.273,16.963-6.287c5.803-0.012,10.984,1.661,15.544,5.017c6.23,4.572,9.351,10.929,9.369,19.072
			c0.014,6.509-1.722,11.818-5.209,15.928C1015.806,53.838,1011.115,56.301,1005.218,57.114z"/>
	</g>
	<g>
		<path fill="#FFFFFF" d="M1119.346,88.421l-1.246,13.455l-50.707-4.698c4.14,5.343,7.003,11.45,8.588,18.327l-12.211-1.132
			c-0.822-3.618-2.649-7.634-5.475-12.051c-2.827-4.416-6.307-7.587-10.444-9.516l1.011-10.917L1119.346,88.421z"/>
	</g>
	<g>
		<path fill="#FFFFFF" d="M1124.007,38.09l-14.126-1.308l-2.661,28.73l-11.779-1.092l-41.758-34.583l1.047-11.3l44.531,4.125
			l0.807-8.715l11.826,1.095l-0.807,8.715l14.126,1.308L1124.007,38.09z M1098.055,35.687l-23.989-2.222l22.494,18.358
			L1098.055,35.687z"/>
	</g>
	<g>
		<path fill="#FFFFFF" d="M1213.351,106.323l-2.788,13.222l-49.829-10.509c3.497,5.784,5.637,12.182,6.42,19.194l-12-2.531
			c-0.402-3.687-1.751-7.888-4.05-12.6c-2.299-4.711-5.39-8.263-9.277-10.655l2.263-10.727L1213.351,106.323z"/>
	</g>
	<g>
		<path fill="#FFFFFF" d="M1199.913,79.401l1.145-13.126c3.35,0.282,6.074-0.291,8.177-1.716c2.102-1.424,3.422-3.407,3.957-5.948
			c0.576-2.729,0.026-5.244-1.652-7.547c-1.677-2.302-4.271-3.825-7.784-4.567c-3.324-0.701-6.148-0.362-8.471,1.015
			c-2.321,1.378-3.755,3.353-4.297,5.926c-0.356,1.694-0.455,3.787-0.293,6.279l-10.468-3.731c0.849-3.557,0.648-6.449-0.602-8.68
			c-1.25-2.227-3.238-3.631-5.968-4.207c-2.321-0.489-4.317-0.19-5.989,0.901c-1.671,1.09-2.748,2.779-3.231,5.068
			c-0.475,2.259-0.098,4.354,1.132,6.284c1.232,1.931,3.316,3.386,6.254,4.366l-4.64,11.75c-3.993-1.727-7.057-3.708-9.191-5.943
			c-2.133-2.235-3.589-5.034-4.372-8.393c-0.782-3.359-0.773-6.936,0.028-10.731c1.369-6.493,4.538-11.262,9.505-14.312
			c4.069-2.517,8.237-3.325,12.503-2.425c6.055,1.277,10.188,5.606,12.398,12.986c1.68-3.775,4.246-6.534,7.693-8.28
			c3.449-1.747,7.259-2.18,11.43-1.301c6.055,1.277,10.749,4.578,14.082,9.9c3.334,5.323,4.306,11.279,2.916,17.865
			c-1.315,6.243-4.204,11.038-8.662,14.392C1211.054,78.574,1205.854,79.966,1199.913,79.401z"/>
	</g>
	<g>
		<path fill="#FFFFFF" d="M1306.006,133.655l-4.35,12.794l-48.217-16.396c2.781,6.162,4.141,12.768,4.079,19.825l-11.61-3.948
			c0.043-3.71-0.796-8.041-2.515-12.995c-1.719-4.953-4.364-8.848-7.937-11.69l3.529-10.381L1306.006,133.655z"/>
	</g>
	<g>
		<path fill="#FFFFFF" d="M1316.558,63.636l11.883,4.04l-15.25,44.847c-4.327-2.013-8.089-4.918-11.286-8.714
			c-3.196-3.794-6.9-10.405-11.111-19.829c-3.412-7.594-5.85-12.369-7.32-14.325c-2.042-2.659-4.353-4.426-6.933-5.303
			c-2.853-0.97-5.307-0.948-7.361,0.062c-2.053,1.011-3.54,2.869-4.459,5.569c-0.908,2.671-0.826,5.07,0.246,7.194
			c1.072,2.125,3.433,3.945,7.084,5.457l-5.609,12.315c-6.783-3.153-11.028-7.254-12.731-12.303
			c-1.703-5.048-1.534-10.578,0.51-16.589c2.24-6.586,5.775-11.158,10.607-13.714c4.831-2.554,9.888-2.937,15.168-1.14
			c3.005,1.022,5.683,2.534,8.032,4.535c2.35,2.001,4.616,4.677,6.795,8.025c1.447,2.219,3.335,5.976,5.667,11.272
			c2.331,5.297,3.919,8.691,4.767,10.18c0.849,1.49,1.734,2.765,2.659,3.826L1316.558,63.636z"/>
	</g>
	<g>
		<path fill="#FFFFFF" d="M1394.893,170.487l-5.554,12.32l-46.428-20.932c2.179,6.399,2.902,13.107,2.164,20.124l-11.18-5.04
			c0.398-3.689-0.023-8.082-1.26-13.175c-1.238-5.094-3.498-9.227-6.782-12.396l4.507-9.995L1394.893,170.487z"/>
	</g>
	<g>
		<path fill="#FFFFFF" d="M1416.756,121.992l-5.554,12.32l-46.428-20.932c2.179,6.399,2.9,13.107,2.163,20.123l-11.18-5.04
			c0.398-3.689-0.023-8.081-1.26-13.176c-1.238-5.094-3.498-9.227-6.782-12.396l4.506-9.995L1416.756,121.992z"/>
	</g>
	<g>
		<path fill="#FFFFFF" d="M1479.744,216.796l-6.792,11.681l-44.024-25.602c1.507,6.589,1.536,13.336,0.079,20.241l-10.601-6.165
			c0.773-3.63,0.81-8.041,0.103-13.236c-0.706-5.194-2.53-9.536-5.471-13.027l5.513-9.477L1479.744,216.796z"/>
	</g>
	<g>
		<path fill="#FFFFFF" d="M1442.125,140.671c3.432-5.903,8.222-9.291,14.369-10.168c7.294-1.061,16.719,1.766,28.275,8.488
			c11.53,6.705,18.655,13.519,21.379,20.442c2.24,5.716,1.642,11.524-1.79,17.428c-3.45,5.931-8.508,9.387-15.18,10.365
			c-6.67,0.98-15.852-1.931-27.547-8.734c-11.474-6.672-18.571-13.471-21.296-20.393
			C1438.095,152.385,1438.691,146.575,1442.125,140.671z M1451.81,146.303c-0.822,1.414-1.105,2.937-0.848,4.568
			c0.256,1.633,1.37,3.432,3.344,5.394c2.554,2.561,7.406,5.92,14.556,10.077c7.15,4.158,12.272,6.656,15.366,7.489
			c3.093,0.836,5.401,0.964,6.925,0.384c1.524-0.579,2.696-1.576,3.519-2.988c0.821-1.414,1.105-2.937,0.848-4.569
			c-0.255-1.631-1.37-3.43-3.344-5.393c-2.526-2.544-7.363-5.895-14.514-10.053c-7.149-4.158-12.272-6.654-15.365-7.489
			c-3.094-0.833-5.408-0.967-6.946-0.395C1453.813,143.9,1452.632,144.892,1451.81,146.303z"/>
	</g>
	<g>
		<path fill="#FFFFFF" d="M1493.631,240.006c3.864-5.631,8.892-8.655,15.086-9.073c7.351-0.517,16.539,3.005,27.564,10.567
			c10.999,7.543,17.599,14.868,19.8,21.976c1.807,5.866,0.78,11.616-3.081,17.247c-3.881,5.658-9.183,8.727-15.909,9.208
			c-6.724,0.481-15.664-3.104-26.822-10.758c-10.948-7.507-17.519-14.814-19.72-21.922
			C1488.742,251.388,1489.77,245.639,1493.631,240.006z M1502.873,246.343c-0.925,1.347-1.32,2.847-1.186,4.492
			c0.133,1.647,1.111,3.524,2.934,5.627c2.356,2.746,6.946,6.453,13.765,11.132c6.823,4.678,11.744,7.549,14.766,8.611
			c3.023,1.064,5.315,1.362,6.877,0.898c1.563-0.464,2.808-1.371,3.732-2.718c0.925-1.349,1.32-2.845,1.186-4.494
			c-0.134-1.646-1.113-3.523-2.936-5.628c-2.327-2.725-6.904-6.427-13.724-11.104c-6.823-4.679-11.744-7.549-14.768-8.612
			c-3.022-1.062-5.321-1.366-6.897-0.911C1505.048,244.094,1503.798,244.995,1502.873,246.343z"/>
	</g>
	<g>
		<path fill="#FFFFFF" d="M1558.967,241.072l6.208-11.604c2.376,1.241,4.474,1.668,6.293,1.283c1.817-0.384,3.352-1.488,4.604-3.314
			c1.577-2.3,1.862-4.982,0.853-8.046c-1.009-3.063-4.692-7.103-11.046-12.123c1.331,5.033,0.553,9.65-2.329,13.856
			c-3.137,4.574-7.609,7.309-13.414,8.208c-5.805,0.898-11.536-0.594-17.196-4.474c-5.896-4.044-9.447-9.054-10.652-15.034
			c-1.208-5.977,0.048-11.677,3.765-17.097c4.044-5.896,9.642-9.169,16.796-9.823c7.154-0.654,15.952,2.601,26.395,9.764
			c10.628,7.29,16.946,14.518,18.949,21.685c2.005,7.167,0.84,13.91-3.493,20.229c-3.119,4.548-6.85,7.393-11.191,8.535
			C1569.173,244.262,1564.325,243.58,1558.967,241.072z M1551.917,199.15c-3.596-2.466-6.952-3.551-10.069-3.26
			c-3.116,0.292-5.418,1.522-6.904,3.691c-1.416,2.063-1.776,4.332-1.084,6.808c0.694,2.478,2.889,4.985,6.59,7.523
			c3.754,2.575,7.019,3.725,9.792,3.449c2.775-0.274,4.923-1.522,6.446-3.742c1.47-2.141,1.86-4.525,1.174-7.155
			C1557.178,203.836,1555.196,201.398,1551.917,199.15z"/>
	</g>
	<g>
		<path fill="#FFFFFF" d="M1571.653,295.841c4.525-5.113,9.888-7.495,16.088-7.144c7.359,0.391,16.045,5.019,26.055,13.881
			c9.987,8.84,15.635,16.923,16.943,24.247c1.073,6.045-0.656,11.623-5.182,16.736c-4.548,5.137-10.187,7.531-16.921,7.18
			c-6.731-0.35-15.163-5.011-25.296-13.978c-9.939-8.798-15.56-16.859-16.871-24.183
			C1565.398,306.534,1567.126,300.954,1571.653,295.841z M1580.043,303.268c-1.085,1.225-1.66,2.662-1.73,4.313
			c-0.07,1.65,0.67,3.633,2.218,5.945c2,3.013,6.098,7.26,12.292,12.743c6.193,5.482,10.723,8.938,13.593,10.364
			c2.869,1.427,5.108,2.005,6.715,1.737c1.608-0.267,2.953-1.014,4.037-2.239c1.085-1.225,1.661-2.661,1.73-4.313
			c0.07-1.65-0.67-3.633-2.219-5.946c-1.976-2.991-6.061-7.228-12.255-12.711c-6.195-5.483-10.724-8.936-13.594-10.365
			c-2.869-1.426-5.112-2.01-6.732-1.752C1582.478,301.303,1581.128,302.044,1580.043,303.268z"/>
	</g>
	<g>
		<path fill="#FFFFFF" d="M1627.578,282.077c-3.421,1.639-6.623,2.197-9.608,1.675c-2.984-0.522-5.629-1.803-7.934-3.843
			c-3.938-3.485-5.974-7.737-6.108-12.761c-0.136-5.023,2.039-10.066,6.522-15.132c4.44-5.018,9.173-7.775,14.198-8.275
			c5.022-0.498,9.503,0.994,13.439,4.479c2.448,2.167,4.065,4.732,4.846,7.694c0.781,2.962,0.657,6.041-0.375,9.238
			c3.768-1.887,7.457-2.595,11.063-2.122c3.605,0.473,6.885,2.017,9.838,4.631c4.873,4.315,7.457,9.376,7.754,15.182
			c0.297,5.808-1.84,11.293-6.407,16.453c-4.251,4.8-9.048,7.683-14.396,8.642c-6.313,1.136-12.063-0.594-17.248-5.184
			c-2.857-2.529-4.852-5.558-5.987-9.091C1626.04,290.137,1626.174,286.271,1627.578,282.077z M1619.236,270.966
			c2.017,1.786,4.093,2.608,6.232,2.465c2.138-0.14,4.045-1.159,5.724-3.056c1.699-1.921,2.49-3.963,2.369-6.123
			c-0.119-2.162-1.189-4.136-3.204-5.92c-1.896-1.678-3.919-2.452-6.069-2.322c-2.15,0.131-4.052,1.132-5.711,3.004
			c-1.721,1.944-2.516,4.003-2.383,6.176C1616.324,267.362,1617.34,269.288,1619.236,270.966z M1641.02,291.921
			c2.785,2.465,5.59,3.673,8.414,3.627c2.826-0.045,5.184-1.139,7.075-3.275c1.85-2.089,2.629-4.481,2.339-7.178
			c-0.287-2.697-1.849-5.298-4.682-7.807c-2.471-2.189-5.074-3.251-7.807-3.188c-2.732,0.065-5.046,1.164-6.936,3.301
			c-2.19,2.473-2.969,5.07-2.337,7.791C1637.717,287.914,1639.027,290.158,1641.02,291.921z"/>
	</g>
	<g>
		<path fill="#FFFFFF" d="M1641.756,359.122c5.068-4.578,10.664-6.348,16.784-5.31c7.271,1.209,15.386,6.775,24.347,16.696
			c8.941,9.899,13.653,18.558,14.139,25.982c0.393,6.127-1.946,11.479-7.013,16.057c-5.093,4.6-10.964,6.35-17.616,5.25
			c-6.651-1.097-14.512-6.668-23.582-16.708c-8.897-9.85-13.587-18.487-14.074-25.912
			C1634.351,369.052,1636.689,363.7,1641.756,359.122z M1649.267,367.437c-1.213,1.095-1.946,2.462-2.198,4.093
			c-0.255,1.634,0.259,3.687,1.542,6.156c1.653,3.217,5.252,7.894,10.798,14.032c5.544,6.138,9.663,10.076,12.354,11.814
			c2.693,1.738,4.854,2.562,6.482,2.473c1.628-0.087,3.049-0.678,4.261-1.775c1.214-1.096,1.946-2.462,2.2-4.093
			c0.252-1.632-0.262-3.685-1.543-6.155c-1.632-3.192-5.22-7.858-10.764-13.997c-5.544-6.138-9.663-10.076-12.354-11.814
			c-2.693-1.738-4.859-2.568-6.497-2.493C1651.907,365.756,1650.481,366.341,1649.267,367.437z"/>
	</g>
	<g>
		<path fill="#FFFFFF" d="M1677.565,345.376l-8.415-9.314l34.295-30.979l6.577,7.28c-0.317,5.342,0.415,11.938,2.194,19.793
			c1.78,7.853,4.553,15.406,8.317,22.656c3.762,7.252,7.741,13.174,11.933,17.767l-9.67,8.736
			c-6.367-7.383-11.537-16.107-15.508-26.171c-3.972-10.066-6.278-20.188-6.918-30.368L1677.565,345.376z"/>
	</g>
	<g>
		<path fill="#FFFFFF" d="M1704.405,428.829c5.496-4.053,11.238-5.257,17.226-3.619c7.113,1.924,14.638,8.266,22.57,19.027
			c7.916,10.734,11.745,19.819,11.491,27.255c-0.218,6.134-3.073,11.227-8.57,15.28c-5.523,4.072-11.538,5.23-18.048,3.478
			c-6.51-1.752-13.779-8.074-21.807-18.963c-7.877-10.683-11.687-19.742-11.433-27.178
			C1696.052,437.974,1698.909,432.881,1704.405,428.829z M1711.054,437.848c-1.316,0.97-2.182,2.256-2.595,3.854
			c-0.414,1.6-0.106,3.692,0.924,6.278c1.324,3.366,4.442,8.375,9.351,15.033c4.908,6.657,8.615,10.984,11.122,12.978
			c2.506,1.995,4.573,3.031,6.202,3.105c1.628,0.074,3.101-0.375,4.416-1.344c1.315-0.969,2.18-2.255,2.595-3.854
			c0.414-1.599,0.105-3.692-0.924-6.279c-1.307-3.339-4.413-8.335-9.321-14.993c-4.91-6.658-8.616-10.983-11.123-12.98
			c-2.507-1.995-4.578-3.036-6.215-3.123C1713.846,436.436,1712.371,436.877,1711.054,437.848z"/>
	</g>
	<g>
		<path fill="#FFFFFF" d="M1780.471,394.557l-9.671,8.923c-1.856-1.977-3.705-3.083-5.55-3.316c-1.845-0.232-3.633,0.289-5.36,1.563
			c-2.297,1.693-3.477,4.157-3.542,7.392c-0.065,3.235,2.101,8.267,6.503,15.101c0.35-5.197,2.539-9.28,6.564-12.248
			c4.542-3.348,9.707-4.487,15.494-3.417c5.787,1.071,10.698,4.339,14.731,9.811c4.28,5.805,6.011,11.72,5.191,17.74
			c-0.82,6.021-3.899,11-9.24,14.937c-5.727,4.223-12.079,5.47-19.05,3.74c-6.972-1.731-14.197-7.666-21.673-17.808
			c-7.666-10.398-11.27-19.312-10.811-26.74c0.459-7.426,3.758-13.405,9.9-17.934c4.309-3.176,8.766-4.6,13.371-4.27
			C1771.93,388.358,1776.312,390.534,1780.471,394.557z M1773.307,436.461c2.608,3.535,5.432,5.664,8.474,6.388
			c3.042,0.723,5.609,0.315,7.699-1.225c2.014-1.484,3.109-3.507,3.292-6.072c0.181-2.561-1.051-5.637-3.695-9.224
			c-2.721-3.69-5.434-5.861-8.144-6.511c-2.711-0.65-5.15-0.177-7.317,1.42c-2.09,1.542-3.254,3.664-3.49,6.368
			C1769.888,430.309,1770.949,433.262,1773.307,436.461z"/>
	</g>
	<g>
		<path fill="#FFFFFF" d="M1760.004,506.923c5.843-3.535,11.671-4.213,17.485-2.037c6.909,2.563,13.824,9.564,20.745,21.002
			c6.905,11.41,9.893,20.807,8.963,28.188c-0.774,6.09-4.082,10.901-9.925,14.437c-5.87,3.552-11.965,4.159-18.288,1.821
			c-6.323-2.337-12.987-9.293-19.99-20.868c-6.872-11.355-9.843-20.723-8.912-28.106
			C1750.853,515.27,1754.162,510.457,1760.004,506.923z M1765.804,516.509c-1.398,0.846-2.378,2.048-2.935,3.602
			c-0.558,1.556-0.442,3.668,0.35,6.337c1.014,3.472,3.662,8.745,7.944,15.82c4.282,7.077,7.579,11.723,9.894,13.938
			c2.316,2.216,4.278,3.434,5.895,3.656c1.613,0.223,3.121-0.09,4.519-0.936c1.399-0.847,2.378-2.047,2.934-3.603
			c0.559-1.556,0.441-3.667-0.35-6.336c-0.996-3.445-3.636-8.704-7.918-15.78c-4.283-7.076-7.581-11.722-9.895-13.937
			c-2.315-2.215-4.283-3.44-5.907-3.675C1768.713,515.357,1767.203,515.662,1765.804,516.509z"/>
	</g>
	<g>
		<path fill="#FFFFFF" d="M1818.044,533.349l10.798-8.164c1.906,2.405,4.127,3.88,6.667,4.424c2.539,0.543,4.864,0.176,6.977-1.102
			c2.413-1.46,3.864-3.676,4.35-6.652c0.485-2.973-0.466-6.435-2.855-10.385c-2.24-3.703-4.752-5.978-7.53-6.826
			c-2.781-0.848-5.501-0.465-8.161,1.144c-3.319,2.008-5.407,5.276-6.265,9.804l-10.201,4.319l-13.071-34.976l30.568-18.497
			l6.547,10.821l-21.806,13.194l4.389,11.34c1.798-2.849,4.04-5.087,6.728-6.714c5.131-3.104,10.605-3.869,16.43-2.296
			c5.822,1.573,10.535,5.335,14.137,11.286c3.003,4.964,4.245,10.266,3.721,15.904c-0.703,7.694-4.537,13.649-11.504,17.865
			c-5.567,3.369-11.012,4.621-16.331,3.756C1826.311,540.729,1821.783,537.981,1818.044,533.349z"/>
	</g>
	<g>
		<path fill="#FFFFFF" d="M1808.393,589.083c6.228-2.799,12.098-2.763,17.604,0.106c6.545,3.385,12.558,11.175,18.036,23.37
			c5.466,12.165,7.29,21.856,5.469,29.07c-1.509,5.95-5.378,10.324-11.608,13.123c-6.258,2.812-12.384,2.672-18.374-0.417
			c-5.992-3.088-11.76-10.804-17.307-23.145c-5.44-12.107-7.247-21.767-5.428-28.982
			C1798.297,596.255,1802.164,591.881,1808.393,589.083z M1812.985,599.304c-1.491,0.67-2.608,1.744-3.351,3.219
			c-0.741,1.475-0.884,3.587-0.423,6.331c0.583,3.569,2.57,9.125,5.959,16.67c3.39,7.545,6.1,12.557,8.13,15.037
			c2.026,2.481,3.828,3.93,5.404,4.346c1.578,0.418,3.11,0.291,4.601-0.379c1.493-0.67,2.608-1.743,3.353-3.219
			c0.741-1.475,0.884-3.587,0.422-6.332c-0.57-3.539-2.55-9.082-5.94-16.627c-3.389-7.545-6.098-12.556-8.125-15.038
			c-2.03-2.479-3.834-3.936-5.417-4.368C1816.015,598.515,1814.478,598.632,1812.985,599.304z"/>
	</g>
	<g>
		<path fill="#FFFFFF" d="M1894.215,628.129l-5.814-12.94l-26.319,11.825l-4.847-10.791l9.551-53.373l10.351-4.651l18.328,40.795
			l7.983-3.587l4.867,10.835l-7.983,3.587l5.814,12.94L1894.215,628.129z M1883.533,604.355l-9.874-21.977l-4.909,28.617
			L1883.533,604.355z"/>
	</g>
	<g>
		<path fill="#FFFFFF" d="M1847.59,674.351c6.524-2.02,12.345-1.27,17.46,2.247c6.085,4.157,11.106,12.621,15.061,25.392
			c3.945,12.741,4.575,22.582,1.891,29.52c-2.223,5.723-6.595,9.593-13.12,11.613c-6.554,2.03-12.617,1.146-18.19-2.65
			c-5.572-3.795-10.358-12.156-14.361-25.08c-3.926-12.679-4.546-22.487-1.864-29.429
			C1836.694,680.243,1841.066,676.37,1847.59,674.351z M1850.904,685.055c-1.562,0.483-2.802,1.413-3.718,2.785
			c-0.917,1.375-1.315,3.454-1.192,6.234c0.147,3.612,1.441,9.371,3.889,17.272c2.448,7.901,4.526,13.208,6.237,15.916
			c1.712,2.709,3.323,4.366,4.836,4.971c1.514,0.606,3.051,0.667,4.613,0.182c1.562-0.483,2.803-1.412,3.719-2.787
			c0.916-1.374,1.314-3.453,1.192-6.234c-0.136-3.583-1.427-9.325-3.874-17.226c-2.447-7.903-4.525-13.206-6.238-15.916
			c-1.71-2.71-3.325-4.374-4.842-4.995C1854.006,684.64,1852.467,684.572,1850.904,685.055z"/>
	</g>
	<g>
		<path fill="#FFFFFF" d="M1896.72,713.661l12.026-5.384c1.383,3.062,3.21,5.165,5.478,6.307c2.266,1.144,4.641,1.333,7.121,0.563
			c2.664-0.825,4.595-2.531,5.79-5.116c1.197-2.584,1.264-5.593,0.202-9.022c-1.005-3.246-2.675-5.548-5.007-6.906
			s-4.757-1.649-7.268-0.871c-1.654,0.513-3.529,1.445-5.627,2.799l-1.834-10.961c3.52-0.99,5.95-2.572,7.29-4.748
			c1.34-2.178,1.597-4.598,0.772-7.264c-0.7-2.267-1.936-3.864-3.7-4.794c-1.764-0.931-3.765-1.05-6.001-0.358
			c-2.205,0.683-3.85,2.032-4.939,4.046c-1.087,2.016-1.345,4.544-0.772,7.59l-12.524,1.664c-0.435-4.33-0.195-7.97,0.721-10.922
			c0.916-2.951,2.651-5.585,5.206-7.906c2.556-2.318,5.683-4.05,9.39-5.198c6.339-1.963,12.048-1.515,17.13,1.341
			c4.178,2.331,6.913,5.579,8.203,9.745c1.83,5.911,0.059,11.628-5.313,17.151c4.115-0.368,7.774,0.531,10.978,2.692
			c3.203,2.164,5.436,5.283,6.698,9.355c1.83,5.911,1.231,11.618-1.798,17.12c-3.028,5.502-7.758,9.248-14.191,11.241
			c-6.094,1.886-11.689,1.698-16.787-0.567C1902.863,722.993,1899.118,719.128,1896.72,713.661z"/>
	</g>
	<g>
		<path fill="#FFFFFF" d="M1876.314,765.942c6.684-1.398,12.406-0.106,17.171,3.877c5.667,4.709,9.871,13.607,12.608,26.692
			c2.73,13.054,2.435,22.909-0.891,29.564c-2.751,5.488-7.467,8.932-14.149,10.329c-6.716,1.405-12.668-0.044-17.859-4.346
			c-5.191-4.302-9.172-13.074-11.941-26.316c-2.717-12.992-2.415-22.814,0.911-29.471
			C1864.913,770.784,1869.631,767.34,1876.314,765.942z M1878.609,776.91c-1.601,0.335-2.923,1.144-3.964,2.426
			c-1.041,1.282-1.633,3.314-1.772,6.094c-0.195,3.61,0.556,9.464,2.249,17.559c1.693,8.095,3.263,13.573,4.714,16.43
			c1.449,2.858,2.898,4.659,4.349,5.404c1.449,0.746,2.974,0.949,4.574,0.616c1.6-0.336,2.922-1.144,3.964-2.425
			c1.041-1.282,1.632-3.314,1.77-6.095c0.201-3.579-0.545-9.417-2.238-17.514c-1.693-8.096-3.266-13.572-4.715-16.43
			c-1.448-2.857-2.901-4.666-4.354-5.427C1881.735,776.788,1880.208,776.575,1878.609,776.91z"/>
	</g>
	<g>
		<path fill="#FFFFFF" d="M1967.932,806.273l2.571,12.285l-46.364,9.698c-0.47-4.749,0.116-9.464,1.757-14.148
			c1.64-4.683,5.444-11.235,11.412-19.656c4.8-6.801,7.668-11.331,8.605-13.59c1.25-3.111,1.594-5.999,1.036-8.667
			c-0.617-2.948-1.884-5.052-3.799-6.305c-1.916-1.253-4.272-1.588-7.064-1.004c-2.763,0.578-4.784,1.869-6.068,3.874
			c-1.284,2.005-1.647,4.962-1.09,8.874l-13.455,1.439c-0.739-7.443,0.632-13.183,4.11-17.221c3.48-4.034,8.325-6.704,14.54-8.003
			c6.808-1.424,12.544-0.709,17.202,2.15c4.66,2.857,7.56,7.017,8.703,12.477c0.65,3.105,0.711,6.18,0.185,9.222
			c-0.528,3.042-1.678,6.353-3.45,9.934c-1.173,2.374-3.448,5.912-6.819,10.613c-3.372,4.702-5.485,7.797-6.336,9.284
			c-0.852,1.489-1.498,2.9-1.937,4.237L1967.932,806.273z"/>
	</g>
	<g>
		<path fill="#FFFFFF" d="M1895.069,859.153c6.78-0.821,12.371,0.958,16.776,5.333c5.246,5.177,8.671,14.403,10.277,27.674
			c1.603,13.241,0.463,23.035-3.419,29.382c-3.21,5.233-8.203,8.259-14.983,9.08c-6.812,0.824-12.618-1.129-17.422-5.86
			c-4.803-4.73-8.018-13.811-9.644-27.243c-1.595-13.177-0.449-22.938,3.431-29.287C1883.295,863,1888.29,859.973,1895.069,859.153z
			 M1896.415,870.276c-1.623,0.196-3.009,0.889-4.156,2.076c-1.149,1.191-1.911,3.163-2.287,5.921
			c-0.504,3.581-0.258,9.477,0.737,17.688c0.995,8.212,2.09,13.804,3.289,16.774c1.198,2.972,2.489,4.891,3.87,5.756
			c1.38,0.867,2.883,1.202,4.506,1.005c1.623-0.196,3.009-0.888,4.157-2.078c1.147-1.188,1.911-3.162,2.286-5.921
			c0.507-3.549,0.264-9.43-0.73-17.641c-0.995-8.211-2.092-13.803-3.29-16.774c-1.2-2.971-2.489-4.897-3.871-5.781
			C1899.541,870.423,1898.038,870.08,1896.415,870.276z"/>
	</g>
	<g>
		<path fill="#FFFFFF" d="M1973.426,920.972l-13.415,1.625l-6.12-50.558c-4.347,5.177-9.713,9.266-16.098,12.266l-1.474-12.174
			c3.361-1.57,6.902-4.202,10.62-7.898c3.72-3.696,6.084-7.767,7.094-12.218l10.886-1.318L1973.426,920.972z"/>
	</g>
</g>
</svg>
