<?xml version="1.0" encoding="utf-8"?>
<!-- Generator: Adobe Illustrator 17.0.0, SVG Export Plug-In . SVG Version: 6.00 Build 0)  -->
<!DOCTYPE svg PUBLIC "-//W3C//DTD SVG 1.1//EN" "http://www.w3.org/Graphics/SVG/1.1/DTD/svg11.dtd">
<svg version="1.1" id="Layer_1" xmlns="http://www.w3.org/2000/svg" xmlns:xlink="http://www.w3.org/1999/xlink" x="0px" y="0px"
	 width="2000px" height="2000px" viewBox="0 0 2000 2000" enable-background="new 0 0 2000 2000" xml:space="preserve">
<g opacity="0.1">
	<g>
		<path fill="#FFFFFF" d="M1904.232,951.855c6.829-0.007,12.17,2.425,16.021,7.294c4.59,5.766,6.892,15.334,6.905,28.702
			c0.013,13.337-2.285,22.926-6.897,28.763c-3.81,4.814-9.13,7.223-15.959,7.23c-6.861,0.007-12.394-2.625-16.599-7.894
			c-4.206-5.268-6.315-14.669-6.328-28.198c-0.014-13.273,2.286-22.829,6.896-28.669
			C1892.083,954.273,1897.402,951.862,1904.232,951.855z M1904.243,963.06c-1.635,0.001-3.094,0.524-4.375,1.567
			c-1.281,1.044-2.273,2.912-2.975,5.606c-0.928,3.496-1.386,9.378-1.378,17.65c0.008,8.272,0.43,13.954,1.267,17.047
			c0.836,3.094,1.888,5.151,3.156,6.175c1.267,1.025,2.719,1.536,4.353,1.534c1.635-0.001,3.094-0.524,4.375-1.567
			c1.281-1.043,2.273-2.911,2.975-5.606c0.927-3.464,1.387-9.332,1.379-17.602c-0.009-8.271-0.432-13.953-1.268-17.047
			c-0.837-3.092-1.889-5.159-3.155-6.201C1907.328,963.579,1905.877,963.058,1904.243,963.06z"/>
	</g>
	<g>
		<path fill="#FFFFFF" d="M1962.858,951.797c6.829-0.007,12.17,2.425,16.021,7.294c4.59,5.766,6.892,15.334,6.905,28.702
			c0.013,13.337-2.285,22.926-6.897,28.763c-3.81,4.814-9.13,7.223-15.958,7.23c-6.861,0.007-12.395-2.624-16.599-7.894
			c-4.205-5.268-6.315-14.669-6.328-28.198c-0.013-13.273,2.286-22.829,6.896-28.669
			C1950.709,954.214,1956.029,951.804,1962.858,951.797z M1962.869,963.002c-1.635,0.002-3.094,0.524-4.375,1.567
			c-1.281,1.044-2.273,2.912-2.975,5.606c-0.928,3.496-1.386,9.378-1.378,17.65s0.43,13.954,1.267,17.047
			c0.837,3.093,1.888,5.151,3.156,6.175c1.267,1.025,2.719,1.536,4.353,1.534c1.635-0.002,3.094-0.524,4.375-1.567
			c1.281-1.043,2.273-2.911,2.975-5.606c0.927-3.464,1.387-9.332,1.379-17.602c-0.009-8.271-0.432-13.953-1.268-17.047
			c-0.837-3.092-1.889-5.159-3.155-6.201C1965.955,963.52,1964.504,963.001,1962.869,963.002z"/>
	</g>
	<g>
		<path fill="#FFFFFF" d="M1877.993,1099.787l13.527-0.485c0.179,3.065,1.152,5.549,2.921,7.451
			c1.768,1.903,3.884,2.936,6.347,3.103c2.814,0.189,5.274-0.793,7.38-2.947c2.105-2.155,3.313-5.537,3.625-10.145
			c0.292-4.318-0.457-7.622-2.248-9.912c-1.789-2.289-4.235-3.539-7.337-3.748c-3.871-0.262-7.458,1.216-10.76,4.431l-10.832-2.321
			l9.378-36.144l35.651,2.405l-0.851,12.619l-25.432-1.714l-2.918,11.805c3.108-1.3,6.228-1.846,9.365-1.633
			c5.98,0.403,10.903,2.921,14.77,7.552c3.863,4.631,5.564,10.417,5.095,17.358c-0.39,5.79-2.42,10.843-6.085,15.158
			c-4.994,5.898-11.552,8.572-19.677,8.025c-6.494-0.438-11.67-2.54-15.529-6.302
			C1880.527,1110.578,1878.396,1105.727,1877.993,1099.787z"/>
	</g>
	<g>
		<path fill="#FFFFFF" d="M1936.464,1105.564l13.147-0.561c0.14,2.678,0.839,4.701,2.095,6.071c1.259,1.37,2.99,2.13,5.198,2.278
			c2.782,0.188,5.234-0.931,7.359-3.359c2.124-2.427,3.729-7.653,4.817-15.678c-3.656,3.707-8.027,5.388-13.114,5.044
			c-5.534-0.374-10.166-2.83-13.891-7.373c-3.727-4.541-5.358-10.234-4.896-17.08c0.481-7.134,2.987-12.739,7.521-16.821
			c4.532-4.079,10.077-5.9,16.635-5.456c7.134,0.481,12.801,3.635,17.003,9.462c4.202,5.827,5.877,15.057,5.024,27.693
			c-0.868,12.859-3.878,21.976-9.028,27.348c-5.15,5.374-11.549,7.8-19.193,7.285c-5.504-0.371-9.85-2.137-13.044-5.291
			C1938.909,1115.971,1937.03,1111.45,1936.464,1105.564z M1968.967,1078.16c0.293-4.35-0.478-7.792-2.315-10.326
			c-1.838-2.535-4.068-3.891-6.692-4.067c-2.495-0.169-4.634,0.676-6.412,2.531c-1.78,1.855-2.821,5.024-3.123,9.501
			c-0.308,4.542,0.363,7.937,2.012,10.186c1.647,2.248,3.816,3.463,6.502,3.644c2.591,0.174,4.844-0.703,6.757-2.63
			C1967.61,1085.075,1968.701,1082.126,1968.967,1078.16z"/>
	</g>
	<g>
		<path fill="#FFFFFF" d="M1861.478,1190.947l13.509,0.871c-0.129,3.069,0.592,5.635,2.158,7.705
			c1.568,2.069,3.568,3.311,6.002,3.723c2.781,0.471,5.329-0.261,7.64-2.194c2.311-1.934,3.85-5.177,4.621-9.729
			c0.722-4.268,0.307-7.63-1.243-10.088c-1.551-2.457-3.86-3.945-6.927-4.464c-3.824-0.647-7.54,0.464-11.146,3.333l-10.547-3.393
			l12.949-35.022l35.23,5.96l-2.11,12.471l-25.13-4.252l-4.085,11.452c3.223-0.982,6.383-1.211,9.482-0.687
			c5.911,1,10.557,3.998,13.939,8.991c3.381,4.993,4.492,10.921,3.332,17.779c-0.969,5.723-3.492,10.547-7.57,14.474
			c-5.557,5.367-12.351,7.371-20.38,6.012c-6.417-1.086-11.358-3.693-14.821-7.823
			C1862.917,1201.938,1861.282,1196.896,1861.478,1190.947z"/>
	</g>
	<g>
		<path fill="#FFFFFF" d="M1933.843,1182.999c-3.201-2.037-5.367-4.459-6.501-7.269c-1.135-2.81-1.445-5.731-0.932-8.766
			c0.878-5.185,3.411-9.16,7.603-11.932c4.191-2.77,9.623-3.59,16.292-2.462c6.605,1.118,11.449,3.676,14.528,7.676
			c3.078,4,4.179,8.594,3.301,13.776c-0.546,3.225-1.868,5.951-3.969,8.181s-4.78,3.751-8.04,4.566
			c3.595,2.202,6.143,4.958,7.648,8.268c1.505,3.312,1.929,6.91,1.271,10.798c-1.086,6.418-4.015,11.287-8.789,14.607
			c-4.773,3.323-10.558,4.408-17.353,3.259c-6.321-1.07-11.305-3.62-14.946-7.65c-4.299-4.759-5.87-10.553-4.715-17.381
			c0.636-3.76,2.152-7.056,4.55-9.886C1926.188,1185.955,1929.538,1184.029,1933.843,1182.999z M1932.591,1199.615
			c-0.621,3.667-0.164,6.687,1.369,9.059c1.533,2.374,3.706,3.796,6.52,4.273c2.749,0.465,5.193-0.137,7.329-1.808
			c2.137-1.671,3.52-4.371,4.151-8.102c0.55-3.255,0.075-6.025-1.422-8.311c-1.5-2.286-3.656-3.667-6.47-4.144
			c-3.257-0.551-5.873,0.161-7.849,2.135C1934.244,1194.693,1933.034,1196.991,1932.591,1199.615z M1938.862,1170.047
			c-0.449,2.656-0.049,4.852,1.202,6.591c1.25,1.74,3.122,2.821,5.62,3.242c2.528,0.428,4.679,0.02,6.45-1.224
			s2.883-3.195,3.331-5.85c0.423-2.496,0.011-4.623-1.236-6.379c-1.249-1.756-3.106-2.842-5.57-3.259
			c-2.56-0.433-4.728-0.019-6.5,1.239C1940.383,1165.67,1939.285,1167.55,1938.862,1170.047z"/>
	</g>
	<g>
		<path fill="#FFFFFF" d="M1837.058,1278.27l13.283,2.61c-0.524,3.026-0.142,5.665,1.145,7.921c1.287,2.256,3.111,3.744,5.474,4.468
			c2.696,0.827,5.316,0.429,7.858-1.189c2.542-1.62,4.486-4.637,5.839-9.052c1.267-4.138,1.291-7.526,0.07-10.163
			c-1.222-2.637-3.317-4.412-6.29-5.321c-3.711-1.136-7.538-0.513-11.484,1.864l-10.021-4.728l17.365-33.057l34.166,10.464
			l-3.703,12.094l-24.372-7.464l-5.529,10.831c3.323-0.559,6.487-0.377,9.492,0.543c5.731,1.755,9.95,5.328,12.661,10.717
			c2.707,5.39,3.041,11.411,1.004,18.062c-1.699,5.55-4.824,10.008-9.377,13.375c-6.206,4.605-13.201,5.713-20.988,3.33
			c-6.223-1.906-10.784-5.131-13.684-9.674C1837.064,1289.355,1836.096,1284.145,1837.058,1278.27z"/>
	</g>
	<g>
		<path fill="#FFFFFF" d="M1904.311,1258.228l3.676-12l44.191,13.533l-2.873,9.381c-4.747,2.47-10.032,6.484-15.859,12.043
			c-5.827,5.558-10.885,11.814-15.177,18.764c-4.292,6.952-7.332,13.404-9.124,19.361l-12.461-3.816
			c3.068-9.253,7.903-18.168,14.502-26.743c6.598-8.574,14.104-15.749,22.51-21.524L1904.311,1258.228z"/>
	</g>
	<g>
		<path fill="#FFFFFF" d="M1802.843,1366.22l12.989,3.812c-0.799,2.966-0.659,5.629,0.417,7.991
			c1.074,2.364,2.755,4.013,5.039,4.948c2.611,1.069,5.255,0.915,7.935-0.465c2.679-1.379,4.892-4.205,6.642-8.48
			c1.641-4.005,1.973-7.376,0.999-10.113c-0.976-2.738-2.901-4.696-5.778-5.875c-3.59-1.47-7.459-1.201-11.606,0.808l-9.546-5.625
			l20.314-31.33l33.065,13.541l-4.793,11.704l-23.586-9.66l-6.497,10.277c3.359-0.252,6.493,0.218,9.4,1.409
			c5.547,2.271,9.424,6.215,11.629,11.829c2.202,5.614,1.987,11.641-0.649,18.078c-2.199,5.369-5.719,9.524-10.559,12.459
			c-6.601,4.019-13.667,4.484-21.202,1.398c-6.023-2.468-10.271-6.094-12.743-10.883
			C1801.838,1377.259,1801.349,1371.983,1802.843,1366.22z"/>
	</g>
	<g>
		<path fill="#FFFFFF" d="M1912.588,1373.23l-12.651-3.621c0.725-2.614,0.706-4.768-0.054-6.466
			c-0.761-1.697-2.135-2.953-4.123-3.767c-2.64-1.081-5.357-0.809-8.154,0.817c-2.796,1.626-5.971,6.096-9.518,13.407
			c4.622-2.401,9.247-2.656,13.875-0.762c5.221,2.139,8.879,5.959,10.975,11.459c2.095,5.501,1.856,11.395-0.72,17.686
			c-2.733,6.676-6.885,11.229-12.454,13.659c-5.57,2.432-11.424,2.39-17.565-0.126c-6.586-2.697-10.951-7.473-13.099-14.328
			c-2.147-6.855-0.832-16.112,3.943-27.773c4.895-11.955,10.635-19.668,17.219-23.139c6.583-3.471,13.405-3.759,20.466-0.868
			c4.954,2.028,8.487,5.096,10.602,9.2C1913.44,1362.712,1913.86,1367.587,1912.588,1373.23z M1873.069,1388.902
			c-1.665,4.065-2.015,7.585-1.053,10.56c0.964,2.976,2.648,4.956,5.05,5.94c2.314,0.948,4.614,0.831,6.896-0.346
			c2.284-1.177,4.27-3.827,5.96-7.951c1.736-4.241,2.18-7.69,1.325-10.345c-0.854-2.652-2.525-4.49-5.018-5.512
			c-2.403-0.984-4.821-0.873-7.253,0.329C1876.544,1382.781,1874.575,1385.224,1873.069,1388.902z"/>
	</g>
	<g>
		<path fill="#FFFFFF" d="M1760.208,1446.779l12.42,5.382c-1.156,2.844-1.347,5.503-0.569,7.981s2.241,4.321,4.393,5.532
			c2.46,1.382,5.104,1.554,7.932,0.513c2.827-1.04,5.371-3.571,7.634-7.595c2.122-3.773,2.866-7.077,2.236-9.914
			c-0.632-2.837-2.303-5.018-5.014-6.54c-3.382-1.901-7.252-2.11-11.616-0.629l-8.779-6.756l24.014-28.59l31.145,17.506
			l-6.196,11.024l-22.217-12.488l-7.71,9.402c3.364,0.163,6.416,1.013,9.155,2.553c5.226,2.935,8.587,7.326,10.083,13.17
			c1.496,5.843,0.541,11.796-2.868,17.859c-2.843,5.059-6.846,8.748-12.012,11.067c-7.044,3.176-14.114,2.769-21.213-1.22
			c-5.673-3.189-9.443-7.311-11.307-12.368C1757.853,1457.61,1758.016,1452.315,1760.208,1446.779z"/>
	</g>
	<g>
		<path fill="#FFFFFF" d="M1811.313,1475.503l12.421,5.382c-1.157,2.843-1.348,5.503-0.57,7.981c0.777,2.478,2.241,4.321,4.395,5.53
			c2.459,1.382,5.101,1.554,7.931,0.513c2.827-1.04,5.373-3.571,7.635-7.595c2.12-3.773,2.865-7.079,2.235-9.915
			c-0.633-2.836-2.303-5.017-5.014-6.54c-3.381-1.899-7.254-2.109-11.617-0.629l-8.779-6.755l24.014-28.59l31.146,17.505
			l-6.196,11.025l-22.219-12.488l-7.711,9.402c3.365,0.163,6.416,1.014,9.155,2.554c5.226,2.935,8.587,7.325,10.085,13.169
			c1.495,5.842,0.54,11.796-2.868,17.859c-2.844,5.06-6.847,8.749-12.011,11.067c-7.044,3.176-14.115,2.769-21.213-1.22
			c-5.675-3.188-9.444-7.312-11.308-12.369C1808.959,1486.333,1809.121,1481.038,1811.313,1475.503z"/>
	</g>
	<g>
		<path fill="#FFFFFF" d="M1708.97,1524.224l11.866,6.515c-1.417,2.725-1.854,5.356-1.31,7.895c0.544,2.54,1.83,4.511,3.86,5.916
			c2.319,1.605,4.937,2.021,7.851,1.249c2.912-0.773,5.683-3.056,8.308-6.853c2.464-3.56,3.511-6.78,3.148-9.663
			c-0.364-2.883-1.825-5.21-4.382-6.979c-3.19-2.208-7.026-2.775-11.51-1.707l-8.112-7.543l26.572-26.236l29.383,20.33
			l-7.197,10.402l-20.96-14.501l-8.554,8.643c3.335,0.477,6.294,1.607,8.88,3.396c4.929,3.411,7.867,8.096,8.815,14.053
			c0.945,5.957-0.558,11.798-4.517,17.519c-3.303,4.773-7.632,8.072-12.99,9.901c-7.31,2.506-14.313,1.444-21.009-3.191
			c-5.352-3.702-8.721-8.158-10.107-13.367C1705.616,1534.791,1706.271,1529.532,1708.97,1524.224z"/>
	</g>
	<g>
		<path fill="#FFFFFF" d="M1768.499,1587.459l8.072-11.666l-23.728-16.418l6.732-9.729l50.627-19.416l9.333,6.458l-25.446,36.78
			l7.196,4.979l-6.758,9.769l-7.198-4.979l-8.072,11.666L1768.499,1587.459z M1783.33,1566.024l13.709-19.814l-27.036,10.592
			L1783.33,1566.024z"/>
	</g>
	<g>
		<path fill="#FFFFFF" d="M1651.097,1595.251l10.919,8.003c-1.76,2.517-2.534,5.069-2.326,7.656
			c0.208,2.589,1.228,4.712,3.057,6.368c2.092,1.893,4.631,2.646,7.619,2.26c2.988-0.388,6.031-2.292,9.129-5.716
			c2.905-3.209,4.364-6.266,4.379-9.171c0.014-2.906-1.131-5.403-3.437-7.49c-2.875-2.603-6.606-3.666-11.19-3.187l-7.063-8.536
			l29.757-22.555l26.49,23.978l-8.487,9.377l-18.896-17.104l-9.603,7.457c3.245,0.905,6.032,2.412,8.361,4.521
			c4.443,4.023,6.748,9.05,6.913,15.079c0.162,6.027-2.088,11.623-6.757,16.78c-3.894,4.302-8.618,7.012-14.168,8.127
			c-7.573,1.533-14.378-0.431-20.414-5.896c-4.827-4.369-7.587-9.222-8.285-14.568
			C1646.399,1605.291,1647.733,1600.162,1651.097,1595.251z"/>
	</g>
	<g>
		<path fill="#FFFFFF" d="M1694.452,1633.716l10.762,7.602c-1.929,2.751-2.808,5.394-2.635,7.926
			c0.171,2.535,1.219,4.673,3.144,6.415c2.067,1.872,4.519,2.663,7.354,2.374c2.833-0.288,5.455-1.764,7.865-4.426
			c2.279-2.519,3.41-5.128,3.389-7.829c-0.021-2.698-1.007-4.931-2.954-6.694c-1.284-1.163-3.045-2.3-5.279-3.415l8.495-7.163
			c2.647,2.523,5.245,3.807,7.801,3.85c2.555,0.043,4.769-0.969,6.642-3.038c1.592-1.757,2.337-3.635,2.238-5.628
			c-0.1-1.992-1.016-3.772-2.751-5.343c-1.711-1.55-3.711-2.278-5.998-2.187c-2.288,0.091-4.597,1.158-6.922,3.203l-7.815-9.927
			c3.504-2.581,6.758-4.231,9.765-4.947c3.004-0.717,6.156-0.567,9.453,0.45c3.296,1.016,6.381,2.826,9.258,5.429
			c4.919,4.454,7.446,9.593,7.576,15.42c0.124,4.783-1.277,8.792-4.202,12.024c-4.152,4.586-9.973,5.977-17.462,4.171
			c2.413,3.352,3.505,6.958,3.278,10.814c-0.226,3.859-1.772,7.369-4.634,10.53c-4.152,4.587-9.367,6.981-15.644,7.179
			c-6.277,0.199-11.912-1.961-16.903-6.478c-4.73-4.282-7.42-9.192-8.069-14.731
			C1689.554,1643.759,1690.97,1638.564,1694.452,1633.716z"/>
	</g>
	<g>
		<path fill="#FFFFFF" d="M1584.198,1660.059l10.292,8.793c-1.94,2.378-2.904,4.865-2.889,7.462
			c0.016,2.597,0.874,4.788,2.576,6.577c1.944,2.043,4.421,2.984,7.43,2.82c3.008-0.164,6.187-1.836,9.53-5.02
			c3.135-2.983,4.818-5.923,5.048-8.819c0.23-2.898-0.726-5.474-2.869-7.726c-2.673-2.81-6.316-4.147-10.92-4.012l-6.409-9.036
			l31.355-20.276l24.631,25.885l-9.162,8.718l-17.569-18.462l-10.134,6.721c3.169,1.144,5.836,2.854,8.002,5.132
			c4.132,4.342,6.056,9.527,5.771,15.551c-0.286,6.025-2.948,11.435-7.989,16.231c-4.204,4-9.113,6.351-14.732,7.05
			c-7.667,0.966-14.306-1.501-19.92-7.401c-4.484-4.715-6.876-9.763-7.176-15.143
			C1578.767,1669.719,1580.478,1664.706,1584.198,1660.059z"/>
	</g>
	<g>
		<path fill="#FFFFFF" d="M1651.898,1739.296l-9.093,8.652l-32.652-34.315c3.79-2.9,8.109-4.884,12.955-5.953
			c4.844-1.071,12.418-1.286,22.72-0.643c8.31,0.5,13.672,0.555,16.085,0.163c3.303-0.577,5.94-1.804,7.914-3.682
			c2.183-2.078,3.303-4.261,3.359-6.55c0.057-2.288-0.899-4.466-2.864-6.533c-1.945-2.045-4.108-3.086-6.487-3.121
			c-2.381-0.036-5.086,1.211-8.121,3.743l-8.305-10.682c5.939-4.546,11.542-6.402,16.804-5.569
			c5.264,0.834,10.083,3.549,14.458,8.148c4.796,5.04,7.205,10.292,7.229,15.758c0.023,5.465-1.986,10.121-6.027,13.966
			c-2.299,2.188-4.881,3.858-7.743,5.011c-2.865,1.154-6.284,1.92-10.262,2.297c-2.639,0.252-6.843,0.181-12.614-0.211
			c-5.773-0.392-9.518-0.559-11.231-0.5c-1.713,0.06-3.254,0.253-4.622,0.583L1651.898,1739.296z"/>
	</g>
	<g>
		<path fill="#FFFFFF" d="M1511.108,1719.807l9.629,9.516c-2.109,2.231-3.25,4.642-3.422,7.233c-0.173,2.59,0.525,4.84,2.091,6.746
			c1.792,2.18,4.193,3.297,7.208,3.352c3.012,0.054,6.302-1.383,9.868-4.317c3.344-2.747,5.234-5.561,5.675-8.431
			c0.442-2.872-0.328-5.509-2.302-7.912c-2.464-2.997-5.997-4.594-10.603-4.794l-5.737-9.477l32.742-17.952l22.69,27.601l-9.77,8.03
			l-16.186-19.687l-10.595,5.969c3.079,1.372,5.615,3.269,7.609,5.698c3.808,4.631,5.35,9.94,4.63,15.93
			c-0.723,5.987-3.77,11.192-9.143,15.609c-4.483,3.687-9.552,5.673-15.205,5.964c-7.718,0.407-14.16-2.533-19.331-8.823
			c-4.134-5.027-6.155-10.234-6.059-15.625C1504.988,1729.05,1507.059,1724.173,1511.108,1719.807z"/>
	</g>
	<g>
		<path fill="#FFFFFF" d="M1556.171,1803.17l-8.582-10.439l39.339-32.342c-6.702-0.882-13.035-3.208-18.997-6.98l9.471-7.787
			c3.132,1.99,7.255,3.56,12.37,4.71c5.115,1.149,9.82,0.954,14.116-0.587l6.963,8.471L1556.171,1803.17z"/>
	</g>
	<g>
		<path fill="#FFFFFF" d="M1435.995,1763.724l7.762,11.092c-2.476,1.815-4.031,3.983-4.668,6.501
			c-0.637,2.517-0.354,4.854,0.845,7.013c1.37,2.466,3.533,3.997,6.487,4.592c2.951,0.597,6.447-0.227,10.483-2.471
			c3.781-2.102,6.148-4.527,7.097-7.273c0.948-2.747,0.669-5.48-0.842-8.197c-1.886-3.392-5.073-5.599-9.57-6.621l-3.94-10.355
			l35.436-11.775l17.36,31.229l-11.055,6.146l-12.382-22.277l-11.493,3.969c2.779,1.9,4.935,4.225,6.461,6.972
			c2.912,5.239,3.476,10.74,1.691,16.501c-1.786,5.762-5.719,10.332-11.8,13.713c-5.071,2.819-10.415,3.864-16.029,3.134
			c-7.665-0.984-13.475-5.037-17.43-12.154c-3.162-5.688-4.213-11.175-3.153-16.459
			C1428.313,1771.716,1431.228,1767.291,1435.995,1763.724z"/>
	</g>
	<g>
		<path fill="#FFFFFF" d="M1521.509,1809.179c3.319,5.968,3.782,11.817,1.392,17.547c-2.818,6.811-10.067,13.464-21.751,19.96
			c-11.657,6.48-21.157,9.121-28.5,7.921c-6.058-1.001-10.743-4.481-14.061-10.45c-3.334-5.998-3.717-12.112-1.147-18.344
			c2.568-6.234,9.765-12.636,21.59-19.211c11.601-6.45,21.071-9.073,28.417-7.874
			C1513.503,1799.726,1518.191,1803.209,1521.509,1809.179z M1511.716,1814.622c-0.794-1.429-1.959-2.451-3.491-3.065
			c-1.535-0.615-3.648-0.576-6.346,0.115c-3.507,0.885-8.873,3.337-16.104,7.356c-7.229,4.019-11.993,7.145-14.292,9.376
			c-2.301,2.231-3.59,4.15-3.871,5.755s-0.023,3.123,0.771,4.552c0.794,1.429,1.957,2.45,3.491,3.065
			c1.534,0.615,3.648,0.576,6.346-0.115c3.478-0.869,8.831-3.315,16.06-7.333c7.23-4.02,11.993-7.144,14.294-9.374
			c2.298-2.232,3.596-4.154,3.89-5.769C1512.76,1817.572,1512.51,1816.051,1511.716,1814.622z"/>
	</g>
	<g>
		<path fill="#FFFFFF" d="M1347.308,1837.849l12.943-5.807l-11.814-26.327l10.794-4.843l53.37,9.577l4.646,10.354l-40.805,18.31
			l3.583,7.984l-10.837,4.863l-3.583-7.984l-12.943,5.809L1347.308,1837.849z M1371.088,1827.176l21.982-9.864l-28.617-4.923
			L1371.088,1827.176z"/>
	</g>
	<g>
		<path fill="#FFFFFF" d="M1375.453,1860.752l6.672,11.344c-2.298,1.382-3.755,2.949-4.374,4.703
			c-0.619,1.752-0.476,3.64,0.431,5.657c1.143,2.545,3.283,4.185,6.424,4.919c3.142,0.733,8.509-0.304,16.102-3.114
			c-4.988-1.486-8.526-4.554-10.613-9.206c-2.271-5.061-2.278-10.304-0.02-15.727c2.258-5.423,6.516-9.538,12.776-12.347
			c6.523-2.927,12.65-3.35,18.383-1.264c5.731,2.084,9.944,6.125,12.635,12.121c2.927,6.523,2.805,13.007-0.364,19.455
			c-3.169,6.446-10.531,12.262-22.085,17.448c-11.76,5.277-21.221,6.904-28.385,4.881c-7.162-2.022-12.312-6.529-15.448-13.519
			c-2.257-5.032-2.744-9.698-1.458-14C1367.416,1867.801,1370.522,1864.019,1375.453,1860.752z M1414.914,1876.569
			c3.978-1.785,6.655-4.083,8.028-6.897c1.373-2.812,1.523-5.419,0.446-7.816c-1.024-2.28-2.774-3.77-5.248-4.471
			c-2.474-0.701-5.76-0.13-9.855,1.707c-4.153,1.864-6.836,4.052-8.045,6.563c-1.212,2.511-1.265,4.994-0.162,7.452
			c1.063,2.368,2.895,3.944,5.495,4.728C1408.174,1878.619,1411.287,1878.197,1414.914,1876.569z"/>
	</g>
	<g>
		<path fill="#FFFFFF" d="M1257.913,1868.411l13.545-4.218l-8.579-27.55l11.297-3.518l51.843,15.89l3.375,10.836l-42.704,13.299
			l2.603,8.356l-11.342,3.533l-2.604-8.356l-13.545,4.218L1257.913,1868.411z M1282.8,1860.662l23.005-7.165l-27.822-8.309
			L1282.8,1860.662z"/>
	</g>
	<g>
		<path fill="#FFFFFF" d="M1307.234,1898.845c0.368-3.776,1.55-6.806,3.542-9.088c1.99-2.282,4.458-3.883,7.396-4.797
			c5.019-1.563,9.714-1.102,14.08,1.383c4.367,2.485,7.557,6.956,9.568,13.416c1.991,6.397,1.902,11.875-0.274,16.431
			c-2.174,4.556-5.77,7.615-10.791,9.178c-3.123,0.973-6.153,1.026-9.093,0.161c-2.939-0.865-5.508-2.565-7.709-5.104
			c-0.338,4.202-1.641,7.722-3.914,10.562c-2.272,2.84-5.29,4.845-9.055,6.017c-6.215,1.935-11.883,1.527-17.005-1.227
			c-5.123-2.754-8.708-7.421-10.757-14.002c-1.907-6.123-1.889-11.72,0.058-16.791c2.299-5.989,6.755-10.012,13.366-12.072
			c3.643-1.134,7.268-1.273,10.878-0.414C1301.135,1893.357,1304.37,1895.473,1307.234,1898.845z M1291.85,1905.246
			c-3.552,1.107-6.038,2.88-7.461,5.321c-1.423,2.439-1.709,5.023-0.861,7.748c0.829,2.662,2.472,4.568,4.928,5.718
			c2.457,1.149,5.491,1.16,9.104,0.036c3.153-0.982,5.409-2.658,6.77-5.029c1.358-2.373,1.616-4.919,0.768-7.644
			c-0.982-3.153-2.801-5.164-5.455-6.034C1296.987,1904.494,1294.391,1904.455,1291.85,1905.246z M1321.057,1897.462
			c-2.571,0.8-4.352,2.15-5.335,4.054c-0.987,1.901-1.103,4.062-0.348,6.48c0.762,2.448,2.1,4.181,4.011,5.197
			c1.911,1.016,4.153,1.125,6.726,0.323c2.417-0.753,4.127-2.083,5.129-3.989c1.001-1.907,1.131-4.054,0.387-6.441
			c-0.773-2.48-2.121-4.226-4.048-5.236C1325.648,1896.838,1323.474,1896.708,1321.057,1897.462z"/>
	</g>
	<g>
		<path fill="#FFFFFF" d="M1163.726,1891.272l13.829-3.158l-6.422-28.13l11.534-2.633l50.455,19.852l2.526,11.063l-43.601,9.954
			l1.948,8.532l-11.579,2.643l-1.947-8.533l-13.829,3.158L1163.726,1891.272z M1189.134,1885.472l23.489-5.362l-27.095-10.438
			L1189.134,1885.472z"/>
	</g>
	<g>
		<path fill="#FFFFFF" d="M1226.431,1909.91l12.235-2.793l10.287,45.054l-9.564,2.184c-4.506-2.885-10.619-5.468-18.343-7.749
			c-7.722-2.281-15.665-3.549-23.831-3.808c-8.164-0.257-15.275,0.322-21.331,1.738l-2.9-12.704
			c9.549-1.95,19.686-2.202,30.408-0.754c10.722,1.45,20.682,4.379,29.877,8.79L1226.431,1909.91z"/>
	</g>
	<g>
		<path fill="#FFFFFF" d="M1070.194,1903.966l14.119-1.38l-2.808-28.718l11.773-1.151l47.538,26.086l1.105,11.295l-44.513,4.351
			l0.852,8.712l-11.823,1.156l-0.852-8.712l-14.119,1.38L1070.194,1903.966z M1096.138,1901.431l23.977-2.343l-25.555-13.787
			L1096.138,1901.431z"/>
	</g>
	<g>
		<path fill="#FFFFFF" d="M1130.759,1976.335l-2.709-12.878c2.65-0.581,4.546-1.605,5.693-3.068
			c1.145-1.466,1.613-3.267,1.405-5.404c-0.277-2.841-1.789-5.115-4.533-6.829c-2.745-1.712-8.179-2.43-16.302-2.151
			c4.283,2.963,6.67,6.933,7.158,11.911c0.549,5.614-1.12,10.635-5.004,15.057c-3.885,4.423-9.21,6.966-15.973,7.627
			c-7.18,0.701-13.146-0.841-17.898-4.629s-7.449-8.984-8.094-15.589c-0.693-7.084,1.491-13.178,6.549-18.278
			c5.057-5.103,13.856-8.266,26.397-9.491c12.858-1.257,22.361,0.213,28.506,4.414c6.144,4.199,9.589,10.095,10.33,17.69
			c0.521,5.329-0.54,9.885-3.181,13.672C1140.46,1972.174,1136.344,1974.822,1130.759,1976.335z M1098.439,1948.714
			c-4.373,0.428-7.648,1.762-9.828,4.005c-2.182,2.242-3.145,4.656-2.892,7.241c0.244,2.489,1.419,4.467,3.527,5.935
			c2.109,1.47,5.381,1.987,9.817,1.553c4.562-0.446,7.816-1.666,9.765-3.661c1.947-1.994,2.79-4.331,2.529-7.011
			c-0.253-2.585-1.481-4.672-3.681-6.261C1105.474,1948.928,1102.395,1948.328,1098.439,1948.714z"/>
	</g>
	<g>
		<path fill="#FFFFFF" d="M975.842,1906.32l14.184-0.168l-0.343-28.85l11.829-0.141l45.13,30.049l0.135,11.348l-44.72,0.531
			l0.105,8.752l-11.877,0.142l-0.105-8.752l-14.184,0.168L975.842,1906.32z M1001.902,1906.01l24.09-0.287l-24.284-15.917
			L1001.902,1906.01z"/>
	</g>
	<g>
		<path fill="#FFFFFF" d="M994.353,1938.424l1.556,13.448c-3.041,0.421-5.439,1.587-7.195,3.5c-1.757,1.912-2.621,4.103-2.591,6.571
			c0.033,2.82,1.208,5.195,3.524,7.124c2.315,1.928,5.78,2.864,10.396,2.809c4.328-0.051,7.562-1.061,9.702-3.025
			c2.141-1.967,3.192-4.504,3.155-7.612c-0.046-3.88-1.802-7.336-5.269-10.372l1.456-10.983l36.771,6.487l0.426,35.727
			l-12.646,0.151l-0.304-25.485l-11.997-1.973c1.542,2.994,2.332,6.063,2.37,9.206c0.071,5.995-2.049,11.101-6.359,15.321
			c-4.31,4.219-9.943,6.371-16.899,6.453c-5.803,0.069-10.999-1.552-15.592-4.865c-6.274-4.512-9.459-10.837-9.555-18.978
			c-0.078-6.508,1.606-11.834,5.051-15.979C983.799,1941.803,988.466,1939.296,994.353,1938.424z"/>
	</g>
	<g>
		<path fill="#FFFFFF" d="M880.84,1899.092l14.115,1.421l2.888-28.71l11.772,1.185l41.486,34.914l-1.136,11.292l-44.5-4.477
			l-0.877,8.708l-11.819-1.189l0.876-8.708l-14.115-1.421L880.84,1899.092z M906.774,1901.701l23.973,2.413l-22.349-18.538
			L906.774,1901.701z"/>
	</g>
	<g>
		<path fill="#FFFFFF" d="M874.97,1957.426l14.115,1.421l2.89-28.709l11.772,1.183l41.485,34.914l-1.136,11.293l-44.5-4.477
			l-0.876,8.708l-11.819-1.188l0.877-8.708l-14.115-1.421L874.97,1957.426z M900.905,1960.036l23.972,2.413l-22.349-18.538
			L900.905,1960.036z"/>
	</g>
	<g>
		<path fill="#FFFFFF" d="M787.726,1879.033l13.828,3.172l6.45-28.125l11.531,2.644l36.803,39.819l-2.536,11.062l-43.593-9.997
			l-1.956,8.531l-11.579-2.655l1.956-8.531l-13.827-3.171L787.726,1879.033z M813.131,1884.859l23.484,5.385l-19.862-21.183
			L813.131,1884.859z"/>
	</g>
	<g>
		<path fill="#FFFFFF" d="M798.886,1914.064l-1.378,13.105c-3.343-0.34-6.078,0.185-8.205,1.571
			c-2.127,1.388-3.481,3.346-4.061,5.877c-0.623,2.72-0.118,5.245,1.518,7.577c1.638,2.331,4.205,3.899,7.705,4.702
			c3.313,0.759,6.142,0.471,8.487-0.865c2.346-1.338,3.812-3.286,4.399-5.849c0.388-1.688,0.523-3.779,0.404-6.272l10.399,3.916
			c-0.911,3.541-0.761,6.437,0.449,8.688c1.21,2.252,3.175,3.689,5.894,4.312c2.313,0.529,4.313,0.266,6.004-0.794
			c1.69-1.061,2.798-2.731,3.32-5.012c0.516-2.25,0.176-4.351-1.022-6.303c-1.199-1.951-3.256-3.444-6.178-4.476l4.846-11.667
			c3.962,1.797,6.991,3.831,9.085,6.104c2.094,2.272,3.503,5.096,4.226,8.469c0.722,3.373,0.651,6.949-0.218,10.732
			c-1.482,6.469-4.733,11.183-9.755,14.144c-4.113,2.444-8.295,3.179-12.544,2.204c-6.031-1.384-10.088-5.785-12.169-13.202
			c-1.747,3.745-4.36,6.458-7.837,8.145c-3.48,1.685-7.297,2.052-11.452,1.099c-6.033-1.383-10.668-4.765-13.906-10.146
			c-3.239-5.381-4.107-11.351-2.602-17.914c1.427-6.22,4.397-10.966,8.914-14.238
			C787.73,1914.695,792.953,1913.395,798.886,1914.064z"/>
	</g>
	<g>
		<path fill="#FFFFFF" d="M696.953,1852.132l13.403,4.645l9.449-27.261l11.177,3.874l32.286,43.559l-3.717,10.724l-42.256-14.646
			l-2.866,8.269l-11.223-3.889l2.866-8.269l-13.403-4.646L696.953,1852.132z M721.578,1860.666l22.765,7.89l-17.459-23.203
			L721.578,1860.666z"/>
	</g>
	<g>
		<path fill="#FFFFFF" d="M683.345,1929.719l-11.858-4.109l15.512-44.755c4.315,2.039,8.06,4.965,11.234,8.779
			c3.174,3.813,6.838,10.445,10.996,19.893c3.365,7.613,5.779,12.401,7.236,14.367c2.026,2.669,4.326,4.451,6.902,5.344
			c2.847,0.987,5.301,0.98,7.36-0.02c2.061-1,3.558-2.848,4.492-5.541c0.923-2.667,0.855-5.065-0.204-7.197
			c-1.059-2.132-3.41-3.963-7.052-5.497l5.681-12.282c6.764,3.194,10.984,7.319,12.658,12.378
			c1.673,5.058,1.471,10.588-0.608,16.585c-2.278,6.573-5.84,11.123-10.685,13.651c-4.847,2.526-9.904,2.878-15.175,1.051
			c-2.999-1.039-5.668-2.566-8.005-4.581c-2.34-2.016-4.588-4.703-6.747-8.065c-1.435-2.227-3.301-5.996-5.6-11.306
			c-2.301-5.311-3.868-8.713-4.707-10.209c-0.838-1.495-1.719-2.776-2.639-3.839L683.345,1929.719z"/>
	</g>
	<g>
		<path fill="#FFFFFF" d="M610.183,1813.992l12.737,6.242l12.696-25.909l10.623,5.206l26.745,47.164l-4.994,10.191l-40.16-19.679
			l-3.85,7.859l-10.667-5.227l3.851-7.857l-12.738-6.243L610.183,1813.992z M633.587,1825.461l21.634,10.601l-14.504-25.154
			L633.587,1825.461z"/>
	</g>
	<g>
		<path fill="#FFFFFF" d="M580.83,1873.892l5.945-12.135l45.729,22.409c-1.973-6.465-2.478-13.191-1.516-20.182l11.011,5.396
			c-0.516,3.675-0.237,8.077,0.836,13.209c1.074,5.132,3.2,9.332,6.381,12.605l-4.824,9.846L580.83,1873.892z"/>
	</g>
	<g>
		<path fill="#FFFFFF" d="M524.564,1773.456l12.14,7.342l14.931-24.691l10.123,6.122l22.486,49.339l-5.873,9.712l-38.27-23.143
			l-4.529,7.49l-10.164-6.146l4.529-7.49l-12.14-7.34L524.564,1773.456z M546.868,1786.943l20.616,12.467l-12.231-26.336
			L546.868,1786.943z"/>
	</g>
	<g>
		<path fill="#FFFFFF" d="M556.695,1857.126c-3.533,5.844-8.382,9.15-14.542,9.921c-7.31,0.938-16.686-2.053-28.126-8.972
			c-11.412-6.901-18.42-13.837-21.024-20.806c-2.142-5.754-1.445-11.552,2.088-17.395c3.551-5.87,8.668-9.239,15.354-10.104
			c6.685-0.864,15.816,2.202,27.394,9.203c11.359,6.869,18.337,13.788,20.943,20.758
			C560.925,1845.484,560.228,1851.283,556.695,1857.126z M547.107,1851.328c0.846-1.398,1.154-2.917,0.927-4.553
			c-0.228-1.638-1.312-3.454-3.253-5.451c-2.509-2.604-7.302-6.045-14.38-10.326c-7.078-4.281-12.156-6.865-15.236-7.752
			c-3.079-0.888-5.385-1.056-6.917-0.502c-1.532,0.553-2.724,1.528-3.568,2.928c-0.846,1.399-1.156,2.917-0.929,4.554
			c0.227,1.637,1.312,3.453,3.251,5.45c2.483,2.588,7.262,6.022,14.339,10.302c7.079,4.28,12.156,6.863,15.236,7.751
			c3.08,0.888,5.394,1.058,6.939,0.514C545.062,1853.697,546.262,1852.727,547.107,1851.328z"/>
	</g>
	<g>
		<path fill="#FFFFFF" d="M477.233,1710.087l-6.637,11.382c-2.91-1.684-5.618-2.328-8.126-1.937
			c-2.51,0.391-4.548,1.621-6.117,3.693c-1.684,2.223-2.262,4.733-1.726,7.531c0.535,2.799,2.233,5.282,5.094,7.452
			c2.708,2.052,5.405,2.951,8.095,2.694c2.688-0.255,4.824-1.431,6.414-3.526c1.047-1.38,2.027-3.232,2.943-5.554l7.875,7.841
			c-2.284,2.855-3.337,5.556-3.157,8.108c0.179,2.548,1.38,4.667,3.603,6.351c1.89,1.432,3.824,2.014,5.801,1.743
			c1.976-0.273,3.673-1.342,5.085-3.206c1.394-1.84,1.947-3.895,1.658-6.166c-0.29-2.272-1.554-4.478-3.794-6.618l9.21-8.647
			c2.875,3.265,4.8,6.365,5.775,9.297c0.976,2.931,1.1,6.083,0.374,9.456c-0.726,3.372-2.26,6.605-4.603,9.695
			c-4.01,5.289-8.91,8.251-14.703,8.889c-4.755,0.539-8.869-0.507-12.344-3.141c-4.931-3.737-6.822-9.417-5.673-17.033
			c-3.13,2.696-6.628,4.097-10.491,4.206c-3.864,0.109-7.495-1.126-10.894-3.7c-4.931-3.738-7.769-8.727-8.511-14.962
			c-0.744-6.236,0.918-12.036,4.985-17.401c3.854-5.085,8.512-8.192,13.975-9.321C466.801,1706.08,472.098,1707.04,477.233,1710.087
			z"/>
	</g>
	<g>
		<path fill="#FFFFFF" d="M439.434,1755.968l-6.754,11.295c-2.314-1.352-4.389-1.879-6.225-1.58
			c-1.835,0.299-3.421,1.328-4.756,3.092c-1.686,2.223-2.097,4.888-1.234,7.996c0.862,3.106,4.35,7.318,10.458,12.635
			c-1.09-5.091-0.096-9.667,2.985-13.73c3.351-4.419,7.946-6.942,13.787-7.561c5.843-0.621,11.495,1.141,16.963,5.286
			c5.696,4.318,9.006,9.492,9.929,15.521c0.92,6.028-0.604,11.661-4.575,16.899c-4.318,5.697-10.065,8.702-17.243,9.015
			c-7.178,0.312-15.812-3.356-25.902-11.007c-10.272-7.786-16.238-15.307-17.899-22.559c-1.661-7.256-0.178-13.936,4.451-20.041
			c3.332-4.394,7.192-7.059,11.583-7.995C429.391,1752.298,434.202,1753.209,439.434,1755.968z M444.486,1798.179
			c3.474,2.634,6.775,3.878,9.901,3.734c3.127-0.144,5.484-1.264,7.071-3.359c1.511-1.994,1.98-4.242,1.407-6.749
			c-0.574-2.507-2.65-5.117-6.227-7.828c-3.628-2.75-6.834-4.055-9.617-3.91c-2.784,0.142-4.988,1.287-6.615,3.432
			c-1.568,2.069-2.074,4.434-1.513,7.091C439.453,1793.248,441.318,1795.777,444.486,1798.179z"/>
	</g>
	<g>
		<path fill="#FFFFFF" d="M406.302,1650.212l-7.522,10.818c-2.766-1.909-5.415-2.767-7.947-2.578
			c-2.532,0.189-4.662,1.254-6.391,3.193c-1.857,2.081-2.631,4.537-2.322,7.37c0.311,2.832,1.804,5.442,4.484,7.833
			c2.536,2.262,5.155,3.373,7.854,3.333c2.701-0.04,4.926-1.042,6.675-3.004c1.153-1.292,2.278-3.06,3.376-5.303l7.227,8.444
			c-2.505,2.665-3.769,5.274-3.796,7.83c-0.023,2.555,1.005,4.761,3.086,6.618c1.771,1.579,3.65,2.31,5.643,2.198
			c1.992-0.114,3.767-1.044,5.324-2.789c1.536-1.725,2.252-3.729,2.144-6.016s-1.193-4.587-3.255-6.899l9.87-7.886
			c2.606,3.485,4.278,6.726,5.017,9.725c0.739,3.001,0.612,6.154-0.38,9.458c-0.993,3.304-2.779,6.402-5.362,9.297
			c-4.417,4.952-9.538,7.516-15.365,7.69c-4.781,0.159-8.8-1.214-12.053-4.116c-4.618-4.119-6.05-9.93-4.298-17.432
			c-3.335,2.438-6.934,3.556-10.794,3.357c-3.859-0.2-7.381-1.72-10.564-4.556c-4.617-4.12-7.049-9.317-7.293-15.593
			c-0.245-6.275,1.873-11.926,6.355-16.95c4.246-4.763,9.137-7.488,14.673-8.177
			C396.223,1645.388,401.428,1646.766,406.302,1650.212z"/>
	</g>
	<g>
		<path fill="#FFFFFF" d="M373.667,1715.839c3.426-1.625,6.631-2.171,9.614-1.638c2.982,0.533,5.622,1.825,7.92,3.873
			c3.923,3.5,5.944,7.762,6.061,12.784c0.116,5.022-2.078,10.059-6.581,15.108c-4.46,4.999-9.202,7.74-14.227,8.22
			c-5.025,0.48-9.499-1.031-13.422-4.53c-2.44-2.177-4.047-4.747-4.818-7.711c-0.772-2.966-0.635-6.045,0.409-9.238
			c-3.776,1.873-7.466,2.567-11.068,2.08c-3.604-0.487-6.878-2.044-9.82-4.668c-4.859-4.333-7.423-9.404-7.698-15.211
			c-0.275-5.81,1.882-11.285,6.47-16.428c4.269-4.786,9.078-7.65,14.429-8.59c6.317-1.111,12.06,0.64,17.227,5.251
			c2.848,2.539,4.833,5.575,5.953,9.111C375.234,1707.786,375.086,1711.648,373.667,1715.839z M360.262,1705.944
			c-2.776-2.477-5.575-3.695-8.399-3.659c-2.825,0.034-5.187,1.12-7.087,3.248c-1.856,2.082-2.645,4.472-2.367,7.169
			c0.279,2.697,1.83,5.306,4.653,7.824c2.465,2.198,5.064,3.27,7.796,3.217c2.733-0.054,5.05-1.146,6.95-3.275
			c2.198-2.465,2.986-5.06,2.365-7.781C363.551,1709.962,362.248,1707.715,360.262,1705.944z M381.968,1726.981
			c-2.008-1.792-4.083-2.622-6.223-2.489c-2.137,0.133-4.05,1.145-5.735,3.036c-1.707,1.913-2.506,3.952-2.392,6.114
			c0.111,2.162,1.173,4.139,3.183,5.932c1.89,1.687,3.909,2.467,6.06,2.345c2.15-0.124,4.058-1.117,5.722-2.984
			c1.728-1.939,2.531-3.994,2.407-6.165C384.864,1730.596,383.856,1728.666,381.968,1726.981z"/>
	</g>
	<g>
		<path fill="#FFFFFF" d="M341.082,1585.55l-8.862,9.752c-2.496-2.252-5.012-3.446-7.547-3.587
			c-2.535-0.141-4.786,0.639-6.752,2.337c-2.112,1.824-3.196,4.159-3.257,7.009c-0.06,2.846,1.083,5.631,3.431,8.348
			c2.222,2.572,4.673,4.012,7.356,4.322c2.684,0.309,5.019-0.395,7.008-2.114c1.311-1.132,2.655-2.737,4.035-4.819l6.071,9.309
			c-2.829,2.315-4.42,4.74-4.775,7.271c-0.356,2.531,0.379,4.852,2.202,6.963c1.551,1.795,3.322,2.766,5.311,2.912
			c1.991,0.144,3.872-0.548,5.643-2.077c1.746-1.509,2.714-3.405,2.903-5.687c0.188-2.282-0.588-4.702-2.333-7.262l10.808-6.542
			c2.132,3.792,3.371,7.223,3.715,10.295c0.344,3.071-0.19,6.18-1.601,9.327c-1.412,3.147-3.587,5.988-6.523,8.524
			c-5.021,4.339-10.432,6.218-16.23,5.635c-4.764-0.462-8.57-2.342-11.42-5.641c-4.045-4.683-4.713-10.631-2.003-17.842
			c-3.623,1.984-7.336,2.629-11.138,1.932c-3.803-0.699-7.098-2.661-9.884-5.888c-4.046-4.682-5.783-10.15-5.212-16.405
			c0.571-6.255,3.404-11.584,8.498-15.985c4.829-4.171,10.031-6.24,15.609-6.208C331.713,1579.463,336.693,1581.501,341.082,1585.55
			z"/>
	</g>
	<g>
		<path fill="#FFFFFF" d="M321.377,1653.16l8.205,9.498l-34.974,30.212l-6.412-7.423c0.435-5.332-0.15-11.945-1.757-19.836
			c-1.606-7.891-4.209-15.504-7.81-22.835c-3.604-7.333-7.449-13.342-11.539-18.026l9.863-8.521
			c6.201,7.522,11.176,16.36,14.924,26.51c3.748,10.15,5.83,20.321,6.246,30.513L321.377,1653.16z"/>
	</g>
	<g>
		<path fill="#FFFFFF" d="M282.401,1513.886l-9.68,8.942c-2.288-2.461-4.692-3.87-7.203-4.231c-2.514-0.36-4.823,0.218-6.93,1.737
			c-2.263,1.632-3.547,3.865-3.857,6.696c-0.308,2.832,0.588,5.704,2.689,8.616c1.987,2.755,4.304,4.404,6.949,4.947
			c2.646,0.542,5.033,0.045,7.164-1.493c1.404-1.014,2.885-2.495,4.441-4.447l5.235,9.802c-3.019,2.062-4.816,4.336-5.393,6.826
			c-0.575,2.491-0.046,4.866,1.586,7.128c1.387,1.925,3.066,3.044,5.034,3.364c1.969,0.317,3.904-0.207,5.801-1.576
			c1.871-1.351,3.001-3.155,3.391-5.411c0.388-2.256-0.176-4.736-1.69-7.437l11.339-5.572c1.793,3.964,2.726,7.491,2.801,10.58
			c0.073,3.089-0.73,6.138-2.411,9.15c-1.682,3.013-4.095,5.654-7.24,7.923c-5.383,3.883-10.935,5.282-16.662,4.195
			c-4.704-0.877-8.331-3.083-10.883-6.617c-3.62-5.017-3.766-11.001-0.437-17.949c-3.784,1.661-7.537,1.978-11.263,0.951
			c-3.728-1.028-6.838-3.271-9.333-6.728c-3.62-5.017-4.872-10.618-3.758-16.797c1.114-6.181,4.402-11.24,9.861-15.18
			c5.174-3.734,10.537-5.34,16.091-4.82C273.599,1507.004,278.385,1509.471,282.401,1513.886z"/>
	</g>
	<g>
		<path fill="#FFFFFF" d="M217.546,1603.257l9.764-8.823c1.836,1.997,3.675,3.12,5.518,3.373c1.843,0.253,3.636-0.249,5.377-1.506
			c2.314-1.671,3.519-4.121,3.618-7.355s-2.018-8.291-6.347-15.168c-0.404,5.193-2.634,9.253-6.689,12.181
			c-4.576,3.301-9.751,4.386-15.528,3.256c-5.776-1.131-10.653-4.449-14.63-9.961c-4.221-5.849-5.89-11.781-5.009-17.792
			c0.881-6.013,4.011-10.959,9.394-14.842c5.772-4.165,12.135-5.346,19.088-3.543c6.953,1.802,14.116,7.812,21.489,18.029
			c7.559,10.477,11.072,19.427,10.538,26.849c-0.534,7.422-3.896,13.367-10.084,17.831c-4.342,3.132-8.812,4.51-13.413,4.133
			C226.025,1609.543,221.666,1607.321,217.546,1603.257z M225.14,1561.429c-2.57-3.562-5.372-5.722-8.407-6.476
			c-3.034-0.754-5.605-0.373-7.711,1.147c-2.028,1.463-3.146,3.477-3.353,6.036c-0.207,2.56,0.992,5.649,3.601,9.264
			c2.683,3.717,5.374,5.915,8.078,6.594c2.704,0.678,5.146,0.229,7.33-1.345c2.105-1.521,3.292-3.632,3.557-6.332
			C228.497,1567.615,227.466,1564.652,225.14,1561.429z"/>
	</g>
	<g>
		<path fill="#FFFFFF" d="M233.365,1436.132l-10.473,7.993c-2.049-2.664-4.308-4.293-6.776-4.887
			c-2.469-0.595-4.823-0.234-7.062,1.081c-2.406,1.412-3.894,3.513-4.467,6.306c-0.572,2.789,0.05,5.733,1.869,8.829
			c1.721,2.929,3.874,4.789,6.455,5.577c2.581,0.787,5.008,0.516,7.273-0.816c1.493-0.877,3.105-2.215,4.838-4.013l4.293,10.252
			c-3.202,1.768-5.203,3.865-6.009,6.29c-0.806,2.426-0.504,4.841,0.909,7.246c1.201,2.045,2.769,3.318,4.698,3.822
			c1.933,0.5,3.906,0.158,5.923-1.026c1.991-1.169,3.284-2.859,3.883-5.068c0.597-2.212,0.269-4.732-0.985-7.563l11.809-4.487
			c1.412,4.114,2.014,7.714,1.798,10.797c-0.216,3.081-1.303,6.044-3.258,8.886c-1.956,2.839-4.605,5.244-7.95,7.209
			c-5.722,3.361-11.383,4.232-16.982,2.614c-4.601-1.313-8.007-3.848-10.214-7.608c-3.134-5.335-2.719-11.306,1.246-17.911
			c-3.921,1.301-7.688,1.264-11.303-0.109c-3.613-1.371-6.5-3.896-8.659-7.572c-3.135-5.336-3.858-11.027-2.168-17.077
			c1.689-6.05,5.436-10.778,11.241-14.189c5.501-3.233,10.991-4.33,16.472-3.291C225.249,1428.454,229.78,1431.359,233.365,1436.132
			z"/>
	</g>
	<g>
		<path fill="#FFFFFF" d="M181.944,1465.673l-10.903,8.024c-1.875-2.431-4.077-3.934-6.61-4.511
			c-2.531-0.577-4.862-0.24-6.991,1.012c-2.432,1.428-3.911,3.626-4.437,6.593c-0.524,2.966,0.381,6.44,2.721,10.423
			c2.191,3.731,4.672,6.039,7.441,6.922c2.77,0.883,5.495,0.538,8.175-1.037c3.346-1.965,5.475-5.205,6.39-9.724l10.257-4.186
			l12.617,35.143l-30.807,18.1l-6.407-10.904l21.975-12.911l-4.242-11.396c-1.835,2.826-4.106,5.034-6.816,6.626
			c-5.169,3.037-10.654,3.732-16.457,2.083c-5.803-1.648-10.466-5.471-13.991-11.469c-2.939-5.003-4.112-10.32-3.515-15.95
			c0.805-7.686,4.715-13.59,11.735-17.714c5.612-3.297,11.071-4.479,16.379-3.545
			C173.771,1458.186,178.265,1460.993,181.944,1465.673z"/>
	</g>
	<g>
		<path fill="#FFFFFF" d="M191.915,1354.347l-11.428,6.56c-1.682-2.91-3.71-4.819-6.08-5.73c-2.369-0.913-4.75-0.861-7.141,0.151
			c-2.569,1.087-4.319,2.976-5.251,5.668c-0.932,2.691-0.698,5.691,0.701,8.998c1.323,3.129,3.214,5.254,5.672,6.373
			c2.457,1.118,4.897,1.166,7.317,0.141c1.595-0.674,3.368-1.791,5.319-3.348l2.919,10.722c-3.403,1.337-5.663,3.153-6.778,5.454
			c-1.117,2.299-1.13,4.733-0.044,7.303c0.924,2.184,2.311,3.651,4.161,4.401c1.85,0.748,3.851,0.668,6.006-0.244
			c2.127-0.899,3.63-2.407,4.51-4.52c0.881-2.115,0.885-4.656,0.011-7.628l12.295-2.905c0.863,4.263,0.989,7.911,0.372,10.938
			c-0.615,3.029-2.079,5.823-4.388,8.384c-2.31,2.563-5.252,4.599-8.824,6.111c-6.11,2.586-11.837,2.711-17.177,0.376
			c-4.39-1.902-7.436-4.86-9.135-8.876c-2.411-5.699-1.219-11.562,3.572-17.595c-4.058,0.777-7.787,0.25-11.191-1.582
			c-3.403-1.831-5.937-4.712-7.598-8.639c-2.411-5.698-2.386-11.436,0.079-17.213c2.464-5.777,6.796-9.978,12.996-12.601
			c5.876-2.485,11.462-2.858,16.761-1.115C184.869,1345.673,188.984,1349.147,191.915,1354.347z"/>
	</g>
	<g>
		<path fill="#FFFFFF" d="M105.79,1370.481l5.529,13.065l26.572-11.246l4.61,10.893l-10.718,53.152l-10.452,4.422l-17.429-41.185
			l-8.059,3.411l-4.628-10.939l8.06-3.41l-5.529-13.065L105.79,1370.481z M115.949,1394.485l9.388,22.187l5.534-28.502
			L115.949,1394.485z"/>
	</g>
	<g>
		<path fill="#FFFFFF" d="M156.509,1266.376l-11.624,5.49c-1.411-2.96-3.234-4.974-5.469-6.045c-2.233-1.07-4.553-1.208-6.958-0.409
			c-2.582,0.856-4.432,2.56-5.548,5.104c-1.116,2.546-1.123,5.48-0.018,8.806c1.044,3.146,2.718,5.36,5.022,6.641
			c2.302,1.276,4.672,1.514,7.105,0.706c1.604-0.532,3.414-1.481,5.435-2.842l2.004,10.654c-3.414,1.034-5.752,2.627-7.016,4.777
			c-1.264,2.149-1.468,4.517-0.609,7.099c0.729,2.195,1.964,3.73,3.702,4.604c1.74,0.873,3.694,0.949,5.86,0.229
			c2.138-0.709,3.718-2.058,4.738-4.044c1.021-1.987,1.223-4.46,0.603-7.419l12.184-1.868c0.509,4.213,0.347,7.771-0.487,10.667
			c-0.835,2.896-2.476,5.5-4.923,7.813c-2.447,2.313-5.465,4.064-9.058,5.256c-6.144,2.039-11.723,1.715-16.734-0.97
			c-4.121-2.191-6.854-5.307-8.194-9.344c-1.901-5.729-0.286-11.342,4.842-16.834c-4.006,0.442-7.592-0.364-10.761-2.409
			c-3.168-2.047-5.407-5.045-6.718-8.992c-1.901-5.729-1.429-11.309,1.417-16.735c2.846-5.426,7.386-9.175,13.62-11.243
			c5.907-1.961,11.37-1.888,16.387,0.221C150.332,1257.394,154.062,1261.09,156.509,1266.376z"/>
	</g>
	<g>
		<path fill="#FFFFFF" d="M102.222,1284.397l-11.624,5.491c-1.41-2.96-3.234-4.976-5.468-6.046c-2.233-1.07-4.553-1.209-6.958-0.409
			c-2.584,0.857-4.433,2.558-5.548,5.105c-1.117,2.545-1.123,5.48-0.018,8.806c1.044,3.146,2.719,5.359,5.022,6.639
			c2.304,1.277,4.672,1.515,7.106,0.707c1.604-0.532,3.414-1.48,5.434-2.843l2.004,10.655c-3.414,1.034-5.752,2.627-7.016,4.777
			c-1.264,2.149-1.468,4.516-0.609,7.099c0.729,2.195,1.964,3.73,3.703,4.604c1.74,0.873,3.693,0.949,5.86,0.229
			c2.137-0.709,3.717-2.059,4.738-4.044c1.019-1.987,1.223-4.46,0.603-7.419l12.184-1.869c0.508,4.214,0.346,7.77-0.488,10.669
			c-0.834,2.897-2.475,5.501-4.921,7.812c-2.447,2.312-5.465,4.064-9.058,5.256c-6.145,2.041-11.724,1.716-16.735-0.971
			c-4.121-2.192-6.853-5.305-8.193-9.343c-1.901-5.729-0.287-11.342,4.842-16.834c-4.005,0.441-7.593-0.363-10.762-2.41
			c-3.167-2.048-5.406-5.046-6.717-8.992c-1.901-5.73-1.43-11.31,1.416-16.735c2.846-5.426,7.385-9.174,13.62-11.243
			c5.907-1.961,11.369-1.888,16.387,0.221C96.043,1275.415,99.775,1279.111,102.222,1284.397z"/>
	</g>
	<g>
		<path fill="#FFFFFF" d="M136.349,1176.419l-12.4,4.451c-1.147-3.157-2.807-5.394-4.98-6.707c-2.174-1.314-4.526-1.683-7.059-1.106
			c-2.721,0.618-4.774,2.171-6.165,4.657c-1.39,2.486-1.686,5.481-0.89,8.982c0.754,3.313,2.242,5.736,4.465,7.269
			c2.223,1.533,4.617,2.007,7.18,1.424c1.687-0.384,3.63-1.17,5.825-2.36l0.99,11.068c-3.584,0.719-6.129,2.11-7.63,4.179
			c-1.503,2.068-1.945,4.461-1.325,7.182c0.526,2.312,1.634,4.001,3.322,5.063c1.689,1.061,3.674,1.333,5.956,0.813
			c2.251-0.512,3.995-1.732,5.233-3.658c1.238-1.926,1.689-4.428,1.349-7.508l12.614-0.701c0.102,4.35-0.415,7.961-1.552,10.836
			c-1.138,2.872-3.069,5.366-5.794,7.484c-2.724,2.116-5.976,3.605-9.759,4.466c-6.471,1.474-12.129,0.591-16.978-2.645
			c-3.988-2.643-6.467-6.092-7.434-10.343c-1.374-6.033,0.83-11.599,6.606-16.695c-4.132,0.052-7.712-1.122-10.741-3.522
			c-3.029-2.402-5.017-5.682-5.963-9.839c-1.374-6.033-0.34-11.678,3.101-16.933c3.438-5.255,8.441-8.629,15.007-10.124
			c6.222-1.416,11.786-0.8,16.696,1.847C130.936,1166.646,134.376,1170.786,136.349,1176.419z"/>
	</g>
	<g>
		<path fill="#FFFFFF" d="M32.848,1193.668l-2.786-12.239l46.189-10.514c0.552,4.74,0.05,9.466-1.508,14.177
			c-1.557,4.712-5.245,11.33-11.065,19.857c-4.68,6.886-7.468,11.467-8.363,13.741c-1.194,3.133-1.489,6.025-0.885,8.684
			c0.669,2.938,1.973,5.019,3.911,6.237c1.938,1.218,4.298,1.513,7.08,0.879c2.751-0.626,4.751-1.952,5.999-3.979
			c1.249-2.027,1.561-4.991,0.935-8.893l13.428-1.676c0.87,7.429-0.4,13.192-3.806,17.29c-3.407,4.096-8.207,6.849-14.396,8.258
			c-6.782,1.545-12.529,0.928-17.239-1.847c-4.709-2.774-7.683-6.882-8.92-12.321c-0.704-3.096-0.821-6.168-0.348-9.219
			c0.474-3.049,1.564-6.381,3.274-9.991c1.132-2.396,3.343-5.974,6.632-10.734c3.289-4.762,5.346-7.894,6.172-9.396
			c0.825-1.503,1.447-2.927,1.864-4.271L32.848,1193.668z"/>
	</g>
	<g>
		<path fill="#FFFFFF" d="M122.651,1083.751l-12.842,2.953c-0.764-3.272-2.148-5.689-4.151-7.251
			c-2.002-1.56-4.295-2.206-6.878-1.933c-2.774,0.294-4.997,1.592-6.672,3.898c-1.673,2.305-2.323,5.242-1.946,8.814
			c0.357,3.379,1.548,5.961,3.575,7.746c2.027,1.785,4.347,2.539,6.961,2.264c1.722-0.183,3.742-0.734,6.063-1.657l-0.325,11.109
			c-3.645,0.287-6.335,1.371-8.072,3.245c-1.736,1.876-2.457,4.202-2.164,6.976c0.25,2.358,1.15,4.166,2.701,5.42
			c1.551,1.254,3.491,1.76,5.818,1.514c2.296-0.243,4.172-1.246,5.63-3.013c1.457-1.766,2.2-4.198,2.227-7.296l12.608,0.794
			c-0.413,4.331-1.353,7.857-2.824,10.576c-1.469,2.717-3.682,4.966-6.637,6.745c-2.955,1.778-6.362,2.872-10.22,3.279
			c-6.6,0.698-12.115-0.846-16.546-4.633c-3.647-3.098-5.701-6.812-6.159-11.149c-0.65-6.153,2.196-11.419,8.535-15.797
			c-4.109-0.436-7.525-2.027-10.249-4.768c-2.724-2.742-4.309-6.234-4.758-10.474c-0.65-6.153,1.044-11.636,5.079-16.447
			c4.037-4.812,9.405-7.571,16.099-8.279c6.345-0.67,11.798,0.6,16.362,3.808C118.431,1073.404,121.358,1077.921,122.651,1083.751z"
			/>
	</g>
	<g>
		<path fill="#FFFFFF" d="M27.517,1074.992l13.439-1.419l5.351,50.646c4.425-5.108,9.852-9.117,16.282-12.021l1.288,12.195
			c-3.385,1.518-6.966,4.098-10.74,7.737c-3.774,3.638-6.2,7.675-7.28,12.111l-10.904,1.153L27.517,1074.992z"/>
	</g>
	<g>
		<path fill="#FFFFFF" d="M117.022,995.227l-13.105,1.358c-0.359-3.342-1.436-5.909-3.231-7.703
			c-1.796-1.795-3.993-2.716-6.589-2.761c-2.789-0.049-5.155,0.969-7.099,3.05c-1.944,2.083-2.949,4.919-3.012,8.509
			c-0.059,3.397,0.807,6.105,2.599,8.126c1.793,2.019,4.003,3.052,6.632,3.097c1.731,0.03,3.805-0.27,6.221-0.901l-1.684,10.984
			c-3.652-0.159-6.455,0.584-8.407,2.234c-1.953,1.648-2.953,3.868-3.003,6.656c-0.041,2.372,0.631,4.275,2.016,5.711
			c1.387,1.435,3.249,2.174,5.588,2.215c2.308,0.04,4.292-0.727,5.956-2.301c1.663-1.575,2.697-3.897,3.104-6.968l12.415,2.335
			c-0.94,4.247-2.306,7.632-4.098,10.149c-1.792,2.517-4.263,4.478-7.414,5.882c-3.151,1.402-6.666,2.071-10.544,2.004
			c-6.635-0.117-11.92-2.325-15.852-6.628c-3.24-3.519-4.823-7.459-4.748-11.818c0.109-6.187,3.577-11.064,10.405-14.63
			c-4.023-0.935-7.218-2.933-9.586-5.988c-2.368-3.057-3.514-6.715-3.438-10.979c0.109-6.186,2.461-11.42,7.057-15.699
			c4.596-4.28,10.261-6.362,16.992-6.244c6.379,0.112,11.635,2.04,15.771,5.783C114.104,984.444,116.453,989.284,117.022,995.227z"
			/>
	</g>
	<g>
		<path fill="#FFFFFF" d="M34.174,1045.863c-6.828-0.12-12.122-2.649-15.883-7.589c-4.483-5.849-6.607-15.457-6.373-28.825
			c0.234-13.335,2.709-22.879,7.427-28.631c3.899-4.741,9.262-7.052,16.089-6.932c6.859,0.12,12.342,2.853,16.45,8.2
			c4.107,5.346,6.042,14.782,5.804,28.309c-0.233,13.271-2.707,22.782-7.426,28.534
			C46.364,1043.672,41.002,1045.983,34.174,1045.863z M34.37,1034.659c1.635,0.028,3.104-0.468,4.403-1.487
			c1.301-1.019,2.327-2.869,3.079-5.549c0.991-3.478,1.559-9.353,1.704-17.621c0.145-8.27-0.172-13.959-0.952-17.066
			c-0.779-3.108-1.792-5.186-3.041-6.233c-1.248-1.048-2.69-1.587-4.324-1.615c-1.635-0.028-3.103,0.467-4.402,1.486
			c-1.3,1.019-2.326,2.869-3.079,5.55c-0.99,3.445-1.557,9.302-1.702,17.573c-0.145,8.27,0.173,13.958,0.952,17.066
			c0.78,3.107,1.793,5.193,3.04,6.258C31.294,1034.083,32.735,1034.631,34.37,1034.659z"/>
	</g>
	<g>
		<path fill="#FFFFFF" d="M76.943,890.977l1.273-12.486l47.122,4.807c-0.992,4.668-2.979,8.984-5.962,12.951
			c-2.982,3.965-8.593,9.056-16.833,15.272c-6.636,5.028-10.741,8.476-12.319,10.345c-2.132,2.586-3.339,5.234-3.615,7.946
			c-0.306,2.997,0.265,5.383,1.711,7.158c1.447,1.775,3.589,2.808,6.428,3.098c2.807,0.286,5.125-0.331,6.956-1.851
			c1.832-1.523,3.075-4.231,3.73-8.127l13.259,2.706c-1.552,7.316-4.598,12.373-9.137,15.164c-4.539,2.791-9.965,3.865-16.28,3.222
			c-6.92-0.706-12.168-3.127-15.742-7.261c-3.573-4.136-5.078-8.977-4.512-14.527c0.323-3.158,1.196-6.107,2.618-8.846
			c1.424-2.738,3.523-5.545,6.298-8.421c1.838-1.907,5.077-4.59,9.715-8.048c4.639-3.458,7.591-5.768,8.851-6.928
			c1.264-1.16,2.307-2.31,3.131-3.45L76.943,890.977z"/>
	</g>
	<g>
		<path fill="#FFFFFF" d="M63.355,893.359l-13.159,0.108c-0.047-2.681-0.678-4.727-1.887-6.139c-1.209-1.413-2.915-2.23-5.115-2.456
			c-2.775-0.282-5.264,0.752-7.471,3.105c-2.205,2.354-3.989,7.521-5.353,15.503c3.781-3.578,8.208-5.108,13.278-4.59
			c5.519,0.562,10.061,3.178,13.629,7.842c3.567,4.666,5.004,10.412,4.307,17.237c-0.726,7.112-3.422,12.63-8.094,16.552
			c-4.67,3.923-10.274,5.55-16.812,4.882c-7.112-0.724-12.667-4.073-16.667-10.04c-3.999-5.967-5.357-15.25-4.071-27.848
			c1.308-12.82,4.628-21.827,9.959-27.02c5.331-5.193,11.809-7.399,19.432-6.622c5.486,0.56,9.77,2.472,12.853,5.735
			C61.265,882.874,62.99,887.456,63.355,893.359z M29.931,919.627c-0.442,4.337,0.211,7.805,1.96,10.399
			c1.749,2.596,3.932,4.027,6.547,4.295c2.487,0.253,4.652-0.517,6.496-2.31c1.844-1.793,2.992-4.924,3.448-9.389
			c0.462-4.529-0.091-7.944-1.661-10.247c-1.569-2.305-3.694-3.591-6.373-3.865c-2.583-0.265-4.865,0.534-6.843,2.395
			C31.525,912.765,30.334,915.673,29.931,919.627z"/>
	</g>
	<g>
		<path fill="#FFFFFF" d="M93.592,794.641l2.967-12.194l46.025,11.195c-1.62,4.488-4.178,8.493-7.674,12.015
			c-3.496,3.522-9.749,7.799-18.76,12.831c-7.258,4.074-11.797,6.93-13.615,8.567c-2.466,2.271-4.02,4.731-4.665,7.378
			c-0.712,2.927-0.472,5.37,0.717,7.325c1.191,1.955,3.172,3.271,5.944,3.945c2.741,0.667,5.123,0.372,7.144-0.885
			c2.022-1.257,3.623-3.77,4.805-7.542l12.764,4.491c-2.536,7.036-6.243,11.628-11.12,13.775
			c-4.877,2.146-10.399,2.469-16.568,0.968c-6.758-1.643-11.627-4.759-14.603-9.341c-2.976-4.584-3.804-9.586-2.487-15.007
			c0.75-3.084,2.017-5.887,3.801-8.404c1.785-2.519,4.247-5.013,7.389-7.482c2.082-1.639,5.657-3.855,10.722-6.647
			c5.068-2.793,8.306-4.678,9.714-5.656c1.41-0.977,2.601-1.974,3.572-2.99L93.592,794.641z"/>
	</g>
	<g>
		<path fill="#FFFFFF" d="M63.687,813.595c3.047,2.259,5.037,4.83,5.968,7.714c0.932,2.882,1.034,5.819,0.306,8.809
			c-1.243,5.108-4.052,8.896-8.43,11.361s-9.852,2.9-16.426,1.3c-6.51-1.583-11.159-4.479-13.946-8.687
			c-2.787-4.209-3.56-8.867-2.317-13.976c0.772-3.178,2.286-5.803,4.539-7.879c2.254-2.075,5.034-3.402,8.343-3.984
			c-3.428-2.451-5.776-5.381-7.043-8.789c-1.265-3.41-1.433-7.029-0.5-10.861c1.537-6.323,4.805-10.974,9.801-13.948
			c4.997-2.975,10.843-3.649,17.54-2.02c6.23,1.516,11.019,4.414,14.366,8.692c3.951,5.052,5.108,10.942,3.472,17.67
			c-0.901,3.707-2.647,6.886-5.24,9.539C71.531,811.189,68.051,812.876,63.687,813.595z M57.76,826.159
			c0.636-2.617,0.392-4.838-0.731-6.661c-1.123-1.824-2.915-3.035-5.377-3.634c-2.492-0.606-4.667-0.351-6.52,0.766
			c-1.854,1.115-3.101,2.983-3.738,5.599c-0.598,2.46-0.338,4.611,0.782,6.45c1.12,1.84,2.895,3.055,5.325,3.646
			c2.522,0.613,4.714,0.355,6.573-0.778C55.933,830.416,57.162,828.62,57.76,826.159z M66.112,797.111
			c0.879-3.613,0.637-6.658-0.723-9.135c-1.361-2.476-3.427-4.051-6.2-4.724c-2.71-0.659-5.191-0.231-7.438,1.283
			c-2.249,1.516-3.821,4.11-4.715,7.786c-0.78,3.208-0.503,6.006,0.829,8.393c1.333,2.386,3.386,3.916,6.159,4.591
			c3.209,0.78,5.868,0.256,7.979-1.572C64.113,801.903,65.484,799.697,66.112,797.111z"/>
	</g>
	<g>
		<path fill="#FFFFFF" d="M119.085,702.745l3.943-11.918l44.973,14.882c-1.977,4.344-4.85,8.129-8.621,11.357
			c-3.77,3.227-10.348,6.985-19.739,11.274c-7.564,3.473-12.32,5.953-14.264,7.438c-2.642,2.064-4.391,4.389-5.247,6.978
			c-0.946,2.86-0.904,5.314,0.122,7.36c1.029,2.046,2.897,3.517,5.607,4.414c2.677,0.886,5.076,0.785,7.191-0.305
			c2.118-1.09,3.916-3.466,5.399-7.128l12.361,5.509c-3.097,6.81-7.164,11.086-12.199,12.831c-5.035,1.745-10.565,1.62-16.592-0.375
			c-6.606-2.184-11.206-5.683-13.802-10.495c-2.596-4.81-3.018-9.864-1.265-15.159c0.997-3.014,2.486-5.704,4.468-8.07
			c1.982-2.367,4.639-4.654,7.969-6.862c2.207-1.465,5.949-3.384,11.226-5.758c5.278-2.374,8.659-3.99,10.141-4.85
			c1.483-0.86,2.751-1.759,3.804-2.693L119.085,702.745z"/>
	</g>
	<g>
		<path fill="#FFFFFF" d="M92.792,740.852l-3.943,11.918L44.973,738.25l3.082-9.314c4.801-2.363,10.176-6.258,16.126-11.685
			c5.95-5.428,11.148-11.568,15.593-18.42c4.446-6.854,7.631-13.237,9.554-19.154l12.373,4.094
			c-3.274,9.184-8.306,17.987-15.096,26.411c-6.79,8.425-14.452,15.43-22.987,21.015L92.792,740.852z"/>
	</g>
	<g>
		<path fill="#FFFFFF" d="M154.584,611.582l4.427-11.746l44.325,16.71c-2.154,4.259-5.18,7.924-9.079,10.994
			c-3.898,3.069-10.627,6.557-20.183,10.457c-7.702,3.162-12.554,5.445-14.556,6.848c-2.723,1.953-4.566,4.206-5.528,6.755
			c-1.063,2.82-1.123,5.273-0.18,7.359c0.944,2.086,2.75,3.633,5.421,4.639c2.64,0.995,5.04,0.992,7.199-0.01
			c2.159-1.002,4.056-3.303,5.686-6.902l12.125,6.01c-3.374,6.677-7.611,10.784-12.715,12.322
			c-5.102,1.537-10.624,1.187-16.563-1.052c-6.51-2.455-10.964-6.137-13.36-11.05c-2.396-4.912-2.611-9.978-0.643-15.198
			c1.12-2.97,2.719-5.598,4.795-7.88c2.077-2.285,4.825-4.461,8.243-6.53c2.266-1.374,6.083-3.138,11.453-5.293
			c5.371-2.156,8.815-3.633,10.331-4.431c1.518-0.799,2.821-1.644,3.911-2.534L154.584,611.582z"/>
	</g>
	<g>
		<path fill="#FFFFFF" d="M85.236,628.921l12.749,3.264c-0.65,2.633-0.572,4.787,0.236,6.462c0.808,1.676,2.217,2.892,4.227,3.649
			c2.671,1.008,5.38,0.657,8.13-1.047c2.751-1.705,5.797-6.261,9.137-13.67c-4.553,2.532-9.168,2.917-13.848,1.153
			c-5.28-1.99-9.044-5.706-11.295-11.145c-2.249-5.439-2.175-11.339,0.223-17.699c2.544-6.75,6.567-11.418,12.064-14.004
			c5.498-2.588,11.352-2.71,17.562-0.371c6.66,2.511,11.161,7.163,13.499,13.955c2.339,6.792,1.287,16.084-3.159,27.874
			c-4.557,12.09-10.078,19.962-16.561,23.617c-6.483,3.654-13.296,4.137-20.436,1.446c-5.01-1.889-8.629-4.854-10.857-8.899
			C84.68,639.46,84.122,634.599,85.236,628.921z M124.301,612.141c1.55-4.109,1.801-7.638,0.753-10.586
			c-1.046-2.948-2.786-4.88-5.215-5.796c-2.34-0.883-4.635-0.703-6.886,0.54c-2.25,1.242-4.161,3.946-5.733,8.116
			c-1.617,4.291-1.961,7.749-1.034,10.378c0.928,2.628,2.651,4.417,5.172,5.367c2.43,0.917,4.845,0.739,7.242-0.532
			C120.998,618.357,122.898,615.861,124.301,612.141z"/>
	</g>
	<g>
		<path fill="#FFFFFF" d="M201.37,523.216l5.966-11.044l41.678,22.51c-2.705,3.932-6.197,7.156-10.472,9.675
			c-4.274,2.519-11.409,5.069-21.403,7.651c-8.057,2.099-13.17,3.708-15.345,4.83c-2.961,1.571-5.09,3.555-6.385,5.953
			c-1.433,2.651-1.82,5.075-1.166,7.269c0.655,2.193,2.237,3.969,4.748,5.325c2.483,1.341,4.862,1.66,7.135,0.956
			c2.274-0.703,4.461-2.728,6.561-6.075l11.208,7.583c-4.239,6.163-8.991,9.666-14.253,10.502
			c-5.263,0.837-10.686-0.251-16.272-3.268c-6.121-3.306-10.039-7.554-11.755-12.743c-1.714-5.189-1.248-10.239,1.403-15.147
			c1.508-2.792,3.445-5.181,5.809-7.164c2.365-1.983,5.381-3.771,9.046-5.364c2.429-1.057,6.448-2.292,12.059-3.707
			c5.611-1.416,9.222-2.417,10.832-3.004c1.612-0.588,3.017-1.25,4.215-1.986L201.37,523.216z"/>
	</g>
	<g>
		<path fill="#FFFFFF" d="M187.12,521.859l-12.51-5.173c1.108-2.862,1.254-5.525,0.436-7.99c-0.819-2.465-2.314-4.284-4.486-5.456
			c-2.481-1.341-5.129-1.468-7.938-0.38c-2.81,1.087-5.311,3.661-7.506,7.725c-2.057,3.809-2.745,7.125-2.068,9.951
			c0.679,2.825,2.385,4.978,5.121,6.455c3.414,1.845,7.29,1.988,11.628,0.431l8.894,6.608l-23.531,28.995l-31.438-16.981
			l6.01-11.129l22.426,12.113l7.552-9.529c-3.367-0.106-6.433-0.906-9.197-2.398c-5.275-2.849-8.71-7.181-10.306-12.999
			c-1.594-5.816-0.738-11.786,2.568-17.906c2.758-5.107,6.699-8.862,11.824-11.268c6.99-3.294,14.067-3.005,21.232,0.865
			c5.727,3.093,9.565,7.151,11.515,12.177C189.293,510.989,189.219,516.287,187.12,521.859z"/>
	</g>
	<g>
		<path fill="#FFFFFF" d="M255.721,442.823l7.347-10.176l38.405,27.73c-3.194,3.546-7.073,6.291-11.639,8.235
			c-4.565,1.942-11.971,3.545-22.216,4.809c-8.26,1.035-13.541,1.967-15.842,2.797c-3.14,1.173-5.508,2.863-7.103,5.074
			c-1.765,2.442-2.463,4.796-2.099,7.055c0.365,2.261,1.704,4.227,4.017,5.896c2.288,1.652,4.605,2.277,6.951,1.875
			c2.346-0.401,4.778-2.126,7.294-5.173l10.13,8.973c-5.004,5.562-10.169,8.416-15.497,8.564
			c-5.327,0.148-10.563-1.636-15.709-5.351c-5.641-4.072-8.974-8.793-10.003-14.162c-1.026-5.367,0.092-10.313,3.358-14.837
			c1.858-2.572,4.088-4.691,6.691-6.351c2.604-1.66,5.825-3.042,9.664-4.143c2.546-0.733,6.693-1.437,12.44-2.112
			c5.747-0.676,9.457-1.198,11.13-1.574c1.675-0.373,3.154-0.847,4.438-1.422L255.721,442.823z"/>
	</g>
	<g>
		<path fill="#FFFFFF" d="M231.053,409.53l-8.304,11.501l23.394,16.891l-6.926,9.592l-51.007,18.396l-9.202-6.643l26.181-36.26
			l-7.096-5.124l6.953-9.631l7.096,5.123l8.304-11.501L231.053,409.53z M215.794,430.663l-14.105,19.534l27.243-10.047
			L215.794,430.663z"/>
	</g>
	<g>
		<path fill="#FFFFFF" d="M318.262,368.901l8.997-8.748l33.02,33.958c-3.758,2.941-8.054,4.972-12.889,6.094
			c-4.833,1.123-12.402,1.421-22.711,0.889c-8.315-0.411-13.677-0.406-16.085,0.012c-3.296,0.612-5.92,1.867-7.874,3.768
			c-2.16,2.1-3.256,4.296-3.289,6.585c-0.032,2.289,0.947,4.456,2.936,6.503c1.967,2.022,4.14,3.039,6.521,3.049
			c2.38,0.011,5.073-1.266,8.079-3.831l8.42,10.591c-5.891,4.61-11.472,6.527-16.744,5.751c-5.272-0.776-10.121-3.44-14.546-7.992
			c-4.85-4.987-7.316-10.214-7.398-15.679c-0.081-5.465,1.876-10.143,5.875-14.031c2.276-2.212,4.839-3.911,7.689-5.095
			c2.851-1.185,6.263-1.987,10.236-2.407c2.635-0.281,6.84-0.255,12.615,0.075c5.777,0.33,9.523,0.456,11.234,0.378
			c1.713-0.078,3.251-0.288,4.618-0.633L318.262,368.901z"/>
	</g>
	<g>
		<path fill="#FFFFFF" d="M305.13,364.224l-10.257-8.271c2.101-2.623,3.146-5.204,3.136-7.744c-0.009-2.538-0.921-4.739-2.731-6.602
			c-1.944-1.999-4.339-2.946-7.187-2.839c-2.847,0.107-5.558,1.413-8.131,3.917c-2.435,2.367-3.729,4.9-3.882,7.596
			c-0.15,2.696,0.69,4.988,2.523,6.87c1.207,1.242,2.889,2.489,5.048,3.744l-8.934,6.609c-2.48-2.687-4.993-4.135-7.539-4.34
			c-2.548-0.206-4.821,0.663-6.821,2.607c-1.701,1.654-2.565,3.479-2.594,5.474c-0.027,1.995,0.775,3.831,2.405,5.509
			c1.608,1.654,3.559,2.511,5.847,2.564c2.289,0.054,4.659-0.864,7.113-2.757l7.166,10.405c-3.661,2.352-7.014,3.791-10.059,4.314
			c-3.044,0.524-6.18,0.174-9.405-1.049c-3.225-1.223-6.189-3.226-8.894-6.008c-4.627-4.759-6.819-10.049-6.579-15.873
			c0.181-4.78,1.835-8.691,4.959-11.731c4.436-4.315,10.334-5.329,17.692-3.05c-2.195-3.5-3.056-7.167-2.583-11.003
			c0.473-3.835,2.239-7.242,5.295-10.213c4.436-4.314,9.793-6.368,16.069-6.168c6.277,0.202,11.763,2.717,16.455,7.543
			c4.447,4.573,6.82,9.645,7.116,15.216C310.655,354.514,308.912,359.607,305.13,364.224z"/>
	</g>
	<g>
		<path fill="#FFFFFF" d="M386.692,301.558l9.527-8.171l30.835,35.955c-3.935,2.699-8.35,4.457-13.245,5.277
			c-4.893,0.817-12.468,0.641-22.723-0.532c-8.272-0.93-13.625-1.259-16.054-0.992c-3.328,0.404-6.026,1.493-8.094,3.268
			c-2.287,1.961-3.518,4.084-3.694,6.367c-0.174,2.281,0.666,4.507,2.524,6.673c1.837,2.142,3.943,3.292,6.318,3.452
			c2.375,0.158,5.142-0.947,8.303-3.321l7.743,11.097c-6.167,4.234-11.857,5.798-17.07,4.695c-5.212-1.105-9.885-4.067-14.017-8.884
			c-4.529-5.281-6.663-10.651-6.404-16.11s2.506-10.005,6.74-13.636c2.409-2.065,5.075-3.601,7.992-4.606
			c2.92-1.003,6.374-1.59,10.366-1.763c2.646-0.116,6.841,0.173,12.586,0.863c5.744,0.689,9.475,1.051,11.188,1.08
			c1.714,0.028,3.264-0.084,4.647-0.344L386.692,301.558z"/>
	</g>
	<g>
		<path fill="#FFFFFF" d="M348.529,257.056l9.527-8.171l30.835,35.955c-3.936,2.699-8.349,4.458-13.245,5.277
			c-4.893,0.818-12.468,0.641-22.723-0.532c-8.272-0.93-13.625-1.259-16.054-0.992c-3.328,0.404-6.026,1.493-8.094,3.268
			c-2.287,1.961-3.518,4.084-3.694,6.367c-0.174,2.281,0.666,4.507,2.524,6.673c1.837,2.142,3.943,3.292,6.318,3.452
			c2.375,0.158,5.144-0.946,8.303-3.321l7.743,11.097c-6.167,4.234-11.856,5.797-17.07,4.695c-5.212-1.106-9.885-4.067-14.017-8.884
			c-4.529-5.281-6.663-10.651-6.404-16.11c0.26-5.459,2.506-10.005,6.74-13.636c2.409-2.065,5.075-3.601,7.992-4.606
			c2.919-1.002,6.374-1.59,10.366-1.763c2.646-0.116,6.841,0.173,12.586,0.863c5.745,0.69,9.474,1.051,11.188,1.08
			c1.715,0.028,3.264-0.084,4.647-0.343L348.529,257.056z"/>
	</g>
	<g>
		<path fill="#FFFFFF" d="M462.785,241.425l10.097-7.456l28.137,38.104c-4.121,2.406-8.651,3.84-13.593,4.3
			c-4.94,0.46-12.481-0.267-22.624-2.184c-8.182-1.528-13.496-2.249-15.94-2.158c-3.348,0.161-6.118,1.051-8.31,2.669
			c-2.424,1.79-3.806,3.817-4.147,6.082c-0.34,2.263,0.337,4.543,2.031,6.838c1.676,2.269,3.692,3.57,6.049,3.903
			c2.357,0.332,5.199-0.569,8.523-2.707l6.914,11.633c-6.459,3.773-12.247,4.919-17.367,3.438c-5.119-1.48-9.564-4.774-13.333-9.88
			c-4.132-5.597-5.87-11.107-5.215-16.534c0.657-5.425,3.227-9.796,7.715-13.109c2.553-1.886,5.323-3.222,8.307-4.012
			c2.984-0.789,6.474-1.124,10.467-1.003c2.647,0.076,6.812,0.67,12.49,1.774c5.679,1.108,9.373,1.737,11.08,1.891
			c1.709,0.153,3.262,0.152,4.661-0.004L462.785,241.425z"/>
	</g>
	<g>
		<path fill="#FFFFFF" d="M444.626,195.705l8.027,10.87l-40.967,30.251c6.648,1.23,12.85,3.883,18.61,7.959l-9.865,7.283
			c-3.023-2.151-7.06-3.933-12.107-5.346c-5.049-1.413-9.758-1.463-14.128-0.15l-6.513-8.819L444.626,195.705z"/>
	</g>
	<g>
		<path fill="#FFFFFF" d="M544.922,188.801l10.831-6.343l23.938,40.873c-4.352,1.955-9.01,2.9-13.973,2.834
			c-4.961-0.067-12.383-1.591-22.264-4.571c-7.976-2.388-13.183-3.669-15.623-3.838c-3.346-0.194-6.195,0.397-8.546,1.773
			c-2.601,1.524-4.189,3.393-4.77,5.608c-0.578,2.216-0.146,4.554,1.295,7.017c1.426,2.436,3.293,3.942,5.601,4.522
			c2.309,0.58,5.23-0.016,8.762-1.787l5.642,12.299c-6.822,3.068-12.701,3.592-17.633,1.579c-4.932-2.016-9.004-5.762-12.211-11.24
			c-3.515-6.004-4.659-11.668-3.431-16.994c1.226-5.325,4.248-9.399,9.062-12.218c2.738-1.604,5.634-2.639,8.685-3.108
			c3.052-0.468,6.557-0.431,10.516,0.112c2.625,0.357,6.701,1.388,12.232,3.09c5.531,1.703,9.136,2.721,10.817,3.054
			c1.682,0.334,3.227,0.499,4.634,0.491L544.922,188.801z"/>
	</g>
	<g>
		<path fill="#FFFFFF" d="M476.56,187.31c-3.451-5.893-4.046-11.73-1.785-17.513c2.663-6.871,9.763-13.687,21.297-20.442
			c11.509-6.741,20.947-9.591,28.314-8.556c6.078,0.861,10.843,4.238,14.293,10.131c3.467,5.92,3.987,12.025,1.558,18.313
			c-2.429,6.29-9.479,12.852-21.156,19.69c-11.453,6.707-20.863,9.544-28.23,8.508C484.776,196.58,480.011,193.202,476.56,187.31z
			 M486.229,181.647c0.826,1.411,2.015,2.407,3.56,2.986c1.547,0.58,3.662,0.495,6.342-0.258c3.486-0.963,8.796-3.536,15.934-7.715
			c7.136-4.18,11.832-7.411,14.079-9.695c2.249-2.282,3.496-4.229,3.74-5.84c0.245-1.611-0.045-3.123-0.872-4.534
			c-0.826-1.41-2.012-2.405-3.561-2.985c-1.545-0.579-3.662-0.493-6.341,0.26c-3.457,0.946-8.756,3.511-15.892,7.691
			c-7.136,4.18-11.83,7.411-14.078,9.695c-2.248,2.282-3.501,4.233-3.761,5.852C485.121,178.721,485.402,180.237,486.229,181.647z"
			/>
	</g>
	<g>
		<path fill="#FFFFFF" d="M648.012,150.017l5.588,12.304l-46.369,21.059c6.244,2.587,11.76,6.472,16.545,11.658l-11.166,5.071
			c-2.509-2.733-6.085-5.317-10.729-7.751c-4.643-2.434-9.238-3.463-13.787-3.087l-4.533-9.983L648.012,150.017z"/>
	</g>
	<g>
		<path fill="#FFFFFF" d="M623.104,134.599l-6.722-11.314c2.291-1.393,3.742-2.967,4.351-4.723c0.611-1.757,0.459-3.641-0.456-5.654
			c-1.154-2.54-3.302-4.17-6.446-4.89c-3.144-0.72-8.507,0.343-16.088,3.187c4.996,1.464,8.548,4.516,10.655,9.158
			c2.294,5.051,2.323,10.292,0.091,15.725c-2.232,5.433-6.473,9.568-12.72,12.406c-6.509,2.956-12.634,3.407-18.374,1.347
			c-5.741-2.058-9.971-6.079-12.688-12.063c-2.956-6.509-2.865-12.995,0.275-19.456c3.14-6.461,10.474-12.311,22.005-17.545
			c11.735-5.328,21.188-7,28.358-5.009c7.172,1.989,12.342,6.473,15.509,13.45c2.279,5.02,2.788,9.685,1.522,13.991
			C631.109,127.513,628.019,131.31,623.104,134.599z M583.573,118.96c-3.969,1.803-6.635,4.114-7.997,6.932
			c-1.36,2.82-1.496,5.427-0.411,7.819c1.034,2.277,2.79,3.761,5.269,4.447c2.478,0.688,5.76,0.104,9.847-1.751
			c4.146-1.883,6.817-4.08,8.015-6.599c1.199-2.516,1.242-5,0.128-7.452c-1.074-2.363-2.912-3.933-5.516-4.704
			C590.304,116.88,587.192,117.317,583.573,118.96z"/>
	</g>
	<g>
		<path fill="#FFFFFF" d="M737.932,118.747l4.221,12.837l-48.38,15.911c5.928,3.248,10.989,7.709,15.185,13.383l-11.649,3.83
			c-2.197-2.989-5.474-5.945-9.826-8.868c-4.354-2.922-8.811-4.442-13.372-4.562l-3.427-10.416L737.932,118.747z"/>
	</g>
	<g>
		<path fill="#FFFFFF" d="M690.659,96.772c-0.308,3.781-1.441,6.827-3.397,9.143c-1.955,2.315-4.396,3.951-7.32,4.913
			c-4.994,1.643-9.695,1.258-14.102-1.159c-4.405-2.415-7.666-6.836-9.779-13.262c-2.094-6.365-2.088-11.844,0.012-16.433
			c2.102-4.589,5.651-7.706,10.646-9.349c3.107-1.022,6.136-1.123,9.088-0.306c2.952,0.818,5.55,2.477,7.789,4.982
			c0.27-4.206,1.519-7.748,3.746-10.622c2.227-2.875,5.213-4.93,8.96-6.161c6.183-2.033,11.856-1.715,17.022,0.958
			c5.165,2.672,8.825,7.282,10.979,13.829c2.003,6.093,2.072,11.689,0.206,16.792c-2.203,6.023-6.595,10.116-13.174,12.281
			c-3.624,1.191-7.246,1.389-10.868,0.587C696.845,102.164,693.576,100.1,690.659,96.772z M676.858,98.376
			c2.559-0.842,4.314-2.222,5.271-4.139c0.956-1.917,1.038-4.078,0.247-6.485c-0.801-2.437-2.166-4.147-4.093-5.134
			c-1.928-0.987-4.171-1.059-6.73-0.218c-2.405,0.791-4.094,2.149-5.064,4.07c-0.971,1.923-1.066,4.072-0.285,6.446
			c0.812,2.468,2.187,4.191,4.13,5.173C672.279,99.071,674.453,99.166,676.858,98.376z M705.939,90.126
			c3.534-1.162,5.991-2.973,7.375-5.439c1.385-2.462,1.631-5.05,0.738-7.761c-0.87-2.65-2.544-4.529-5.019-5.64
			c-2.474-1.111-5.509-1.074-9.103,0.108c-3.137,1.031-5.367,2.744-6.69,5.136c-1.322,2.392-1.538,4.945-0.647,7.655
			c1.031,3.138,2.883,5.119,5.551,5.945C700.815,90.961,703.412,90.958,705.939,90.126z"/>
	</g>
	<g>
		<path fill="#FFFFFF" d="M832.842,96.213l2.736,13.232l-49.873,10.312c5.521,3.9,10.043,8.908,13.566,15.021l-12.009,2.484
			c-1.844-3.22-4.762-6.529-8.756-9.928c-3.992-3.398-8.248-5.415-12.767-6.053l-2.219-10.737L832.842,96.213z"/>
	</g>
	<g>
		<path fill="#FFFFFF" d="M772.166,84.199l-12.291,2.54l-9.358-45.258l9.607-1.986c4.446,2.977,10.505,5.685,18.18,8.125
			c7.674,2.439,15.591,3.873,23.748,4.297c8.158,0.425,15.279-0.008,21.363-1.299l2.638,12.762
			c-9.589,1.754-19.729,1.795-30.42,0.127c-10.689-1.669-20.586-4.805-29.691-9.405L772.166,84.199z"/>
	</g>
	<g>
		<path fill="#FFFFFF" d="M928.039,83.845l1.372,13.443l-50.662,5.168c5.094,4.443,9.081,9.886,11.962,16.327l-12.199,1.244
			c-1.506-3.392-4.072-6.98-7.697-10.767c-3.626-3.788-7.652-6.228-12.082-7.323l-1.113-10.908L928.039,83.845z"/>
	</g>
	<g>
		<path fill="#FFFFFF" d="M867.994,19.778l2.762,12.865c-2.646,0.594-4.539,1.624-5.678,3.094c-1.139,1.47-1.6,3.273-1.381,5.409
			c0.289,2.84,1.811,5.109,4.562,6.809c2.752,1.7,8.189,2.394,16.309,2.083c-4.295-2.946-6.697-6.906-7.206-11.882
			c-0.573-5.613,1.073-10.639,4.94-15.078c3.866-4.438,9.179-7.002,15.94-7.691c7.177-0.733,13.148,0.785,17.915,4.553
			c4.768,3.767,7.488,8.953,8.161,15.555c0.722,7.079-1.435,13.182-6.471,18.304c-5.036,5.122-13.821,8.323-26.355,9.6
			c-12.853,1.311-22.36-0.118-28.523-4.291c-6.161-4.173-9.63-10.054-10.404-17.646c-0.543-5.326,0.498-9.888,3.123-13.684
			C858.312,23.98,862.415,21.314,867.994,19.778z M900.429,47.26c4.369-0.445,7.64-1.795,9.81-4.047
			c2.172-2.251,3.124-4.669,2.86-7.252c-0.253-2.487-1.438-4.461-3.552-5.921c-2.114-1.46-5.388-1.965-9.822-1.511
			c-4.561,0.465-7.81,1.699-9.75,3.701c-1.938,2.003-2.772,4.344-2.498,7.023c0.264,2.584,1.5,4.666,3.706,6.244
			C893.392,47.076,896.474,47.664,900.429,47.26z"/>
	</g>
	<g>
		<path fill="#FFFFFF" d="M1024.398,81.346l0.013,13.514l-50.927,0.05c4.622,4.933,8.041,10.747,10.26,17.446l-12.263,0.012
			c-1.157-3.523-3.349-7.354-6.576-11.487c-3.226-4.133-6.988-6.966-11.285-8.501l-0.011-10.965L1024.398,81.346z"/>
	</g>
	<g>
		<path fill="#FFFFFF" d="M1006.244,57.121l-1.409-13.465c3.046-0.387,5.457-1.526,7.234-3.421c1.777-1.894,2.664-4.074,2.662-6.543
			c-0.003-2.821-1.152-5.209-3.445-7.162c-2.294-1.952-5.75-2.929-10.366-2.923c-4.328,0.005-7.573,0.978-9.735,2.919
			c-2.161,1.942-3.242,4.468-3.238,7.577c0.004,3.88,1.724,7.355,5.156,10.431l-1.576,10.966l-36.699-6.888l-0.036-35.73
			l12.647-0.012l0.026,25.487l11.977,2.104c-1.51-3.012-2.267-6.089-2.27-9.231c-0.006-5.994,2.17-11.079,6.526-15.25
			s10.013-6.262,16.97-6.269c5.803-0.006,10.982,1.673,15.539,5.034c6.225,4.579,9.339,10.939,9.348,19.082
			c0.007,6.509-1.735,11.816-5.226,15.922C1016.836,53.857,1012.142,56.315,1006.244,57.121z"/>
	</g>
	<g>
		<path fill="#FFFFFF" d="M1120.338,88.552l-1.261,13.453l-50.702-4.753c4.134,5.348,6.99,11.458,8.568,18.337l-12.21-1.145
			c-0.818-3.619-2.641-7.637-5.462-12.057c-2.822-4.419-6.299-7.594-10.433-9.527l1.023-10.916L1120.338,88.552z"/>
	</g>
	<g>
		<path fill="#FFFFFF" d="M1125.054,38.227l-14.124-1.324l-2.692,28.727l-11.778-1.105l-41.72-34.628l1.059-11.299l44.526,4.174
			l0.816-8.714l11.825,1.108l-0.816,8.714l14.124,1.324L1125.054,38.227z M1099.105,35.795l-23.986-2.249l22.474,18.383
			L1099.105,35.795z"/>
	</g>
	<g>
		<path fill="#FFFFFF" d="M1214.324,106.557l-2.802,13.219l-49.818-10.564c3.49,5.788,5.624,12.188,6.399,19.201l-11.997-2.544
			c-0.398-3.688-1.742-7.89-4.036-12.604c-2.294-4.714-5.381-8.269-9.266-10.666l2.274-10.725L1214.324,106.557z"/>
	</g>
	<g>
		<path fill="#FFFFFF" d="M1200.915,79.62l1.16-13.124c3.349,0.285,6.075-0.285,8.178-1.707c2.103-1.422,3.426-3.403,3.964-5.944
			c0.579-2.729,0.031-5.244-1.644-7.549c-1.675-2.304-4.266-3.829-7.779-4.576c-3.323-0.705-6.147-0.368-8.472,1.005
			c-2.323,1.376-3.758,3.349-4.303,5.921c-0.358,1.693-0.459,3.786-0.3,6.279l-10.464-3.742c0.853-3.556,0.655-6.448-0.592-8.681
			c-1.247-2.229-3.234-3.634-5.963-4.214c-2.32-0.492-4.316-0.195-5.99,0.894c-1.672,1.088-2.751,2.776-3.237,5.064
			c-0.478,2.259-0.103,4.353,1.125,6.285c1.23,1.932,3.312,3.39,6.249,4.373l-4.653,11.745c-3.991-1.731-7.053-3.715-9.184-5.953
			c-2.13-2.237-3.583-5.038-4.362-8.398c-0.778-3.359-0.766-6.937,0.04-10.731c1.376-6.491,4.55-11.257,9.521-14.302
			c4.072-2.512,8.241-3.316,12.506-2.412c6.053,1.283,10.182,5.617,12.384,12.999c1.684-3.773,4.253-6.529,7.702-8.272
			c3.45-1.744,7.262-2.172,11.432-1.288c6.054,1.284,10.744,4.589,14.071,9.915c3.328,5.327,4.293,11.283,2.896,17.868
			c-1.322,6.241-4.217,11.034-8.678,14.383C1212.057,78.805,1206.855,80.192,1200.915,79.62z"/>
	</g>
	<g>
		<path fill="#FFFFFF" d="M1306.948,133.99l-4.364,12.789l-48.199-16.448c2.775,6.165,4.128,12.773,4.057,19.829l-11.606-3.961
			c0.047-3.71-0.787-8.042-2.501-12.998c-1.714-4.955-4.355-8.853-7.924-11.699l3.541-10.378L1306.948,133.99z"/>
	</g>
	<g>
		<path fill="#FFFFFF" d="M1317.577,63.982l11.879,4.053l-15.299,44.831c-4.325-2.018-8.083-4.927-11.277-8.727
			c-3.192-3.798-6.889-10.412-11.089-19.841c-3.404-7.597-5.837-12.376-7.305-14.333c-2.039-2.661-4.348-4.431-6.927-5.31
			c-2.852-0.973-5.306-0.954-7.362,0.054c-2.054,1.009-3.543,2.865-4.465,5.564c-0.911,2.67-0.832,5.069,0.238,7.195
			c1.069,2.127,3.429,3.949,7.078,5.465l-5.623,12.309c-6.78-3.16-11.02-7.266-12.718-12.317c-1.698-5.05-1.522-10.58,0.529-16.588
			c2.247-6.583,5.787-11.152,10.621-13.702c4.834-2.549,9.891-2.926,15.17-1.123c3.004,1.026,5.681,2.54,8.027,4.544
			c2.348,2.004,4.611,4.682,6.786,8.033c1.445,2.221,3.329,5.979,5.654,11.278c2.325,5.3,3.909,8.695,4.756,10.185
			c0.847,1.491,1.731,2.767,2.655,3.829L1317.577,63.982z"/>
	</g>
	<g>
		<path fill="#FFFFFF" d="M1395.796,170.918l-5.567,12.314l-46.405-20.982c2.172,6.401,2.887,13.11,2.142,20.126l-11.175-5.052
			c0.402-3.689-0.014-8.082-1.246-13.176c-1.233-5.096-3.488-9.231-6.768-12.403l4.517-9.991L1395.796,170.918z"/>
	</g>
	<g>
		<path fill="#FFFFFF" d="M1417.711,122.447l-5.567,12.314l-46.405-20.982c2.172,6.401,2.886,13.11,2.141,20.126l-11.174-5.052
			c0.402-3.689-0.014-8.081-1.245-13.177c-1.233-5.096-3.488-9.231-6.768-12.403l4.517-9.991L1417.711,122.447z"/>
	</g>
	<g>
		<path fill="#FFFFFF" d="M1480.596,217.32l-6.805,11.673l-43.996-25.65c1.5,6.59,1.522,13.338,0.057,20.241l-10.594-6.177
			c0.777-3.629,0.818-8.04,0.118-13.236c-0.7-5.195-2.519-9.539-5.457-13.033l5.523-9.471L1480.596,217.32z"/>
	</g>
	<g>
		<path fill="#FFFFFF" d="M1443.06,141.154c3.438-5.899,8.232-9.282,14.38-10.152c7.295-1.053,16.717,1.784,28.266,8.518
			c11.523,6.718,18.641,13.54,21.356,20.465c2.234,5.718,1.63,11.526-1.809,17.426c-3.457,5.928-8.518,9.377-15.191,10.349
			c-6.671,0.972-15.85-1.949-27.538-8.764c-11.467-6.684-18.556-13.491-21.273-20.416
			C1439.017,152.864,1439.62,147.054,1443.06,141.154z M1452.739,146.797c-0.823,1.413-1.108,2.936-0.853,4.567
			c0.255,1.633,1.366,3.434,3.339,5.397c2.551,2.563,7.399,5.928,14.545,10.093c7.145,4.166,12.265,6.669,15.357,7.506
			c3.092,0.839,5.4,0.969,6.925,0.391c1.524-0.577,2.698-1.573,3.523-2.985c0.823-1.413,1.108-2.936,0.853-4.568
			c-0.254-1.632-1.366-3.431-3.338-5.397c-2.523-2.547-7.357-5.903-14.503-10.069c-7.145-4.166-12.265-6.668-15.357-7.506
			c-3.093-0.837-5.406-0.973-6.945-0.402C1454.744,144.396,1453.563,145.386,1452.739,146.797z"/>
	</g>
	<g>
		<path fill="#FFFFFF" d="M1494.457,240.545c3.87-5.627,8.901-8.645,15.096-9.056c7.351-0.509,16.536,3.023,27.553,10.597
			c10.991,7.555,17.583,14.888,19.776,21.998c1.8,5.868,0.767,11.617-3.1,17.244c-3.887,5.654-9.192,8.717-15.919,9.191
			c-6.725,0.474-15.661-3.121-26.81-10.787c-10.939-7.519-17.503-14.833-19.696-21.943
			C1489.557,251.921,1490.59,246.174,1494.457,240.545z M1503.693,246.893c-0.927,1.346-1.323,2.845-1.191,4.491
			c0.131,1.647,1.108,3.525,2.928,5.63c2.353,2.748,6.939,6.461,13.753,11.147c6.818,4.685,11.736,7.562,14.756,8.627
			c3.022,1.067,5.314,1.368,6.876,0.905c1.563-0.463,2.81-1.368,3.735-2.714c0.927-1.348,1.323-2.844,1.191-4.492
			c-0.132-1.646-1.109-3.524-2.93-5.631c-2.324-2.728-6.897-6.435-13.712-11.119c-6.818-4.686-11.736-7.562-14.759-8.628
			c-3.021-1.065-5.32-1.372-6.896-0.919C1505.87,244.646,1504.619,245.545,1503.693,246.893z"/>
	</g>
	<g>
		<path fill="#FFFFFF" d="M1559.793,241.682l6.22-11.597c2.375,1.244,4.473,1.673,6.292,1.29c1.817-0.382,3.354-1.484,4.607-3.309
			c1.58-2.298,1.868-4.98,0.862-8.045c-1.006-3.064-4.685-7.108-11.033-12.135c1.325,5.034,0.542,9.651-2.344,13.854
			c-3.142,4.571-7.617,7.301-13.423,8.193c-5.806,0.892-11.535-0.606-17.191-4.493c-5.891-4.05-9.437-9.064-10.635-15.046
			c-1.202-5.979,0.06-11.677,3.783-17.093c4.051-5.892,9.651-9.158,16.806-9.805s15.95,2.619,26.384,9.793
			c10.62,7.301,16.93,14.536,18.926,21.706c1.997,7.169,0.825,13.911-3.515,20.225c-3.124,4.544-6.858,7.386-11.201,8.523
			C1569.995,244.883,1565.148,244.196,1559.793,241.682z M1552.788,199.752c-3.594-2.47-6.948-3.559-10.065-3.271
			c-3.117,0.288-5.42,1.516-6.908,3.683c-1.418,2.061-1.781,4.33-1.091,6.807c0.691,2.478,2.884,4.989,6.582,7.53
			c3.751,2.579,7.015,3.732,9.788,3.46c2.775-0.271,4.925-1.517,6.45-3.735c1.472-2.139,1.865-4.523,1.182-7.153
			C1558.044,204.444,1556.064,202.004,1552.788,199.752z"/>
	</g>
	<g>
		<path fill="#FFFFFF" d="M1572.419,296.465c4.531-5.108,9.896-7.484,16.096-7.127c7.359,0.399,16.039,5.037,26.04,13.909
			c9.978,8.851,15.616,16.94,16.917,24.265c1.066,6.046-0.668,11.623-5.2,16.73c-4.554,5.132-10.196,7.52-16.929,7.161
			c-6.731-0.357-15.157-5.027-25.28-14.006c-9.929-8.808-15.541-16.876-16.844-24.201
			C1566.152,307.152,1567.887,301.574,1572.419,296.465z M1580.8,303.901c-1.086,1.224-1.663,2.66-1.735,4.311
			c-0.071,1.65,0.666,3.634,2.212,5.948c1.997,3.016,6.09,7.266,12.278,12.757c6.187,5.489,10.714,8.95,13.582,10.379
			c2.867,1.43,5.106,2.011,6.713,1.745c1.608-0.266,2.954-1.011,4.04-2.234c1.086-1.224,1.663-2.659,1.734-4.311
			c0.071-1.65-0.666-3.634-2.213-5.948c-1.973-2.993-6.053-7.234-12.241-12.724c-6.189-5.49-10.715-8.948-13.582-10.38
			c-2.867-1.429-5.109-2.016-6.73-1.76C1583.238,301.939,1581.887,302.679,1580.8,303.901z"/>
	</g>
	<g>
		<path fill="#FFFFFF" d="M1628.359,282.762c-3.423,1.635-6.625,2.19-9.609,1.664c-2.983-0.525-5.627-1.81-7.93-3.852
			c-3.934-3.489-5.965-7.744-6.094-12.768c-0.13-5.023,2.05-10.064,6.539-15.125c4.446-5.013,9.181-7.765,14.207-8.259
			c5.022-0.493,9.501,1.004,13.434,4.493c2.446,2.17,4.06,4.737,4.838,7.7c0.778,2.963,0.651,6.041-0.385,9.238
			c3.77-1.883,7.46-2.587,11.065-2.11c3.605,0.477,6.883,2.025,9.833,4.641c4.868,4.32,7.447,9.384,7.738,15.19
			c0.291,5.809-1.852,11.291-6.425,16.446c-4.256,4.796-9.056,7.673-14.406,8.627c-6.314,1.129-12.062-0.607-17.242-5.202
			c-2.854-2.532-4.846-5.563-5.977-9.098C1626.812,290.82,1626.951,286.955,1628.359,282.762z M1620.029,271.642
			c2.015,1.788,4.09,2.612,6.229,2.472c2.138-0.138,4.046-1.155,5.727-3.05c1.701-1.919,2.494-3.96,2.376-6.121
			c-0.116-2.162-1.184-4.137-3.198-5.924c-1.895-1.68-3.916-2.456-6.067-2.328c-2.15,0.129-4.053,1.127-5.714,2.997
			c-1.723,1.942-2.52,4-2.39,6.174C1617.121,268.034,1618.135,269.961,1620.029,271.642z M1641.79,292.621
			c2.782,2.468,5.586,3.679,8.41,3.636c2.826-0.042,5.185-1.133,7.078-3.267c1.852-2.087,2.634-4.478,2.347-7.176
			c-0.284-2.697-1.843-5.3-4.674-7.812c-2.469-2.191-5.071-3.257-7.804-3.196c-2.733,0.062-5.047,1.159-6.94,3.294
			c-2.193,2.47-2.974,5.067-2.345,7.788C1638.491,288.61,1639.799,290.855,1641.79,292.621z"/>
	</g>
	<g>
		<path fill="#FFFFFF" d="M1642.453,359.822c5.072-4.572,10.671-6.337,16.79-5.291c7.27,1.217,15.378,6.792,24.329,16.723
			c8.93,9.909,13.633,18.573,14.111,25.998c0.386,6.127-1.958,11.477-7.03,16.049c-5.098,4.595-10.971,6.338-17.622,5.231
			c-6.65-1.105-14.505-6.684-23.563-16.733c-8.887-9.86-13.567-18.501-14.046-25.927
			C1635.037,369.744,1637.381,364.394,1642.453,359.822z M1649.955,368.146c-1.214,1.094-1.949,2.459-2.203,4.091
			c-0.257,1.633,0.255,3.687,1.535,6.157c1.65,3.219,5.243,7.9,10.782,14.044c5.538,6.144,9.652,10.087,12.342,11.827
			c2.691,1.741,4.851,2.567,6.479,2.48c1.628-0.085,3.05-0.674,4.263-1.771c1.215-1.095,1.949-2.459,2.205-4.091
			c0.254-1.632-0.258-3.685-1.536-6.157c-1.628-3.194-5.211-7.864-10.749-14.009c-5.538-6.144-9.652-10.086-12.341-11.827
			c-2.691-1.741-4.856-2.573-6.494-2.5C1652.597,366.468,1651.17,367.051,1649.955,368.146z"/>
	</g>
	<g>
		<path fill="#FFFFFF" d="M1678.277,346.116l-8.405-9.323l34.329-30.942l6.569,7.287c-0.323,5.342,0.402,11.939,2.172,19.795
			c1.771,7.855,4.537,15.411,8.292,22.665c3.754,7.256,7.726,13.182,11.913,17.78l-9.68,8.725
			c-6.359-7.39-11.519-16.12-15.479-26.188c-3.961-10.07-6.256-20.195-6.885-30.375L1678.277,346.116z"/>
	</g>
	<g>
		<path fill="#FFFFFF" d="M1705.026,429.598c5.501-4.047,11.243-5.245,17.229-3.6c7.111,1.932,14.629,8.282,22.55,19.052
			c7.904,10.743,11.723,19.832,11.461,27.267c-0.224,6.134-3.086,11.224-8.586,15.27c-5.527,4.066-11.543,5.218-18.052,3.458
			s-13.77-8.089-21.786-18.987c-7.865-10.691-11.665-19.755-11.404-27.191C1696.663,438.734,1699.525,433.643,1705.026,429.598z
			 M1711.665,438.624c-1.317,0.968-2.185,2.254-2.6,3.851c-0.416,1.599-0.11,3.692,0.917,6.279c1.32,3.367,4.433,8.38,9.334,15.043
			c4.901,6.662,8.603,10.994,11.108,12.99c2.504,1.998,4.57,3.036,6.198,3.112c1.628,0.076,3.101-0.371,4.417-1.339
			c1.316-0.968,2.183-2.253,2.6-3.851c0.415-1.599,0.109-3.692-0.917-6.28c-1.304-3.34-4.404-8.34-9.305-15.004
			c-4.902-6.663-8.604-10.992-11.109-12.992c-2.505-1.998-4.575-3.041-6.212-3.13
			C1714.459,437.215,1712.983,437.655,1711.665,438.624z"/>
	</g>
	<g>
		<path fill="#FFFFFF" d="M1781.129,395.408l-9.681,8.912c-1.854-1.979-3.702-3.087-5.547-3.322
			c-1.845-0.234-3.633,0.285-5.362,1.557c-2.299,1.69-3.482,4.153-3.55,7.388c-0.069,3.235,2.092,8.27,6.486,15.108
			c0.356-5.196,2.549-9.277,6.578-12.241c4.546-3.343,9.712-4.477,15.498-3.4c5.786,1.078,10.693,4.351,14.721,9.827
			c4.274,5.81,5.998,11.726,5.171,17.745c-0.826,6.02-3.911,10.996-9.256,14.927c-5.731,4.217-12.085,5.456-19.054,3.719
			c-6.971-1.739-14.188-7.682-21.654-17.832c-7.655-10.407-11.249-19.324-10.782-26.751c0.467-7.426,3.772-13.401,9.919-17.923
			c4.313-3.171,8.771-4.591,13.375-4.255C1772.595,389.2,1776.975,391.381,1781.129,395.408z M1773.92,437.305
			c2.604,3.538,5.426,5.67,8.467,6.397c3.042,0.727,5.608,0.321,7.7-1.217c2.016-1.482,3.113-3.504,3.299-6.068
			c0.183-2.561-1.045-5.638-3.685-9.228c-2.717-3.693-5.428-5.867-8.137-6.52c-2.71-0.653-5.149-0.182-7.318,1.412
			c-2.092,1.539-3.258,3.661-3.497,6.364C1770.507,431.149,1771.565,434.103,1773.92,437.305z"/>
	</g>
	<g>
		<path fill="#FFFFFF" d="M1760.54,507.752c5.847-3.529,11.676-4.2,17.487-2.018c6.906,2.571,13.813,9.579,20.722,21.024
			c6.892,11.418,9.871,20.818,8.932,28.198c-0.781,6.089-4.094,10.897-9.94,14.426c-5.873,3.545-11.97,4.146-18.29,1.801
			c-6.321-2.343-12.977-9.307-19.968-20.89c-6.859-11.363-9.821-20.733-8.882-28.116
			C1751.38,516.089,1754.694,511.28,1760.54,507.752z M1766.33,517.344c-1.399,0.845-2.38,2.046-2.939,3.599
			c-0.56,1.556-0.446,3.668,0.344,6.337c1.01,3.473,3.652,8.748,7.927,15.829c4.274,7.081,7.567,11.731,9.878,13.948
			c2.313,2.218,4.274,3.439,5.891,3.662c1.613,0.225,3.121-0.086,4.52-0.931c1.4-0.845,2.38-2.044,2.938-3.6
			c0.561-1.555,0.445-3.667-0.343-6.337c-0.992-3.446-3.626-8.708-7.901-15.789c-4.275-7.08-7.569-11.73-9.88-13.948
			c-2.313-2.218-4.28-3.445-5.903-3.682C1769.24,516.196,1767.729,516.499,1766.33,517.344z"/>
	</g>
	<g>
		<path fill="#FFFFFF" d="M1818.551,534.242l10.807-8.152c1.903,2.408,4.123,3.885,6.662,4.431c2.539,0.546,4.864,0.181,6.978-1.094
			c2.414-1.457,3.868-3.672,4.357-6.647c0.489-2.972-0.459-6.436-2.844-10.388c-2.235-3.706-4.745-5.984-7.523-6.834
			c-2.78-0.851-5.5-0.471-8.162,1.135c-3.321,2.004-5.413,5.27-6.275,9.797l-10.206,4.308l-13.033-34.99l30.588-18.464l6.536,10.828
			l-21.82,13.17l4.376,11.345c1.801-2.847,4.046-5.083,6.735-6.707c5.134-3.098,10.609-3.857,16.432-2.278
			c5.82,1.579,10.529,5.347,14.124,11.302c2.998,4.968,4.233,10.27,3.703,15.908c-0.711,7.693-4.552,13.644-11.523,17.852
			c-5.57,3.362-11.017,4.609-16.335,3.738C1826.81,541.63,1822.285,538.877,1818.551,534.242z"/>
	</g>
	<g>
		<path fill="#FFFFFF" d="M1808.839,589.965c6.231-2.792,12.102-2.75,17.604,0.125c6.542,3.392,12.546,11.189,18.011,23.39
			c5.453,12.171,7.266,21.864,5.437,29.076c-1.515,5.948-5.39,10.318-11.622,13.11c-6.261,2.805-12.387,2.658-18.374-0.437
			c-5.989-3.095-11.749-10.817-17.281-23.164c-5.426-12.112-7.223-21.775-5.396-28.988
			C1798.735,597.126,1802.608,592.756,1808.839,589.965z M1813.42,600.191c-1.492,0.669-2.61,1.741-3.354,3.215
			c-0.743,1.475-0.888,3.586-0.43,6.331c0.579,3.57,2.56,9.127,5.94,16.676c3.382,7.548,6.086,12.564,8.113,15.046
			c2.023,2.484,3.823,3.935,5.4,4.352c1.577,0.42,3.109,0.294,4.602-0.374c1.494-0.668,2.61-1.741,3.356-3.215
			c0.743-1.475,0.888-3.586,0.429-6.332c-0.566-3.539-2.54-9.085-5.922-16.633c-3.381-7.549-6.085-12.562-8.109-15.047
			c-2.027-2.482-3.83-3.941-5.412-4.374C1816.451,599.405,1814.914,599.521,1813.42,600.191z"/>
	</g>
	<g>
		<path fill="#FFFFFF" d="M1894.618,629.105l-5.8-12.947l-26.332,11.797l-4.836-10.796l9.61-53.363l10.356-4.639l18.283,40.815
			l7.987-3.578l4.856,10.84l-7.987,3.578l5.8,12.947L1894.618,629.105z M1883.962,605.319l-9.85-21.987l-4.94,28.612
			L1883.962,605.319z"/>
	</g>
	<g>
		<path fill="#FFFFFF" d="M1847.943,675.275c6.526-2.013,12.346-1.256,17.458,2.266c6.08,4.164,11.092,12.634,15.033,25.408
			c3.931,12.745,4.551,22.586,1.859,29.522c-2.229,5.721-6.605,9.586-13.133,11.599c-6.557,2.023-12.618,1.132-18.187-2.67
			c-5.568-3.801-10.345-12.167-14.333-25.096c-3.912-12.683-4.521-22.492-1.832-29.431
			C1837.041,681.155,1841.417,677.288,1847.943,675.275z M1851.245,685.983c-1.562,0.482-2.803,1.41-3.721,2.781
			c-0.919,1.374-1.318,3.452-1.199,6.233c0.143,3.612,1.431,9.372,3.87,17.276s4.511,13.213,6.22,15.923
			c1.709,2.711,3.318,4.37,4.831,4.976c1.514,0.607,3.05,0.67,4.612,0.187c1.562-0.482,2.805-1.409,3.722-2.783
			c0.917-1.373,1.318-3.452,1.198-6.232c-0.132-3.583-1.417-9.327-3.855-17.231c-2.438-7.905-4.511-13.211-6.221-15.923
			c-1.708-2.712-3.321-4.378-4.837-5C1854.348,685.572,1852.809,685.501,1851.245,685.983z"/>
	</g>
	<g>
		<path fill="#FFFFFF" d="M1897.031,714.639l12.032-5.371c1.38,3.063,3.204,5.169,5.471,6.313c2.265,1.147,4.639,1.338,7.12,0.571
			c2.665-0.822,4.598-2.526,5.796-5.11c1.199-2.583,1.27-5.591,0.212-9.022c-1.002-3.247-2.669-5.551-5-6.912
			c-2.331-1.36-4.755-1.654-7.267-0.879c-1.655,0.511-3.53,1.441-5.63,2.793l-1.822-10.963c3.521-0.986,5.952-2.566,7.296-4.74
			c1.342-2.177,1.602-4.597,0.78-7.263c-0.698-2.267-1.932-3.866-3.695-4.798c-1.763-0.933-3.764-1.054-6-0.365
			c-2.206,0.681-3.853,2.028-4.943,4.041c-1.089,2.015-1.349,4.543-0.78,7.589l-12.525,1.65c-0.43-4.33-0.186-7.97,0.733-10.921
			c0.919-2.95,2.657-5.582,5.214-7.901c2.558-2.315,5.687-4.044,9.396-5.187c6.342-1.956,12.05-1.502,17.128,1.36
			c4.175,2.335,6.907,5.587,8.192,9.754c1.823,5.913,0.046,11.628-5.332,17.145c4.116-0.363,7.773,0.54,10.975,2.704
			c3.201,2.168,5.431,5.289,6.688,9.362c1.823,5.913,1.218,11.62-1.817,17.118c-3.034,5.499-7.768,9.24-14.203,11.225
			c-6.096,1.88-11.691,1.685-16.787-0.585C1903.164,723.978,1899.422,720.109,1897.031,714.639z"/>
	</g>
	<g>
		<path fill="#FFFFFF" d="M1876.567,766.898c6.685-1.391,12.406-0.092,17.167,3.896c5.662,4.715,9.856,13.617,12.579,26.706
			c2.716,13.057,2.41,22.912-0.923,29.563c-2.757,5.485-7.476,8.923-14.16,10.314c-6.718,1.398-12.668-0.058-17.854-4.365
			c-5.186-4.307-9.157-13.084-11.912-26.329c-2.703-12.995-2.39-22.817,0.943-29.47
			C1865.162,771.728,1869.883,768.288,1876.567,766.898z M1878.851,777.868c-1.602,0.333-2.924,1.141-3.967,2.422
			c-1.042,1.281-1.637,3.312-1.778,6.092c-0.199,3.61,0.546,9.464,2.23,17.562c1.684,8.097,3.248,13.577,4.696,16.436
			c1.446,2.859,2.893,4.662,4.344,5.408c1.448,0.747,2.973,0.952,4.573,0.621c1.601-0.334,2.923-1.14,3.966-2.421
			c1.042-1.281,1.636-3.312,1.777-6.093c0.205-3.579-0.535-9.418-2.219-17.516c-1.685-8.098-3.252-13.575-4.697-16.435
			c-1.445-2.859-2.896-4.669-4.349-5.432C1881.977,777.749,1880.449,777.535,1878.851,777.868z"/>
	</g>
	<g>
		<path fill="#FFFFFF" d="M1968.141,807.328l2.557,12.288l-46.375,9.648c-0.465-4.749,0.126-9.464,1.772-14.146
			c1.645-4.682,5.456-11.229,11.434-19.644c4.807-6.796,7.68-11.323,8.619-13.58c1.253-3.11,1.6-5.998,1.046-8.666
			c-0.614-2.949-1.878-5.054-3.793-6.309c-1.915-1.255-4.27-1.593-7.063-1.012c-2.764,0.575-4.786,1.863-6.072,3.867
			c-1.286,2.004-1.652,4.961-1.1,8.873l-13.456,1.425c-0.73-7.444,0.646-13.183,4.129-17.216c3.484-4.03,8.332-6.695,14.548-7.987
			c6.809-1.417,12.544-0.695,17.2,2.169c4.656,2.862,7.553,7.025,8.689,12.486c0.647,3.106,0.704,6.181,0.175,9.222
			c-0.531,3.041-1.685,6.351-3.461,9.93c-1.176,2.373-3.454,5.909-6.831,10.606c-3.377,4.698-5.493,7.791-6.346,9.277
			c-0.854,1.488-1.501,2.899-1.941,4.235L1968.141,807.328z"/>
	</g>
	<g>
		<path fill="#FFFFFF" d="M1895.221,860.129c6.781-0.814,12.37,0.971,16.77,5.351c5.24,5.183,8.655,14.413,10.247,27.685
			c1.588,13.243,0.438,23.036-3.451,29.378c-3.216,5.229-8.213,8.25-14.993,9.064c-6.813,0.817-12.617-1.142-17.415-5.879
			c-4.798-4.735-8.003-13.82-9.614-27.253c-1.58-13.179-0.424-22.939,3.463-29.283
			C1883.443,863.963,1888.441,860.942,1895.221,860.129z M1896.555,871.254c-1.623,0.194-3.01,0.886-4.158,2.072
			c-1.15,1.189-1.915,3.161-2.294,5.918c-0.508,3.581-0.268,9.477,0.717,17.689c0.986,8.213,2.075,13.806,3.271,16.777
			c1.195,2.974,2.483,4.893,3.863,5.76c1.379,0.869,2.881,1.205,4.505,1.01c1.623-0.194,3.01-0.885,4.159-2.074
			c1.148-1.187,1.914-3.16,2.292-5.918c0.511-3.549,0.274-9.43-0.711-17.642c-0.986-8.212-2.077-13.806-3.272-16.778
			c-1.196-2.972-2.484-4.9-3.865-5.785C1899.681,871.404,1898.178,871.059,1896.555,871.254z"/>
	</g>
	<g>
		<path fill="#FFFFFF" d="M1973.511,922.033l-13.417,1.61l-6.065-50.565c-4.353,5.173-9.723,9.255-16.112,12.249l-1.46-12.175
			c3.363-1.566,6.906-4.195,10.629-7.887c3.724-3.692,6.092-7.761,7.107-12.21l10.888-1.306L1973.511,922.033z"/>
	</g>
</g>
</svg>
